<svg xmlns="http://www.w3.org/2000/svg" width="18" height="18" viewBox="0 0 18 18">
  <g id="그룹_22318" data-name="그룹 22318" transform="translate(-265 -163)">
    <path id="패스_48247" data-name="패스 48247" d="M15,18H3a3,3,0,0,1-3-3V3A3,3,0,0,1,3,0H15a3,3,0,0,1,3,3V15a3,3,0,0,1-3,3" transform="translate(265 163)" fill="#8b5cf6"/>
    <path id="패스_48248" data-name="패스 48248" d="M5.727,3.545H7.909v1.6H5.727Zm0,3.2H7.909v1.6H5.727Zm0,1.6H7.909v1.6H5.727Zm0,1.6H7.909v1.6H5.727Zm2.182-6.4h2.182v1.6H7.909Zm0,3.2h2.182v1.6H7.909Zm0,3.2h2.182v1.6H7.909Zm2.182-6.4h2.182v1.6H10.091Zm0,1.6h2.182v1.6H10.091Zm0,1.6h2.182v1.6H10.091Zm0,3.2h2.182v1.6H10.091Z" transform="translate(265 164.455)" fill="#fff"/>
  </g>
</svg>
