<svg xmlns="http://www.w3.org/2000/svg" width="18" height="18" viewBox="0 0 18 18">
  <g id="그룹_22363" data-name="그룹 22363" transform="translate(-417 -163)">
    <path id="패스_48163" data-name="패스 48163" d="M15,18H3a3,3,0,0,1-3-3V3A3,3,0,0,1,3,0H15a3,3,0,0,1,3,3V15a3,3,0,0,1-3,3" transform="translate(417 163)" fill="#ff5454"/>
    <rect id="사각형_29496" data-name="사각형 29496" width="18" height="18" transform="translate(417 163)" fill="none"/>
    <path id="패스_48305" data-name="패스 48305" d="M1.624,0,.027,1.342v2.3l1.6,1.339h3.6l.323.27V6.393l-.336.282H2.546L2.223,6.4V5.623H0V7.06L1.6,8.4H6.141L7.769,7.037V4.6l-1.6-1.341h-3.6l-.321-.269V2l.321-.269H5.118L5.441,2V2.79H7.666V1.342L6.07,0Z" transform="translate(422.116 167.8)" fill="#fff"/>
  </g>
</svg>
