<svg xmlns="http://www.w3.org/2000/svg" width="18" height="18" viewBox="0 0 18 18">
  <g id="그룹_22362" data-name="그룹 22362" transform="translate(-246 -163)">
    <g id="그룹_22319" data-name="그룹 22319">
      <path id="패스_48239" data-name="패스 48239" d="M15,18H3a3,3,0,0,1-3-3V3A3,3,0,0,1,3,0H15a3,3,0,0,1,3,3V15a3,3,0,0,1-3,3" transform="translate(246 163)" fill="#d946ef"/>
      <rect id="사각형_29505" data-name="사각형 29505" width="18" height="18" transform="translate(246 163)" fill="none"/>
    </g>
    <path id="패스_48297" data-name="패스 48297" d="M6.62,3.545H9v1.6H6.62Zm2.38,0h2.38v1.6H9Zm0,1.6h2.38v1.6H9Zm0,1.6h2.38v1.6H9Zm0,1.6h2.38v1.6H9Zm0,1.6h2.38v1.6H9Z" transform="translate(245.5 164.455)" fill="#fff"/>
  </g>
</svg>
