<svg xmlns="http://www.w3.org/2000/svg" width="18" height="18" viewBox="0 0 18 18">
  <g id="그룹_22323" data-name="그룹 22323" transform="translate(-341 -163)">
    <path id="패스_48255" data-name="패스 48255" d="M111.757,21.273h-12a3,3,0,0,1-3-3v-12a3,3,0,0,1,3-3h12a3,3,0,0,1,3,3v12a3,3,0,0,1-3,3" transform="translate(244.243 159.727)" fill="#14b8a6"/>
    <path id="패스_48256" data-name="패스 48256" d="M102.484,6.818h2.182v1.6h-2.182Zm0,1.6h2.182v1.6h-2.182Zm0,1.6h2.182v1.6h-2.182Zm0,1.6h2.182v1.6h-2.182Zm0,1.6h2.182v1.6h-2.182Zm2.182-6.4h2.182v1.6h-2.182Zm0,3.2h2.182v1.6h-2.182Zm0,3.2h2.182v1.6h-2.182Zm2.182-6.4h2.183v1.6h-2.183Zm0,3.2h2.183v1.6h-2.183Zm0,1.6h2.183v1.6h-2.183Zm0,1.6h2.183v1.6h-2.183Z" transform="translate(244.243 161.182)" fill="#fff"/>
  </g>
</svg>
