<svg xmlns="http://www.w3.org/2000/svg" width="18" height="18" viewBox="0 0 18 18">
  <g id="그룹_22324" data-name="그룹 22324" transform="translate(-360 -163)">
    <path id="패스_48241" data-name="패스 48241" d="M135.079,21.273h-12a3,3,0,0,1-3-3v-12a3,3,0,0,1,3-3h12a3,3,0,0,1,3,3v12a3,3,0,0,1-3,3" transform="translate(239.921 159.727)" fill="#10b981"/>
    <path id="패스_48242" data-name="패스 48242" d="M125.806,6.818h2.182v1.6h-2.182Zm2.182,0h2.182v1.6h-2.182Zm0,4.8h2.182v1.6h-2.182Zm0,1.6h2.182v1.6h-2.182Zm2.181-6.4h2.183v1.6h-2.183Zm0,1.6h2.183v1.6h-2.183Zm0,1.6h2.183v1.6h-2.183Z" transform="translate(239.921 161.182)" fill="#fff"/>
  </g>
</svg>
