<svg xmlns="http://www.w3.org/2000/svg" width="18" height="18" viewBox="0 0 18 18">
  <g id="그룹_22326" data-name="그룹 22326" transform="translate(-398 -163)">
    <path id="패스_48245" data-name="패스 48245" d="M51.5,51.192h-12a3,3,0,0,1-3-3v-12a3,3,0,0,1,3-3h12a3,3,0,0,1,3,3v12a3,3,0,0,1-3,3" transform="translate(361.503 129.808)" fill="#eab308"/>
    <path id="패스_48246" data-name="패스 48246" d="M42.224,36.737h2.182v1.6H42.224Zm0,1.6h2.182v1.6H42.224Zm0,1.6h2.182v1.6H42.224Zm0,3.2h2.182v1.6H42.224Zm2.181-6.4h2.182v1.6H44.4Zm0,3.2h2.182v1.6H44.4Zm0,3.2h2.182v1.6H44.4Zm2.182-6.4H48.77v1.6H46.587Zm0,1.6H48.77v1.6H46.587Zm0,1.6H48.77v1.6H46.587Zm0,1.6H48.77v1.6H46.587Zm0,1.6H48.77v1.6H46.587Z" transform="translate(361.503 131.263)" fill="#fff"/>
  </g>
</svg>
