<svg xmlns="http://www.w3.org/2000/svg" width="18" height="18" viewBox="0 0 18 18">
  <g id="그룹_22360" data-name="그룹 22360" transform="translate(-265 -228)">
    <path id="패스_48275" data-name="패스 48275" d="M31.712,3.272H24.256L18.984,8.544V16l5.272,5.272h7.456L36.984,16V8.544Z" transform="translate(246.016 224.728)" fill="#c2c2cb"/>
    <path id="패스_48276" data-name="패스 48276" d="M24.712,6.817h2.182v1.6H24.712Zm0,3.2h2.182v1.6H24.712Zm0,1.6h2.182v1.6H24.712Zm0,1.6h2.182v1.6H24.712Zm2.182-6.4h2.182v1.6H26.894Zm0,3.2h2.182v1.6H26.894Zm0,3.2h2.182v1.6H26.894Zm2.181-6.4h2.182v1.6H29.075Zm0,1.6h2.182v1.6H29.075Zm0,1.6h2.182v1.6H29.075Zm0,3.2h2.182v1.6H29.075Z" transform="translate(246.016 226.184)" fill="#fff"/>
  </g>
</svg>
