<svg xmlns="http://www.w3.org/2000/svg" width="18" height="18" viewBox="0 0 18 18">
  <g id="그룹_22358" data-name="그룹 22358" transform="translate(-303 -228)">
    <path id="패스_48279" data-name="패스 48279" d="M69.925,3.272H62.469L57.2,8.544V16l5.272,5.272h7.456L75.2,16V8.544Z" transform="translate(245.803 224.728)" fill="#8d8d9a"/>
    <path id="패스_48280" data-name="패스 48280" d="M62.924,6.817h2.182v1.6H62.924Zm0,1.6h2.182v1.6H62.924Zm0,1.6h2.182v1.6H62.924Zm2.181,0h2.182v1.6H65.105Zm2.182-3.2H69.47v1.6H67.287Zm0,1.6H69.47v1.6H67.287Zm0,1.6H69.47v1.6H67.287Zm0,1.6H69.47v1.6H67.287Zm0,1.6H69.47v1.6H67.287Z" transform="translate(245.606 226.184)" fill="#fff"/>
  </g>
</svg>
