<svg xmlns="http://www.w3.org/2000/svg" width="18" height="18" viewBox="0 0 18 18">
  <g id="그룹_22356" data-name="그룹 22356" transform="translate(-341 -228)">
    <path id="패스_48283" data-name="패스 48283" d="M111.487,1.091h-7.456L98.759,6.363v7.456l5.272,5.272h7.456l5.272-5.272V6.363Z" transform="translate(242.241 226.909)" fill="#61616b"/>
    <path id="패스_48284" data-name="패스 48284" d="M104.486,4.636h2.182v1.6h-2.182Zm0,1.6h2.182v1.6h-2.182Zm0,1.6h2.182v1.6h-2.182Zm0,1.6h2.182v1.6h-2.182Zm0,1.6h2.182v1.6h-2.182Zm2.182-6.4h2.182v1.6h-2.182Zm0,3.2h2.182v1.6h-2.182Zm0,3.2h2.182v1.6h-2.182Zm2.182-6.4h2.183v1.6H108.85Zm0,3.2h2.183v1.6H108.85Zm0,1.6h2.183v1.6H108.85Zm0,1.6h2.183v1.6H108.85Z" transform="translate(242.241 228.365)" fill="#fff"/>
  </g>
</svg>
