<svg xmlns="http://www.w3.org/2000/svg" width="18" height="18" viewBox="0 0 18 18">
  <g id="그룹_22354" data-name="그룹 22354" transform="translate(-379 -228)">
    <path id="패스_48287" data-name="패스 48287" d="M155.154,1.09H147.7l-5.272,5.272v7.456L147.7,19.09h7.456l5.272-5.272V6.363Z" transform="translate(236.574 226.909)" fill="#3f3f46"/>
    <path id="패스_48288" data-name="패스 48288" d="M148.153,4.636h2.182v1.6h-2.182Zm0,1.6h2.182v1.6h-2.182Zm0,1.6h2.182v1.6h-2.182Zm0,1.6h2.182v1.6h-2.182Zm0,1.6h2.182v1.6h-2.182Zm2.182-6.4h2.182v1.6h-2.182Zm0,3.2h2.182v1.6h-2.182Zm0,3.2h2.182v1.6h-2.182Zm2.181-6.4H154.7v1.6h-2.183Zm0,1.6H154.7v1.6h-2.183Zm0,1.6H154.7v1.6h-2.183Zm0,1.6H154.7v1.6h-2.183Zm0,1.6H154.7v1.6h-2.183Z" transform="translate(236.574 228.365)" fill="#fff"/>
  </g>
</svg>
