<svg xmlns="http://www.w3.org/2000/svg" width="18" height="18" viewBox="0 0 18 18">
  <g id="그룹_22337" data-name="그룹 22337" transform="translate(-284 -184)">
    <path id="패스_48155" data-name="패스 48155" d="M39.779,18h-12a3,3,0,0,1-3-3V3a3,3,0,0,1,3-3h12a3,3,0,0,1,3,3V15a3,3,0,0,1-3,3" transform="translate(259.221 184)" fill="#a1a1aa"/>
    <path id="패스_48156" data-name="패스 48156" d="M30.506,3.545h2.182v1.6H30.506Zm0,6.4h2.182v1.6H30.506Zm2.183-6.4h2.182v1.6H32.689Zm0,3.2h2.182v1.6H32.689Zm0,3.2h2.182v1.6H32.689Zm2.181-6.4h2.182v1.6H34.87Zm0,1.6h2.182v1.6H34.87Zm0,1.6h2.182v1.6H34.87Zm0,1.6h2.182v1.6H34.87Zm0,1.6h2.182v1.6H34.87Z" transform="translate(259.221 185.455)" fill="#fff"/>
  </g>
</svg>
