<svg xmlns="http://www.w3.org/2000/svg" width="18" height="18" viewBox="0 0 18 18">
  <g id="그룹_22336" data-name="그룹 22336" transform="translate(-303 -184)">
    <path id="패스_48157" data-name="패스 48157" d="M64.077,19.091h-12a3,3,0,0,1-3-3v-12a3,3,0,0,1,3-3h12a3,3,0,0,1,3,3v12a3,3,0,0,1-3,3" transform="translate(253.923 182.909)" fill="#8d8d9a"/>
    <path id="패스_48158" data-name="패스 48158" d="M54.8,4.636h2.182v1.6H54.8Zm0,1.6h2.182v1.6H54.8Zm0,1.6h2.182v1.6H54.8Zm2.181,0h2.182v1.6H56.985Zm2.182-3.2H61.35v1.6H59.167Zm0,1.6H61.35v1.6H59.167Zm0,1.6H61.35v1.6H59.167Zm0,1.6H61.35v1.6H59.167Zm0,1.6H61.35v1.6H59.167Z" transform="translate(253.726 184.364)" fill="#fff"/>
  </g>
</svg>
