<svg xmlns="http://www.w3.org/2000/svg" width="18" height="18" viewBox="0 0 18 18">
  <g id="그룹_22340" data-name="그룹 22340" transform="translate(-246 -206)">
    <path id="패스_48257" data-name="패스 48257" d="M15,1a2,2,0,0,1,2,2V15a2,2,0,0,1-2,2H3a2,2,0,0,1-2-2V3A2,2,0,0,1,3,1Zm0-1H3A3,3,0,0,0,0,3V15a3,3,0,0,0,3,3H15a3,3,0,0,0,3-3V3a3,3,0,0,0-3-3" transform="translate(246 206)" fill="#d4d4d8"/>
    <path id="패스_48264" data-name="패스 48264" d="M6.62,3.545H9v1.6H6.62Zm2.38,0h2.38v1.6H9Zm0,1.6h2.38v1.6H9Zm0,1.6h2.38v1.6H9Zm0,1.6h2.38v1.6H9Zm0,1.6h2.38v1.6H9Z" transform="translate(245.5 207.455)" fill="#d4d4d8"/>
  </g>
</svg>
