<svg xmlns="http://www.w3.org/2000/svg" width="18" height="18" viewBox="0 0 18 18">
  <g id="그룹_22342" data-name="그룹 22342" transform="translate(-284 -206)">
    <path id="패스_48267" data-name="패스 48267" d="M63.416,1a2,2,0,0,1,2,2V15a2,2,0,0,1-2,2h-12a2,2,0,0,1-2-2V3a2,2,0,0,1,2-2Zm0-1h-12a3,3,0,0,0-3,3V15a3,3,0,0,0,3,3h12a3,3,0,0,0,3-3V3a3,3,0,0,0-3-3" transform="translate(235.584 206)" fill="#a1a1aa"/>
    <path id="패스_48268" data-name="패스 48268" d="M54.144,3.545h2.182v1.6H54.144Zm0,6.4h2.182v1.6H54.144Zm2.182-6.4h2.182v1.6H56.326Zm0,3.2h2.182v1.6H56.326Zm0,3.2h2.182v1.6H56.326Zm2.181-6.4h2.182v1.6H58.507Zm0,1.6h2.182v1.6H58.507Zm0,1.6h2.182v1.6H58.507Zm0,1.6h2.182v1.6H58.507Zm0,1.6h2.182v1.6H58.507Z" transform="translate(235.584 207.455)" fill="#a1a1aa"/>
  </g>
</svg>
