<svg xmlns="http://www.w3.org/2000/svg" width="18" height="18" viewBox="0 0 18 18">
  <g id="그룹_22343" data-name="그룹 22343" transform="translate(-303 -206)">
    <path id="패스_48269" data-name="패스 48269" d="M87.714,1a2,2,0,0,1,2,2V15a2,2,0,0,1-2,2h-12a2,2,0,0,1-2-2V3a2,2,0,0,1,2-2Zm0-1h-12a3,3,0,0,0-3,3V15a3,3,0,0,0,3,3h12a3,3,0,0,0,3-3V3a3,3,0,0,0-3-3" transform="translate(230.286 206)" fill="#8d8d9a"/>
    <path id="패스_48270" data-name="패스 48270" d="M78.441,3.545h2.182v1.6H78.441Zm0,1.6h2.182v1.6H78.441Zm0,1.6h2.182v1.6H78.441Zm2.182,0h2.182v1.6H80.623Zm2.181-3.2h2.183v1.6H82.8Zm0,1.6h2.183v1.6H82.8Zm0,1.6h2.183v1.6H82.8Zm0,1.6h2.183v1.6H82.8Zm0,1.6h2.183v1.6H82.8Z" transform="translate(230.089 207.455)" fill="#8d8d9a"/>
  </g>
</svg>
