<svg xmlns="http://www.w3.org/2000/svg" width="18" height="18" viewBox="0 0 18 18">
  <g id="그룹_22344" data-name="그룹 22344" transform="translate(-322 -206)">
    <path id="패스_48271" data-name="패스 48271" d="M111.444,1a2,2,0,0,1,2,2V15a2,2,0,0,1-2,2h-12a2,2,0,0,1-2-2V3a2,2,0,0,1,2-2Zm0-1h-12a3,3,0,0,0-3,3V15a3,3,0,0,0,3,3h12a3,3,0,0,0,3-3V3a3,3,0,0,0-3-3" transform="translate(225.556 206)" fill="#71717a"/>
    <path id="패스_48272" data-name="패스 48272" d="M102.171,3.545h2.182v1.6h-2.182Zm0,1.6h2.182v1.6h-2.182Zm0,1.6h2.182v1.6h-2.182Zm0,3.2h2.182v1.6h-2.182Zm2.182-6.4h2.182v1.6h-2.182Zm0,3.2h2.182v1.6h-2.182Zm0,3.2h2.182v1.6h-2.182Zm2.182-6.4h2.183v1.6h-2.183Zm0,3.2h2.183v1.6h-2.183Zm0,1.6h2.183v1.6h-2.183Zm0,1.6h2.183v1.6h-2.183Z" transform="translate(225.556 207.455)" fill="#71717a"/>
  </g>
</svg>
