<svg xmlns="http://www.w3.org/2000/svg" width="18" height="18" viewBox="0 0 18 18">
  <g id="그룹_22345" data-name="그룹 22345" transform="translate(-341 -206)">
    <path id="패스_48273" data-name="패스 48273" d="M135.4,1a2,2,0,0,1,2,2V15a2,2,0,0,1-2,2h-12a2,2,0,0,1-2-2V3a2,2,0,0,1,2-2Zm0-1h-12a3,3,0,0,0-3,3V15a3,3,0,0,0,3,3h12a3,3,0,0,0,3-3V3a3,3,0,0,0-3-3" transform="translate(220.605 206)" fill="#61616b"/>
    <path id="패스_48274" data-name="패스 48274" d="M126.122,3.545H128.3v1.6h-2.182Zm0,1.6H128.3v1.6h-2.182Zm0,1.6H128.3v1.6h-2.182Zm0,1.6H128.3v1.6h-2.182Zm0,1.6H128.3v1.6h-2.182Zm2.181-6.4h2.182v1.6H128.3Zm0,3.2h2.182v1.6H128.3Zm0,3.2h2.182v1.6H128.3Zm2.182-6.4h2.183v1.6h-2.183Zm0,3.2h2.183v1.6h-2.183Zm0,1.6h2.183v1.6h-2.183Zm0,1.6h2.183v1.6h-2.183Z" transform="translate(220.605 207.455)" fill="#61616b"/>
  </g>
</svg>
