<svg xmlns="http://www.w3.org/2000/svg" width="18" height="18" viewBox="0 0 18 18">
  <g id="그룹_22368" data-name="그룹 22368" transform="translate(-436 -206)">
    <path id="패스_48165" data-name="패스 48165" d="M15,18H3a3,3,0,0,1-3-3V3A3,3,0,0,1,3,0H15a3,3,0,0,1,3,3V15a3,3,0,0,1-3,3" transform="translate(436 206)" fill="#b22b2b"/>
    <rect id="사각형_29497" data-name="사각형 29497" width="18" height="18" transform="translate(436 206)" fill="none"/>
    <path id="패스_48301" data-name="패스 48301" d="M25.618,22,22.88,26.975,20.156,22H18.127v8.4h2.179V26.029l1.887,3.252h1.371l1.9-3.257V30.4h2.181V22Z" transform="translate(422.176 188.8)" fill="#fff"/>
  </g>
</svg>
