<svg xmlns="http://www.w3.org/2000/svg" width="18" height="18" viewBox="0 0 18 18">
  <g id="그룹_22359" data-name="그룹 22359" transform="translate(-284 -228)">
    <path id="패스_48277" data-name="패스 48277" d="M50.764,3.272H43.308L38.036,8.544V16l5.272,5.272h7.456L56.036,16V8.544Z" transform="translate(245.964 224.728)" fill="#a1a1aa"/>
    <path id="패스_48278" data-name="패스 48278" d="M43.763,6.817h2.182v1.6H43.763Zm0,6.4h2.182v1.6H43.763Zm2.182-6.4h2.182v1.6H45.945Zm0,3.2h2.182v1.6H45.945Zm0,3.2h2.182v1.6H45.945Zm2.182-6.4h2.182v1.6H48.127Zm0,1.6h2.182v1.6H48.127Zm0,1.6h2.182v1.6H48.127Zm0,1.6h2.182v1.6H48.127Zm0,1.6h2.182v1.6H48.127Z" transform="translate(245.964 226.184)" fill="#fff"/>
  </g>
</svg>
