<svg xmlns="http://www.w3.org/2000/svg" width="18" height="18" viewBox="0 0 18 18">
  <g id="그룹_22357" data-name="그룹 22357" transform="translate(-322 -228)">
    <path id="패스_48281" data-name="패스 48281" d="M82.97,5.454,77.7,10.726v7.456l5.272,5.272h7.456L95.7,18.182V10.726L90.426,5.454Z" transform="translate(244.302 222.546)" fill="#71717a"/>
    <path id="패스_48282" data-name="패스 48282" d="M83.425,9h2.182v1.6H83.425Zm0,1.6h2.182v1.6H83.425Zm0,1.6h2.182v1.6H83.425Zm0,3.2h2.182V17H83.425ZM85.607,9h2.182v1.6H85.607Zm0,3.2h2.182v1.6H85.607Zm0,3.2h2.182V17H85.607ZM87.789,9h2.183v1.6H87.789Zm0,3.2h2.183v1.6H87.789Zm0,1.6h2.183v1.6H87.789Zm0,1.6h2.183V17H87.789Z" transform="translate(244.302 224.002)" fill="#fff"/>
  </g>
</svg>
