<svg xmlns="http://www.w3.org/2000/svg" width="18" height="18" viewBox="0 0 18 18">
  <g id="그룹_22353" data-name="그룹 22353" transform="translate(-398 -227.999)">
    <path id="패스_48289" data-name="패스 48289" d="M167.724,0l-5.272,5.271v7.457L167.724,18h7.456l5.272-5.272V5.271L175.18,0Z" transform="translate(235.548 227.999)" fill="#27272a"/>
    <path id="패스_48290" data-name="패스 48290" d="M168.179,3.545h2.182v1.6h-2.182Zm0,1.6h2.182v1.6h-2.182Zm0,1.6h2.182v1.6h-2.182Zm0,3.2h2.182v1.6h-2.182Zm2.182-6.4h2.182v1.6h-2.182Zm0,3.2h2.182v1.6h-2.182Zm0,3.2h2.182v1.6h-2.182Zm2.181-6.4h2.183v1.6h-2.183Zm0,1.6h2.183v1.6h-2.183Zm0,1.6h2.183v1.6h-2.183Zm0,1.6h2.183v1.6h-2.183Zm0,1.6h2.183v1.6h-2.183Z" transform="translate(235.548 229.455)" fill="#fff"/>
  </g>
</svg>
