<svg xmlns="http://www.w3.org/2000/svg" width="18" height="18" viewBox="0 0 18 18">
  <g id="그룹_22370" data-name="그룹 22370" transform="translate(-417 -228)">
    <path id="패스_48293" data-name="패스 48293" d="M195.206,1.091H187.75l-5.272,5.272v7.456l5.272,5.272h7.456l5.272-5.272V6.363Z" transform="translate(234.522 226.909)" fill="#ff5454"/>
    <path id="패스_48302" data-name="패스 48302" d="M1.666,44,.1,45.343v2.3l1.567,1.341H5.2l.315.27v1.142l-.328.281H2.574l-.313-.268v-.784H.073v1.435L1.64,52.4H6.107L7.7,51.034V48.6L6.135,47.258H2.6l-.313-.268v-1l.313-.268H5.093l.313.268v.794H7.593V45.343L6.028,44Z" transform="translate(422.176 188.8)" fill="#fff"/>
  </g>
</svg>
