<svg xmlns="http://www.w3.org/2000/svg" width="18" height="18" viewBox="0 0 18 18">
  <g id="그룹_22339" data-name="그룹 22339" transform="translate(-246 -184)">
    <path id="패스_48141" data-name="패스 48141" d="M15,18H3a3,3,0,0,1-3-3V3A3,3,0,0,1,3,0H15a3,3,0,0,1,3,3V15a3,3,0,0,1-3,3" transform="translate(246 184)" fill="#d4d4d8"/>
    <path id="패스_48142" data-name="패스 48142" d="M6.62,3.545H9v1.6H6.62Zm2.38,0h2.38v1.6H9Zm0,1.6h2.38v1.6H9Zm0,1.6h2.38v1.6H9Zm0,1.6h2.38v1.6H9Zm0,1.6h2.38v1.6H9Z" transform="translate(245.5 185.455)" fill="#fff"/>
    <rect id="사각형_29495" data-name="사각형 29495" width="18" height="18" transform="translate(246 184)" fill="none"/>
  </g>
</svg>
