<?xml version="1.0" encoding="utf-8"?>
<!-- Generator: Adobe Illustrator 28.2.0, SVG Export Plug-In . SVG Version: 6.00 Build 0)  -->
<svg version="1.1" id="Layer_1" xmlns="http://www.w3.org/2000/svg" xmlns:xlink="http://www.w3.org/1999/xlink" x="0px" y="0px"
	 viewBox="0 0 24 24" style="enable-background:new 0 0 24 24;" xml:space="preserve">
<style type="text/css">
	.st0{fill:#EFD60A;}
	.st1{fill:#E0AB00;}
	.st2{fill:#FFC700;}
	.st3{fill:#F0BA00;}
	.st4{fill:url(#패스_39028_00000167398307711494019640000005025137574657382293_);}
	.st5{fill:url(#패스_39029_00000089569718283042318320000001725800739301067407_);}
	.st6{fill:url(#패스_39030_00000075129216324541212420000013865977461606627217_);}
	.st7{fill:url(#패스_39031_00000023268064758616599590000000815371300634865034_);}
	.st8{fill:none;}
</style>
<g>
	<path d="M16.99,6.33l-0.76,0.46l-1.37,0.82l-0.2-1.17l1.2-1.17l1.44-1.41l-2-0.3l-1.66-0.25l-0.74-1.5L12,0l-0.9,1.81l-0.74,1.5
		L8.7,3.56l-2,0.3l1.44,1.41l1.2,1.17l-0.2,1.18L7.77,6.79L7.01,6.33L5.5,5.42v4v1.68v4l0.49,0.29l0.24,0.14l5,3l0.26,0.16L12,19
		l0.51-0.31l0.26-0.16l5-3l0.24-0.14l0.49-0.29v-2.84v-4V5.42L16.99,6.33z M12,9.32l-0.85-0.51L12,8.36l0.85,0.45L12,9.32z"/>
	<g id="그룹_14683">
		<path id="패스_38982" class="st0" d="M12,16.16l-4.74-2.84L6.5,12.86v1.67l0.24,0.15l5,3L12,17.83l0.26-0.15l5-3l0.24-0.15
			v-1.67l-0.76,0.46L12,16.16z"/>
		<path id="패스_38983" class="st0" d="M16.74,10.48L12,13.33l-4.74-2.85L6.5,10.03v1.66l0.24,0.15l5,3L12,15l0.26-0.16l5-3
			l0.24-0.15v-1.66L16.74,10.48z"/>
		<path id="패스_38984" class="st0" d="M11.74,12L12,12.16L12.26,12l5-3l0.24-0.14V7.19l-0.76,0.45L12,10.49L7.26,7.64L6.5,7.19
			v1.67L6.74,9L11.74,12z"/>
	</g>
	<g id="그룹_14713_00000040573812795946529350000014849117946313812112_" transform="translate(-12 -6)">
		<path id="패스_39023_00000084511477176793111730000016657631479361892514_" class="st1" d="M24,11.46l-1.58,0.63l-1.58-1.54
			L24,11.46z"/>
		<path id="패스_39024_00000065071756550258447930000012660141309995666319_" class="st2" d="M22.05,14.26l1.95-2.8v1.77
			L22.05,14.26z"/>
		<path id="패스_39025_00000032627990604978872980000006021103976330879678_" class="st3" d="M24,8.26l0.98,1.97L24,11.46V8.26z"
			/>
		<path id="패스_39026_00000130645067081191650060000002224015670533821864_" class="st3" d="M27.15,10.55L24,11.46l1.58,0.63
			L27.15,10.55z"/>
		<path id="패스_39027_00000143609836968959413960000017433081402051013546_" class="st1" d="M25.95,14.26L24,11.46v1.77
			L25.95,14.26z"/>
		<g id="그룹_14712_00000036952364259909070450000002588003575583869613_">
			
				<linearGradient id="패스_39028_00000019669742986184710180000003386627955511351183_" gradientUnits="userSpaceOnUse" x1="82.7166" y1="-65.4445" x2="83.4666" y2="-65.4445" gradientTransform="matrix(4.21 0 0 -4.27 -327.39 -269.59)">
				<stop  offset="0" style="stop-color:#FFDD37"/>
				<stop  offset="1" style="stop-color:#FFFFAE"/>
			</linearGradient>
			
				<path id="패스_39028_00000095305470724661061840000008669518576570183589_" style="fill:url(#패스_39028_00000019669742986184710180000003386627955511351183_);" d="
				M23.03,10.23l-2.18,0.32L24,11.46v-3.2L23.03,10.23z"/>
			<g id="그룹_14711_00000095304001727369528760000005526448610227024548_">
				
					<linearGradient id="패스_39029_00000152228768790642195320000013681658832688948142_" gradientUnits="userSpaceOnUse" x1="82.6312" y1="-219.1062" x2="83.382" y2="-219.1062" gradientTransform="matrix(4.2 0 0 -1.64 -323.05 -348.49)">
					<stop  offset="0" style="stop-color:#FFA300"/>
					<stop  offset="1" style="stop-color:#FFFF6A"/>
				</linearGradient>
				
					<path id="패스_39029_00000141419580863549588300000012864432083904003256_" style="fill:url(#패스_39029_00000152228768790642195320000013681658832688948142_);" d="
					M24.98,10.23L24,11.46l3.15-0.91L24.98,10.23z"/>
				
					<linearGradient id="패스_39030_00000129923806701329611270000004990969321257500604_" gradientUnits="userSpaceOnUse" x1="125.4809" y1="-79.0665" x2="126.2309" y2="-79.0665" gradientTransform="matrix(2.6 0 0 -3.73 -302.25 -282.06)">
					<stop  offset="0" style="stop-color:#FFA300"/>
					<stop  offset="1" style="stop-color:#FFFF6A"/>
				</linearGradient>
				
					<path id="패스_39030_00000048469035523102799050000005955305487754923176_" style="fill:url(#패스_39030_00000129923806701329611270000004990969321257500604_);" d="
					M24,11.46l1.95,2.8l-0.38-2.17L24,11.46z"/>
				
					<linearGradient id="패스_39031_00000147186955239190401190000014433096494869680018_" gradientUnits="userSpaceOnUse" x1="125.7317" y1="-79.0665" x2="126.4817" y2="-79.0665" gradientTransform="matrix(2.6 0 0 -3.73 -304.85 -282.06)">
					<stop  offset="0" style="stop-color:#FFA300"/>
					<stop  offset="1" style="stop-color:#FFFF6A"/>
				</linearGradient>
				
					<path id="패스_39031_00000041286386968340818600000014796367421776868505_" style="fill:url(#패스_39031_00000147186955239190401190000014433096494869680018_);" d="
					M22.05,14.26l1.95-2.8l-1.58,0.63L22.05,14.26z"/>
			</g>
		</g>
	</g>
</g>
<rect class="st8" width="24" height="24"/>
</svg>
