<?xml version="1.0" encoding="utf-8"?>
<!-- Generator: Adobe Illustrator 28.2.0, SVG Export Plug-In . SVG Version: 6.00 Build 0)  -->
<svg version="1.1" id="Layer_1" xmlns="http://www.w3.org/2000/svg" xmlns:xlink="http://www.w3.org/1999/xlink" x="0px" y="0px"
	 viewBox="0 0 24 24" style="enable-background:new 0 0 24 24;" xml:space="preserve">
<style type="text/css">
	.st0{fill:#EFF0F2;}
	.st1{fill:#B9BDC2;}
	.st2{fill:none;}
</style>
<g>
	<polygon points="18.79,9.49 16.15,4.69 15.22,3 14.29,4.68 12,8.86 9.71,4.69 8.78,3 7.85,4.68 5.21,9.49 4.93,10 5.21,10.51 
		7.85,15.32 8.78,17 9.71,15.31 12,11.14 14.29,15.32 15.22,17 16.15,15.31 18.79,10.51 19.07,10 	"/>
	<g>
		<g>
			<path id="다각형_22_00000151509196291427165670000013877382122361205377_" class="st0" d="M15.22,14.81V10h2.64L15.22,14.81z"
				/>
			<path id="다각형_22-2_00000011025155869963927200000013530820220842180757_" class="st1" d="M12.58,10h2.64v4.81L12.58,10z"/>
			<path id="다각형_22-3_00000023268423015111126440000017804023362570882734_" class="st1" d="M17.86,10h-2.64V5.19L17.86,10z"
				/>
			<path id="다각형_22-4_00000149352987380075207370000010560878198720649147_" class="st0" d="M15.22,5.19V10h-2.64L15.22,5.19z
				"/>
		</g>
		<g>
			<path id="다각형_22" class="st0" d="M8.78,14.81V10h2.64L8.78,14.81z"/>
			<path id="다각형_22-2" class="st1" d="M6.14,10h2.64v4.81L6.14,10z"/>
			<path id="다각형_22-3" class="st1" d="M11.42,10H8.78V5.19L11.42,10z"/>
			<path id="다각형_22-4" class="st0" d="M8.78,5.19V10H6.14L8.78,5.19z"/>
		</g>
	</g>
</g>
<rect class="st2" width="24" height="24"/>
</svg>
