<?xml version="1.0" encoding="utf-8"?>
<!-- Generator: Adobe Illustrator 28.2.0, SVG Export Plug-In . SVG Version: 6.00 Build 0)  -->
<svg version="1.1" id="Layer_1" xmlns="http://www.w3.org/2000/svg" xmlns:xlink="http://www.w3.org/1999/xlink" x="0px" y="0px"
	 viewBox="0 0 24 24" style="enable-background:new 0 0 24 24;" xml:space="preserve">
<style type="text/css">
	.st0{fill:#EFF0F2;}
	.st1{fill:#B9BDC2;}
	.st2{fill:none;}
</style>
<g>
	<polygon points="22.03,9.49 19.39,4.69 18.47,3 17.54,4.68 15.22,8.9 12.9,4.69 11.98,3 11.05,4.68 8.76,8.86 6.46,4.69 5.54,3 
		4.61,4.68 1.97,9.49 1.69,10 1.97,10.51 4.61,15.32 5.54,17 6.46,15.31 8.76,11.14 11.05,15.32 11.98,17 12.9,15.31 15.22,11.1 
		17.54,15.32 18.47,17 19.39,15.31 22.03,10.51 22.31,10 	"/>
	<g>
		<g>
			<path id="다각형_22_00000151509196291427165670000013877382122361205377_" class="st0" d="M11.97,14.81V10h2.64L11.97,14.81z"
				/>
			<path id="다각형_22-2_00000011025155869963927200000013530820220842180757_" class="st1" d="M9.33,10h2.64v4.81L9.33,10z"/>
			<path id="다각형_22-3_00000023268423015111126440000017804023362570882734_" class="st1" d="M14.62,10h-2.64V5.19L14.62,10z"
				/>
			<path id="다각형_22-4_00000149352987380075207370000010560878198720649147_" class="st0" d="M11.98,5.19V10H9.33L11.98,5.19z"
				/>
		</g>
		<g>
			<path id="다각형_22_00000067923414612083996910000008677369267350237062_" class="st0" d="M18.46,14.81V10h2.64L18.46,14.81z"
				/>
			<path id="다각형_22-2_00000123432405643225195950000018208338436249826998_" class="st1" d="M15.82,10h2.64v4.81L15.82,10z"/>
			<path id="다각형_22-3_00000165208742786377960360000003186322601708247185_" class="st1" d="M21.11,10h-2.64V5.19L21.11,10z"
				/>
			<path id="다각형_22-4_00000139293216239179586490000006308007441898708096_" class="st0" d="M18.47,5.19V10h-2.64L18.47,5.19z
				"/>
		</g>
		<g>
			<path id="다각형_22" class="st0" d="M5.53,14.81V10h2.64L5.53,14.81z"/>
			<path id="다각형_22-2" class="st1" d="M2.89,10h2.64v4.81L2.89,10z"/>
			<path id="다각형_22-3" class="st1" d="M8.18,10H5.53V5.19L8.18,10z"/>
			<path id="다각형_22-4" class="st0" d="M5.54,5.19V10H2.89L5.54,5.19z"/>
		</g>
	</g>
</g>
<rect class="st2" width="24" height="24"/>
</svg>
