<?xml version="1.0" encoding="utf-8"?>
<!-- Generator: Adobe Illustrator 28.2.0, SVG Export Plug-In . SVG Version: 6.00 Build 0)  -->
<svg version="1.1" id="Layer_1" xmlns="http://www.w3.org/2000/svg" xmlns:xlink="http://www.w3.org/1999/xlink" x="0px" y="0px"
	 viewBox="0 0 24 24" style="enable-background:new 0 0 24 24;" xml:space="preserve">
<style type="text/css">
	.st0{fill:url(#SVGID_1_);}
	.st1{fill:#E4E8ED;}
	.st2{fill:#B9BDC2;}
	.st3{fill:none;}
</style>
<path d="M15.94,10.82c0.51-0.34,0.82-0.69,0.88-0.76l0.8-0.93l-1.07-0.6c-0.07-0.04-0.48-0.26-1.08-0.41
	c0.17-0.59,0.18-1.06,0.18-1.14l0.02-1.23l-1.2,0.23C14.38,6,13.92,6.09,13.37,6.36c-0.25-0.56-0.54-0.93-0.59-0.99L12,4.42
	l-0.77,0.95c-0.05,0.07-0.34,0.44-0.59,0.99C10.08,6.09,9.62,6,9.54,5.98l-1.2-0.23l0.02,1.23c0,0.09,0.02,0.56,0.18,1.14
	C7.93,8.27,7.52,8.5,7.45,8.54l-1.07,0.6l0.8,0.93c0.06,0.07,0.37,0.41,0.88,0.76c-0.36,0.5-0.53,0.93-0.56,1.01l-0.43,1.15
	l1.21,0.2c0.04,0.01,0.29,0.04,0.64,0.04c0.15,0,0.33-0.01,0.52-0.03c0.04,0.61,0.19,1.06,0.22,1.14l0.4,1.16l1.05-0.63
	c0.07-0.04,0.47-0.29,0.9-0.73c0.43,0.44,0.82,0.69,0.9,0.73l1.05,0.63l0.4-1.16c0.03-0.08,0.18-0.53,0.22-1.14
	c0.19,0.02,0.36,0.03,0.52,0.03c0.35,0,0.6-0.04,0.64-0.04l1.21-0.2l-0.43-1.15C16.48,11.75,16.3,11.32,15.94,10.82z"/>
<linearGradient id="SVGID_1_" gradientUnits="userSpaceOnUse" x1="8.9534" y1="6.9895" x2="15.0548" y2="13.0908">
	<stop  offset="0" style="stop-color:#FFFFFF"/>
	<stop  offset="0.45" style="stop-color:#FFFFFF"/>
	<stop  offset="0.55" style="stop-color:#C2C4CA"/>
	<stop  offset="1" style="stop-color:#FFFFFF"/>
</linearGradient>
<path class="st0" d="M16.06,9.41c0,0-1.04-0.58-2.15-0.39c0.73-0.87,0.74-2.06,0.74-2.06s-1.16,0.22-1.9,1.09C12.75,6.92,12,6,12,6
	s-0.75,0.92-0.75,2.05c-0.73-0.87-1.9-1.09-1.9-1.09s0.02,1.19,0.74,2.06C8.97,8.83,7.94,9.41,7.94,9.41s0.77,0.9,1.89,1.1
	c-0.98,0.57-1.4,1.68-1.4,1.68s1.17,0.19,2.16-0.37C10.2,12.88,10.59,14,10.59,14s1.02-0.61,1.41-1.67
	c0.39,1.07,1.41,1.67,1.41,1.67s0.39-1.12,0.01-2.19c0.98,0.56,2.16,0.37,2.16,0.37s-0.42-1.11-1.4-1.68
	C15.29,10.31,16.06,9.41,16.06,9.41z"/>
<g>
	<path id="다각형_22_00000151509196291427165670000013877382122361205377_" class="st1" d="M12,12v-2h1.1L12,12z"/>
	<path id="다각형_22-2_00000011025155869963927200000013530820220842180757_" class="st2" d="M10.9,10H12v2L10.9,10z"/>
	<path id="다각형_22-3_00000023268423015111126440000017804023362570882734_" class="st2" d="M13.1,10H12V8L13.1,10z"/>
	<path id="다각형_22-4_00000149352987380075207370000010560878198720649147_" class="st1" d="M12,8v2h-1.1L12,8z"/>
	<path id="다각형_22-4_00000005955795970326190700000007464076743605233058_" class="st1" d="M12,8v2h-1.1L12,8z"/>
</g>
<rect class="st3" width="24" height="24"/>
</svg>
