<?xml version="1.0" encoding="utf-8"?>
<!-- Generator: Adobe Illustrator 28.2.0, SVG Export Plug-In . SVG Version: 6.00 Build 0)  -->
<svg version="1.1" id="Layer_1" xmlns="http://www.w3.org/2000/svg" xmlns:xlink="http://www.w3.org/1999/xlink" x="0px" y="0px"
	 viewBox="0 0 24 24" style="enable-background:new 0 0 24 24;" xml:space="preserve">
<style type="text/css">
	.st0{fill:url(#SVGID_1_);}
	.st1{fill:#E4E8ED;}
	.st2{fill:#B9BDC2;}
	.st3{fill:url(#SVGID_00000012443530310232326550000008667851140679752886_);}
	.st4{fill:none;}
</style>
<g>
	<path d="M20.78,10.82c0.51-0.34,0.82-0.69,0.88-0.76l0.8-0.93l-1.07-0.6c-0.07-0.04-0.48-0.26-1.08-0.41
		c0.17-0.59,0.18-1.06,0.18-1.14l0.02-1.23l-1.2,0.23C19.22,6,18.76,6.09,18.21,6.36c-0.25-0.56-0.54-0.93-0.59-0.99l-0.77-0.95
		l-0.77,0.95c-0.05,0.07-0.34,0.44-0.59,0.99C14.92,6.09,14.46,6,14.38,5.98l-1.2-0.23l0.02,1.23c0,0.09,0.02,0.56,0.18,1.14
		c-0.6,0.15-1.02,0.38-1.08,0.41L12,8.7l-0.29-0.16c-0.07-0.04-0.48-0.26-1.08-0.41c0.17-0.59,0.18-1.06,0.18-1.14l0.02-1.23
		l-1.2,0.23C9.54,6,9.08,6.09,8.53,6.36C8.28,5.8,7.99,5.43,7.93,5.37L7.16,4.42L6.38,5.37C6.33,5.43,6.04,5.8,5.79,6.36
		C5.24,6.09,4.78,6,4.7,5.98l-1.2-0.23l0.02,1.23c0,0.09,0.02,0.56,0.18,1.14C3.09,8.27,2.68,8.5,2.61,8.54l-1.07,0.6l0.8,0.93
		c0.06,0.07,0.37,0.41,0.88,0.76c-0.36,0.5-0.53,0.93-0.56,1.01l-0.43,1.15l1.21,0.2c0.04,0.01,0.29,0.04,0.64,0.04
		c0.15,0,0.33-0.01,0.52-0.03c0.04,0.61,0.19,1.06,0.22,1.14l0.4,1.16l1.05-0.63c0.07-0.04,0.47-0.29,0.9-0.73
		c0.43,0.44,0.82,0.69,0.9,0.73l1.05,0.63l0.4-1.16c0.03-0.08,0.18-0.53,0.22-1.14c0.19,0.02,0.36,0.03,0.52,0.03
		c0.35,0,0.6-0.04,0.64-0.04L12,12.99l1.11,0.18c0.04,0.01,0.29,0.04,0.64,0.04c0.15,0,0.33-0.01,0.52-0.03
		c0.04,0.61,0.19,1.06,0.22,1.14l0.4,1.16l1.05-0.63c0.07-0.04,0.47-0.29,0.9-0.73c0.43,0.44,0.82,0.69,0.9,0.73l1.05,0.63l0.4-1.16
		c0.03-0.08,0.18-0.53,0.22-1.14c0.19,0.02,0.36,0.03,0.52,0.03c0.35,0,0.6-0.04,0.64-0.04l1.21-0.2l-0.43-1.15
		C21.32,11.75,21.14,11.32,20.78,10.82z M12.33,11.83L12,12.71l-0.33-0.88c-0.03-0.08-0.2-0.52-0.56-1.01
		c0.51-0.34,0.82-0.69,0.88-0.76L12,10.04l0.02,0.03c0.06,0.07,0.37,0.41,0.88,0.76C12.54,11.32,12.36,11.75,12.33,11.83z"/>
	<linearGradient id="SVGID_1_" gradientUnits="userSpaceOnUse" x1="4.1129" y1="6.9895" x2="10.2142" y2="13.0908">
		<stop  offset="0" style="stop-color:#FFFFFF"/>
		<stop  offset="0.45" style="stop-color:#FFFFFF"/>
		<stop  offset="0.55" style="stop-color:#C2C4CA"/>
		<stop  offset="1" style="stop-color:#FFFFFF"/>
	</linearGradient>
	<path class="st0" d="M11.22,9.41c0,0-1.04-0.58-2.15-0.39c0.73-0.87,0.74-2.06,0.74-2.06s-1.16,0.22-1.9,1.09
		C7.91,6.92,7.16,6,7.16,6S6.41,6.92,6.41,8.05c-0.73-0.87-1.9-1.09-1.9-1.09s0.02,1.19,0.74,2.06C4.13,8.83,3.1,9.41,3.1,9.41
		s0.77,0.9,1.89,1.1c-0.98,0.57-1.4,1.68-1.4,1.68s1.17,0.19,2.16-0.37C5.36,12.88,5.75,14,5.75,14s1.02-0.61,1.41-1.67
		C7.55,13.39,8.57,14,8.57,14s0.39-1.12,0.01-2.19c0.98,0.56,2.16,0.37,2.16,0.37s-0.42-1.11-1.4-1.68
		C10.45,10.31,11.22,9.41,11.22,9.41z"/>
	<g>
		<path id="다각형_22_00000151509196291427165670000013877382122361205377_" class="st1" d="M7.16,12v-2h1.1L7.16,12z"/>
		<path id="다각형_22-2_00000011025155869963927200000013530820220842180757_" class="st2" d="M6.06,10h1.1v2L6.06,10z"/>
		<path id="다각형_22-3_00000023268423015111126440000017804023362570882734_" class="st2" d="M8.26,10h-1.1V8L8.26,10z"/>
		<path id="다각형_22-4_00000149352987380075207370000010560878198720649147_" class="st1" d="M7.16,8v2h-1.1L7.16,8z"/>
		<path id="다각형_22-4_00000005955795970326190700000007464076743605233058_" class="st1" d="M7.16,8v2h-1.1L7.16,8z"/>
	</g>
	
		<linearGradient id="SVGID_00000035500077741941970640000008763764655857282699_" gradientUnits="userSpaceOnUse" x1="13.7939" y1="6.9895" x2="19.8953" y2="13.0908">
		<stop  offset="0" style="stop-color:#FFFFFF"/>
		<stop  offset="0.45" style="stop-color:#FFFFFF"/>
		<stop  offset="0.55" style="stop-color:#C2C4CA"/>
		<stop  offset="1" style="stop-color:#FFFFFF"/>
	</linearGradient>
	<path style="fill:url(#SVGID_00000035500077741941970640000008763764655857282699_);" d="M20.9,9.41c0,0-1.04-0.58-2.15-0.39
		c0.73-0.87,0.74-2.06,0.74-2.06s-1.16,0.22-1.9,1.09c0-1.13-0.75-2.05-0.75-2.05s-0.75,0.92-0.75,2.05
		c-0.73-0.87-1.9-1.09-1.9-1.09s0.02,1.19,0.74,2.06c-1.12-0.19-2.15,0.39-2.15,0.39s0.77,0.9,1.89,1.1
		c-0.98,0.57-1.4,1.68-1.4,1.68s1.17,0.19,2.16-0.37C15.04,12.88,15.43,14,15.43,14s1.02-0.61,1.41-1.67
		c0.39,1.07,1.41,1.67,1.41,1.67s0.39-1.12,0.01-2.19c0.98,0.56,2.16,0.37,2.16,0.37s-0.42-1.11-1.4-1.68
		C20.13,10.31,20.9,9.41,20.9,9.41z"/>
	<g>
		<path id="다각형_22_00000165200875326483042050000001049708235695729068_" class="st1" d="M16.84,12v-2h1.1L16.84,12z"/>
		<path id="다각형_22-2_00000127755986318872871550000016317264629105464217_" class="st2" d="M15.74,10h1.1v2L15.74,10z"/>
		<path id="다각형_22-3_00000142887626427135370190000004267945539745799329_" class="st2" d="M17.94,10h-1.1V8L17.94,10z"/>
		<path id="다각형_22-4_00000139985875492994256140000000657579292966564778_" class="st1" d="M16.84,8v2h-1.1L16.84,8z"/>
		<path id="다각형_22-4_00000109009544195566389520000014874341779246974865_" class="st1" d="M16.84,8v2h-1.1L16.84,8z"/>
	</g>
</g>
<rect class="st4" width="24" height="24"/>
</svg>
