<?xml version="1.0" encoding="utf-8"?>
<!-- Generator: Adobe Illustrator 28.2.0, SVG Export Plug-In . SVG Version: 6.00 Build 0)  -->
<svg version="1.1" id="Layer_1" xmlns="http://www.w3.org/2000/svg" xmlns:xlink="http://www.w3.org/1999/xlink" x="0px" y="0px"
	 viewBox="0 0 24 24" style="enable-background:new 0 0 24 24;" xml:space="preserve">
<style type="text/css">
	.st0{fill:url(#SVGID_1_);}
	.st1{fill:#E4E8ED;}
	.st2{fill:#B9BDC2;}
	.st3{fill:url(#SVGID_00000109714192195338216630000015556481819592925824_);}
	.st4{fill:url(#SVGID_00000070828859750183086830000001278918263052332178_);}
	.st5{fill:none;}
</style>
<g>
	<path d="M22.59,10.68c0.43-0.29,0.69-0.58,0.73-0.64L24,9.27l-0.9-0.5c-0.06-0.03-0.4-0.22-0.91-0.35
		c0.14-0.49,0.15-0.89,0.15-0.96l0.01-1.03l-1.01,0.19c-0.07,0.01-0.46,0.09-0.92,0.32c-0.21-0.47-0.45-0.78-0.5-0.83l-0.65-0.8
		l-0.65,0.8c-0.05,0.06-0.29,0.37-0.5,0.83c-0.46-0.22-0.85-0.3-0.92-0.32l-1.01-0.19l0.01,1.03c0,0.07,0.01,0.47,0.15,0.96
		C16.05,8.5,15.8,8.6,15.64,8.68c-0.16-0.07-0.41-0.18-0.73-0.26c0.14-0.49,0.15-0.89,0.15-0.96l0.01-1.03l-1.01,0.19
		C14,6.63,13.61,6.71,13.15,6.94c-0.21-0.47-0.45-0.78-0.5-0.83L12,5.31l-0.65,0.8c-0.05,0.06-0.29,0.37-0.5,0.83
		C10.39,6.71,10,6.63,9.93,6.62L8.92,6.43l0.01,1.03c0,0.07,0.01,0.47,0.15,0.96C8.77,8.5,8.52,8.6,8.36,8.68
		C8.2,8.6,7.95,8.5,7.63,8.42c0.14-0.49,0.15-0.89,0.15-0.96l0.01-1.03L6.78,6.62C6.71,6.63,6.33,6.71,5.86,6.94
		c-0.21-0.47-0.45-0.78-0.5-0.83l-0.65-0.8l-0.65,0.8c-0.05,0.06-0.29,0.37-0.5,0.83C3.1,6.71,2.72,6.63,2.65,6.62L1.64,6.43
		l0.01,1.03c0,0.07,0.01,0.47,0.15,0.96C1.3,8.54,0.95,8.73,0.9,8.76L0,9.27l0.67,0.78c0.05,0.06,0.31,0.35,0.73,0.64
		c-0.3,0.42-0.45,0.78-0.47,0.85l-0.36,0.96l1.01,0.16c0.04,0.01,0.24,0.04,0.54,0.04c0.13,0,0.28-0.01,0.43-0.02
		c0.04,0.51,0.16,0.89,0.18,0.96l0.34,0.97l0.88-0.53c0.06-0.04,0.4-0.24,0.75-0.61c0.36,0.37,0.69,0.58,0.75,0.61l0.88,0.53
		l0.34-0.97c0.02-0.07,0.15-0.44,0.18-0.96c0.16,0.02,0.3,0.02,0.43,0.02c0.3,0,0.5-0.03,0.54-0.04l0.51-0.08l0.51,0.08
		c0.04,0.01,0.24,0.04,0.54,0.04c0.13,0,0.28-0.01,0.43-0.02c0.04,0.51,0.16,0.89,0.18,0.96l0.34,0.97l0.88-0.53
		c0.06-0.04,0.4-0.24,0.75-0.61c0.36,0.37,0.69,0.58,0.75,0.61l0.88,0.53l0.34-0.97c0.02-0.07,0.15-0.44,0.18-0.96
		c0.16,0.02,0.3,0.02,0.43,0.02c0.3,0,0.5-0.03,0.54-0.04l0.51-0.08l0.51,0.08c0.04,0.01,0.24,0.04,0.54,0.04
		c0.13,0,0.28-0.01,0.43-0.02c0.04,0.51,0.16,0.89,0.18,0.96l0.34,0.97l0.88-0.53c0.06-0.04,0.4-0.24,0.75-0.61
		c0.36,0.37,0.69,0.58,0.75,0.61l0.88,0.53l0.34-0.97c0.02-0.07,0.15-0.44,0.18-0.96c0.16,0.02,0.3,0.02,0.43,0.02
		c0.3,0,0.5-0.03,0.54-0.04l1.01-0.16l-0.36-0.96C23.04,11.46,22.89,11.1,22.59,10.68z"/>
	<linearGradient id="SVGID_1_" gradientUnits="userSpaceOnUse" x1="2.1589" y1="7.4661" x2="7.2787" y2="12.586">
		<stop  offset="0" style="stop-color:#FFFFFF"/>
		<stop  offset="0.45" style="stop-color:#FFFFFF"/>
		<stop  offset="0.55" style="stop-color:#C2C4CA"/>
		<stop  offset="1" style="stop-color:#FFFFFF"/>
	</linearGradient>
	<path class="st0" d="M8.12,9.5c0,0-0.87-0.49-1.81-0.32c0.61-0.73,0.62-1.73,0.62-1.73S5.96,7.63,5.35,8.36
		c0-0.95-0.63-1.72-0.63-1.72S4.09,7.41,4.08,8.36C3.47,7.63,2.49,7.45,2.49,7.45s0.01,1,0.62,1.73C2.18,9.01,1.31,9.5,1.31,9.5
		s0.65,0.75,1.59,0.92c-0.82,0.48-1.18,1.41-1.18,1.41s0.98,0.16,1.81-0.31c-0.32,0.9,0,1.84,0,1.84s0.85-0.51,1.18-1.4
		c0.33,0.89,1.18,1.4,1.18,1.4s0.33-0.94,0-1.84c0.83,0.47,1.81,0.31,1.81,0.31s-0.35-0.93-1.18-1.41C7.47,10.25,8.12,9.5,8.12,9.5z
		"/>
	<g>
		<path id="다각형_22_00000151509196291427165670000013877382122361205377_" class="st1" d="M4.72,11.67V9.99h0.92L4.72,11.67z"
			/>
		<path id="다각형_22-2_00000011025155869963927200000013530820220842180757_" class="st2" d="M3.79,9.99h0.92v1.68L3.79,9.99z"
			/>
		<path id="다각형_22-3_00000023268423015111126440000017804023362570882734_" class="st2" d="M5.64,9.99H4.72V8.31L5.64,9.99z"
			/>
		<path id="다각형_22-4_00000149352987380075207370000010560878198720649147_" class="st1" d="M4.72,8.31v1.68H3.79L4.72,8.31z"
			/>
		<path id="다각형_22-4_00000005955795970326190700000007464076743605233058_" class="st1" d="M4.72,8.31v1.68H3.79L4.72,8.31z"
			/>
	</g>
	
		<linearGradient id="SVGID_00000177462119689472187190000001099866718895040898_" gradientUnits="userSpaceOnUse" x1="9.4435" y1="7.4661" x2="14.5633" y2="12.586">
		<stop  offset="0" style="stop-color:#FFFFFF"/>
		<stop  offset="0.45" style="stop-color:#FFFFFF"/>
		<stop  offset="0.55" style="stop-color:#C2C4CA"/>
		<stop  offset="1" style="stop-color:#FFFFFF"/>
	</linearGradient>
	<path style="fill:url(#SVGID_00000177462119689472187190000001099866718895040898_);" d="M15.41,9.5c0,0-0.87-0.49-1.81-0.32
		c0.61-0.73,0.62-1.73,0.62-1.73s-0.98,0.19-1.59,0.91c0-0.95-0.63-1.72-0.63-1.72s-0.63,0.77-0.63,1.72
		c-0.61-0.73-1.59-0.91-1.59-0.91s0.01,1,0.62,1.73C9.46,9.01,8.59,9.5,8.59,9.5s0.65,0.75,1.59,0.92C9.36,10.9,9,11.83,9,11.83
		s0.98,0.16,1.81-0.31c-0.32,0.9,0,1.84,0,1.84s0.85-0.51,1.18-1.4c0.33,0.89,1.18,1.4,1.18,1.4s0.33-0.94,0-1.84
		c0.83,0.47,1.81,0.31,1.81,0.31s-0.35-0.93-1.18-1.41C14.76,10.25,15.41,9.5,15.41,9.5z"/>
	<g>
		<path id="다각형_22_00000165200875326483042050000001049708235695729068_" class="st1" d="M12,11.67V9.99h0.92L12,11.67z"/>
		<path id="다각형_22-2_00000127755986318872871550000016317264629105464217_" class="st2" d="M11.08,9.99H12v1.68L11.08,9.99z"
			/>
		<path id="다각형_22-3_00000142887626427135370190000004267945539745799329_" class="st2" d="M12.92,9.99H12V8.31L12.92,9.99z"
			/>
		<path id="다각형_22-4_00000139985875492994256140000000657579292966564778_" class="st1" d="M12,8.31v1.68h-0.92L12,8.31z"/>
		<path id="다각형_22-4_00000109009544195566389520000014874341779246974865_" class="st1" d="M12,8.31v1.68h-0.92L12,8.31z"/>
	</g>
	
		<linearGradient id="SVGID_00000161603774989654155400000002781593902467238558_" gradientUnits="userSpaceOnUse" x1="16.7281" y1="7.4661" x2="21.8479" y2="12.586">
		<stop  offset="0" style="stop-color:#FFFFFF"/>
		<stop  offset="0.45" style="stop-color:#FFFFFF"/>
		<stop  offset="0.55" style="stop-color:#C2C4CA"/>
		<stop  offset="1" style="stop-color:#FFFFFF"/>
	</linearGradient>
	<path style="fill:url(#SVGID_00000161603774989654155400000002781593902467238558_);" d="M22.69,9.5c0,0-0.87-0.49-1.81-0.32
		c0.61-0.73,0.62-1.73,0.62-1.73s-0.98,0.19-1.59,0.91c0-0.95-0.63-1.72-0.63-1.72s-0.63,0.77-0.63,1.72
		c-0.61-0.73-1.59-0.91-1.59-0.91s0.01,1,0.62,1.73c-0.94-0.16-1.81,0.32-1.81,0.32s0.65,0.75,1.59,0.92
		c-0.82,0.48-1.18,1.41-1.18,1.41s0.98,0.16,1.81-0.31c-0.32,0.9,0,1.84,0,1.84s0.85-0.51,1.18-1.4c0.33,0.89,1.18,1.4,1.18,1.4
		s0.33-0.94,0-1.84c0.83,0.47,1.81,0.31,1.81,0.31s-0.35-0.93-1.18-1.41C22.04,10.25,22.69,9.5,22.69,9.5z"/>
	<g>
		<path id="다각형_22_00000030445038549540644560000008687628285839255207_" class="st1" d="M19.28,11.67V9.99h0.92L19.28,11.67z
			"/>
		<path id="다각형_22-2_00000167371522356609864780000015965528818456776109_" class="st2" d="M18.36,9.99h0.92v1.68L18.36,9.99z
			"/>
		<path id="다각형_22-3_00000127009122586958143190000001485050205603241395_" class="st2" d="M20.21,9.99h-0.92V8.31L20.21,9.99
			z"/>
		<path id="다각형_22-4_00000065064145755916452400000007508646467042127008_" class="st1" d="M19.28,8.31v1.68h-0.92L19.28,8.31
			z"/>
		<path id="다각형_22-4_00000080207094530033685170000018251439583892399265_" class="st1" d="M19.28,8.31v1.68h-0.92L19.28,8.31
			z"/>
	</g>
</g>
<rect class="st5" width="24" height="24"/>
</svg>
