<?xml version="1.0" encoding="utf-8"?>
<!-- Generator: Adobe Illustrator 28.2.0, SVG Export Plug-In . SVG Version: 6.00 Build 0)  -->
<svg version="1.1" id="Layer_1" xmlns="http://www.w3.org/2000/svg" xmlns:xlink="http://www.w3.org/1999/xlink" x="0px" y="0px"
	 viewBox="0 0 24 24" style="enable-background:new 0 0 24 24;" xml:space="preserve">
<style type="text/css">
	.st0{fill:#E0AB00;}
	.st1{fill:#FFC700;}
	.st2{fill:#F0BA00;}
	.st3{fill:url(#패스_39028_00000035488426030156298110000001238197586134710669_);}
	.st4{fill:url(#패스_39029_00000173846487322857625340000000391734958417697952_);}
	.st5{fill:url(#패스_39030_00000078764704422367980160000007000028714578546357_);}
	.st6{fill:url(#패스_39031_00000142861225839777293050000009975239579080210108_);}
	.st7{fill:none;}
</style>
<g>
	<polygon points="18.35,8.08 16.35,7.78 13.97,7.43 12.9,5.27 12.01,3.46 11.11,5.27 10.04,7.43 7.65,7.78 5.65,8.08 7.1,9.49 
		8.82,11.17 8.42,13.55 8.08,15.54 9.87,14.6 12.01,13.47 14.14,14.6 15.94,15.54 15.59,13.54 15.18,11.17 16.9,9.49 	"/>
	<g id="그룹_14713_00000040573812795946529350000014849117946313812112_" transform="translate(-12 -6)">
		<path id="패스_39023_00000084511477176793111730000016657631479361892514_" class="st0" d="M24.01,15.98l-2.11,0.84l-2.1-2.05
			L24.01,15.98z"/>
		<path id="패스_39024_00000065071756550258447930000012660141309995666319_" class="st1" d="M21.41,19.71l2.6-3.73v2.36
			L21.41,19.71z"/>
		<path id="패스_39025_00000032627990604978872980000006021103976330879678_" class="st2" d="M24.01,11.71l1.3,2.63l-1.3,1.64
			V11.71z"/>
		<path id="패스_39026_00000130645067081191650060000002224015670533821864_" class="st2" d="M28.21,14.77l-4.2,1.21l2.1,0.84
			L28.21,14.77z"/>
		<path id="패스_39027_00000143609836968959413960000017433081402051013546_" class="st0" d="M26.61,19.71l-2.6-3.73v2.36
			L26.61,19.71z"/>
		<g id="그룹_14712_00000036952364259909070450000002588003575583869613_">
			
				<linearGradient id="패스_39028_00000075156127259530339410000004806742363706989231_" gradientUnits="userSpaceOnUse" x1="82.4669" y1="-66.3788" x2="83.4669" y2="-66.3788" gradientTransform="matrix(4.21 0 0 -4.27 -327.39 -269.59)">
				<stop  offset="0" style="stop-color:#FFDD37"/>
				<stop  offset="1" style="stop-color:#FFFFAE"/>
			</linearGradient>
			
				<path id="패스_39028_00000095305470724661061840000008669518576570183589_" style="fill:url(#패스_39028_00000075156127259530339410000004806742363706989231_);" d="
				M22.71,14.34l-2.91,0.43l4.21,1.21v-4.27L22.71,14.34z"/>
			<g id="그룹_14711_00000095304001727369528760000005526448610227024548_">
				
					<linearGradient id="패스_39029_00000044878070979761219790000009741076746010023833_" gradientUnits="userSpaceOnUse" x1="82.6313" y1="-221.7392" x2="83.6323" y2="-221.7392" gradientTransform="matrix(4.2 0 0 -1.64 -323.05 -348.49)">
					<stop  offset="0" style="stop-color:#FFA300"/>
					<stop  offset="1" style="stop-color:#FFFF6A"/>
				</linearGradient>
				
					<path id="패스_39029_00000141419580863549588300000012864432083904003256_" style="fill:url(#패스_39029_00000044878070979761219790000009741076746010023833_);" d="
					M25.31,14.34l-1.3,1.64l4.2-1.21L25.31,14.34z"/>
				
					<linearGradient id="패스_39030_00000124150772190762824330000015072441481095654332_" gradientUnits="userSpaceOnUse" x1="125.4809" y1="-80.4041" x2="126.4809" y2="-80.4041" gradientTransform="matrix(2.6 0 0 -3.73 -302.25 -282.06)">
					<stop  offset="0" style="stop-color:#FFA300"/>
					<stop  offset="1" style="stop-color:#FFFF6A"/>
				</linearGradient>
				
					<path id="패스_39030_00000048469035523102799050000005955305487754923176_" style="fill:url(#패스_39030_00000124150772190762824330000015072441481095654332_);" d="
					M24.01,15.98l2.6,3.73l-0.5-2.89L24.01,15.98z"/>
				
					<linearGradient id="패스_39031_00000008843979415244272070000001146839711135585180_" gradientUnits="userSpaceOnUse" x1="125.4819" y1="-80.4041" x2="126.4819" y2="-80.4041" gradientTransform="matrix(2.6 0 0 -3.73 -304.85 -282.06)">
					<stop  offset="0" style="stop-color:#FFA300"/>
					<stop  offset="1" style="stop-color:#FFFF6A"/>
				</linearGradient>
				
					<path id="패스_39031_00000041286386968340818600000014796367421776868505_" style="fill:url(#패스_39031_00000008843979415244272070000001146839711135585180_);" d="
					M21.41,19.71l2.6-3.73l-2.11,0.84L21.41,19.71z"/>
			</g>
		</g>
	</g>
</g>
<rect class="st7" width="24" height="24"/>
</svg>
