<?xml version="1.0" encoding="utf-8"?>
<!-- Generator: Adobe Illustrator 28.2.0, SVG Export Plug-In . SVG Version: 6.00 Build 0)  -->
<svg version="1.1" id="Layer_1" xmlns="http://www.w3.org/2000/svg" xmlns:xlink="http://www.w3.org/1999/xlink" x="0px" y="0px"
	 viewBox="0 0 24 24" style="enable-background:new 0 0 24 24;" xml:space="preserve">
<style type="text/css">
	.st0{fill:#E0AB00;}
	.st1{fill:#FFC700;}
	.st2{fill:#F0BA00;}
	.st3{fill:url(#패스_39028_00000002364573846563886360000001753521888876979878_);}
	.st4{fill:url(#패스_39029_00000075854671160623678100000006899147042564427418_);}
	.st5{fill:url(#패스_39030_00000075880685104929354540000012264993637316644999_);}
	.st6{fill:url(#패스_39031_00000169535664960366471420000000061486582829050770_);}
	.st7{fill:url(#패스_39028_00000084530605269166228240000014326622915967991967_);}
	.st8{fill:url(#패스_39029_00000150814171505799517470000008461175786043184817_);}
	.st9{fill:url(#패스_39030_00000106112146260289966760000015170883038242586295_);}
	.st10{fill:url(#패스_39031_00000009574074273571411680000004050802402545448105_);}
	.st11{fill:none;}
</style>
<g>
	<polygon points="22.55,8.08 20.56,7.78 18.18,7.43 17.11,5.27 16.21,3.46 15.31,5.27 14.25,7.43 12,7.76 9.76,7.43 8.7,5.27 
		7.8,3.46 6.9,5.27 5.84,7.43 3.44,7.78 1.45,8.08 2.89,9.49 4.62,11.17 4.21,13.55 3.88,15.54 5.67,14.6 7.8,13.47 9.93,14.6 
		11.73,15.54 11.38,13.54 10.97,11.17 12,10.17 13.03,11.17 12.63,13.55 12.29,15.54 14.08,14.6 16.21,13.47 18.35,14.6 
		20.14,15.54 19.8,13.54 19.39,11.17 21.11,9.49 	"/>
	<g id="그룹_14713_00000040573812795946529350000014849117946313812112_" transform="translate(-12 -6)">
		<path id="패스_39023_00000084511477176793111730000016657631479361892514_" class="st0" d="M19.8,15.98l-2.11,0.84l-2.1-2.05
			L19.8,15.98z"/>
		<path id="패스_39024_00000065071756550258447930000012660141309995666319_" class="st1" d="M17.2,19.71l2.6-3.73v2.36
			L17.2,19.71z"/>
		<path id="패스_39025_00000032627990604978872980000006021103976330879678_" class="st2" d="M19.8,11.71l1.3,2.63l-1.3,1.64
			V11.71z"/>
		<path id="패스_39026_00000130645067081191650060000002224015670533821864_" class="st2" d="M24,14.77l-4.2,1.21l2.1,0.84
			L24,14.77z"/>
		<path id="패스_39027_00000143609836968959413960000017433081402051013546_" class="st0" d="M22.4,19.71l-2.6-3.73v2.36
			L22.4,19.71z"/>
		<g id="그룹_14712_00000036952364259909070450000002588003575583869613_">
			
				<linearGradient id="패스_39028_00000119825823234750504320000005895757748221940153_" gradientUnits="userSpaceOnUse" x1="81.4678" y1="-66.3788" x2="82.4678" y2="-66.3788" gradientTransform="matrix(4.21 0 0 -4.27 -327.39 -269.59)">
				<stop  offset="0" style="stop-color:#FFDD37"/>
				<stop  offset="1" style="stop-color:#FFFFAE"/>
			</linearGradient>
			
				<path id="패스_39028_00000095305470724661061840000008669518576570183589_" style="fill:url(#패스_39028_00000119825823234750504320000005895757748221940153_);" d="
				M18.5,14.34l-2.91,0.43l4.21,1.21v-4.27L18.5,14.34z"/>
			<g id="그룹_14711_00000095304001727369528760000005526448610227024548_">
				
					<linearGradient id="패스_39029_00000087377257638354346340000003013876634876526989_" gradientUnits="userSpaceOnUse" x1="81.6299" y1="-221.7392" x2="82.6309" y2="-221.7392" gradientTransform="matrix(4.2 0 0 -1.64 -323.05 -348.49)">
					<stop  offset="0" style="stop-color:#FFA300"/>
					<stop  offset="1" style="stop-color:#FFFF6A"/>
				</linearGradient>
				
					<path id="패스_39029_00000141419580863549588300000012864432083904003256_" style="fill:url(#패스_39029_00000087377257638354346340000003013876634876526989_);" d="
					M21.1,14.34l-1.3,1.64l4.2-1.21L21.1,14.34z"/>
				
					<linearGradient id="패스_39030_00000070818286566598818260000018336298342475512508_" gradientUnits="userSpaceOnUse" x1="123.8632" y1="-80.4041" x2="124.8632" y2="-80.4041" gradientTransform="matrix(2.6 0 0 -3.73 -302.25 -282.06)">
					<stop  offset="0" style="stop-color:#FFA300"/>
					<stop  offset="1" style="stop-color:#FFFF6A"/>
				</linearGradient>
				
					<path id="패스_39030_00000048469035523102799050000005955305487754923176_" style="fill:url(#패스_39030_00000070818286566598818260000018336298342475512508_);" d="
					M19.8,15.98l2.6,3.73l-0.5-2.89L19.8,15.98z"/>
				
					<linearGradient id="패스_39031_00000064316540772391484200000016444753835770405565_" gradientUnits="userSpaceOnUse" x1="123.8642" y1="-80.4041" x2="124.8642" y2="-80.4041" gradientTransform="matrix(2.6 0 0 -3.73 -304.85 -282.06)">
					<stop  offset="0" style="stop-color:#FFA300"/>
					<stop  offset="1" style="stop-color:#FFFF6A"/>
				</linearGradient>
				
					<path id="패스_39031_00000041286386968340818600000014796367421776868505_" style="fill:url(#패스_39031_00000064316540772391484200000016444753835770405565_);" d="
					M17.2,19.71l2.6-3.73l-2.11,0.84L17.2,19.71z"/>
			</g>
		</g>
	</g>
	<g id="그룹_14713_00000049208558353526304960000010493002651390117802_" transform="translate(-12 -6)">
		<path id="패스_39023_00000074432290234007134540000010143990770206949304_" class="st0" d="M28.21,15.98l-2.11,0.84L24,14.77
			L28.21,15.98z"/>
		<path id="패스_39024_00000075161295890253966150000007840268614995388336_" class="st1" d="M25.61,19.71l2.6-3.73v2.36
			L25.61,19.71z"/>
		<path id="패스_39025_00000134944320206560029550000014621098884461980592_" class="st2" d="M28.21,11.71l1.3,2.63l-1.3,1.64
			V11.71z"/>
		<path id="패스_39026_00000164498357927009057600000000467193744939881366_" class="st2" d="M32.41,14.77l-4.2,1.21l2.1,0.84
			L32.41,14.77z"/>
		<path id="패스_39027_00000130606756713537870770000018006309110080137353_" class="st0" d="M30.81,19.71l-2.6-3.73v2.36
			L30.81,19.71z"/>
		<g id="그룹_14712_00000090269008076687262130000009587513688229258880_">
			
				<linearGradient id="패스_39028_00000160897874401571565320000012247067540676748709_" gradientUnits="userSpaceOnUse" x1="83.4659" y1="-66.3788" x2="84.4659" y2="-66.3788" gradientTransform="matrix(4.21 0 0 -4.27 -327.39 -269.59)">
				<stop  offset="0" style="stop-color:#FFDD37"/>
				<stop  offset="1" style="stop-color:#FFFFAE"/>
			</linearGradient>
			
				<path id="패스_39028_00000015337854022644785700000012556484582301736124_" style="fill:url(#패스_39028_00000160897874401571565320000012247067540676748709_);" d="
				M26.91,14.34L24,14.77l4.21,1.21v-4.27L26.91,14.34z"/>
			<g id="그룹_14711_00000004525237385339715480000004822586811259444915_">
				
					<linearGradient id="패스_39029_00000166665694834301035460000017621815386185190537_" gradientUnits="userSpaceOnUse" x1="83.6327" y1="-221.7392" x2="84.6337" y2="-221.7392" gradientTransform="matrix(4.2 0 0 -1.64 -323.05 -348.49)">
					<stop  offset="0" style="stop-color:#FFA300"/>
					<stop  offset="1" style="stop-color:#FFFF6A"/>
				</linearGradient>
				
					<path id="패스_39029_00000142165931575330467100000000100305624346613641_" style="fill:url(#패스_39029_00000166665694834301035460000017621815386185190537_);" d="
					M29.51,14.34l-1.3,1.64l4.2-1.21L29.51,14.34z"/>
				
					<linearGradient id="패스_39030_00000139265010116033141020000007068227085428790952_" gradientUnits="userSpaceOnUse" x1="127.0985" y1="-80.4041" x2="128.0985" y2="-80.4041" gradientTransform="matrix(2.6 0 0 -3.73 -302.25 -282.06)">
					<stop  offset="0" style="stop-color:#FFA300"/>
					<stop  offset="1" style="stop-color:#FFFF6A"/>
				</linearGradient>
				
					<path id="패스_39030_00000026121030198673155840000009656175350430933417_" style="fill:url(#패스_39030_00000139265010116033141020000007068227085428790952_);" d="
					M28.21,15.98l2.6,3.73l-0.5-2.89L28.21,15.98z"/>
				
					<linearGradient id="패스_39031_00000169540172296141705720000014322801013152103042_" gradientUnits="userSpaceOnUse" x1="127.0995" y1="-80.4041" x2="128.0995" y2="-80.4041" gradientTransform="matrix(2.6 0 0 -3.73 -304.85 -282.06)">
					<stop  offset="0" style="stop-color:#FFA300"/>
					<stop  offset="1" style="stop-color:#FFFF6A"/>
				</linearGradient>
				
					<path id="패스_39031_00000085211203933999137870000008102066601955333017_" style="fill:url(#패스_39031_00000169540172296141705720000014322801013152103042_);" d="
					M25.61,19.71l2.6-3.73l-2.11,0.84L25.61,19.71z"/>
			</g>
		</g>
	</g>
</g>
<rect class="st11" width="24" height="24"/>
</svg>
