<svg xmlns="http://www.w3.org/2000/svg" width="18" height="18" viewBox="0 0 18 18">
  <g id="그룹_22338" data-name="그룹 22338" transform="translate(-265 -184)">
    <path id="패스_48153" data-name="패스 48153" d="M15,18H3a3,3,0,0,1-3-3V3A3,3,0,0,1,3,0H15a3,3,0,0,1,3,3V15a3,3,0,0,1-3,3" transform="translate(265 184)" fill="#c2c2cb"/>
    <path id="패스_48154" data-name="패스 48154" d="M5.727,3.545H7.909v1.6H5.727Zm0,3.2H7.909v1.6H5.727Zm0,1.6H7.909v1.6H5.727Zm0,1.6H7.909v1.6H5.727Zm2.182-6.4h2.182v1.6H7.909Zm0,3.2h2.182v1.6H7.909Zm0,3.2h2.182v1.6H7.909Zm2.182-6.4h2.182v1.6H10.091Zm0,1.6h2.182v1.6H10.091Zm0,1.6h2.182v1.6H10.091Zm0,3.2h2.182v1.6H10.091Z" transform="translate(265 185.455)" fill="#fff"/>
  </g>
</svg>
