<svg id="_2" data-name="2" xmlns="http://www.w3.org/2000/svg" xmlns:xlink="http://www.w3.org/1999/xlink" width="24" height="24" viewBox="0 0 24 24">
  <defs>
    <radialGradient id="radial-gradient" cx="0.5" cy="0.5" r="1.129" gradientTransform="translate(0.335) scale(0.33 1)" gradientUnits="objectBoundingBox">
      <stop offset="0" stop-color="#ede0ce"/>
      <stop offset="1" stop-color="#eccba5"/>
    </radialGradient>
  </defs>
  <path id="패스_39571" data-name="패스 39571" d="M21.89,17.48C20.64,21.29,17.8,24,13.5,24h-3c-4.3,0-7.14-2.71-8.39-6.52A27.421,27.421,0,0,0,12,19,27.421,27.421,0,0,0,21.89,17.48Z" fill="url(#radial-gradient)"/>
  <path id="패스_39572" data-name="패스 39572" d="M14.4,22.2H9.6a.6.6,0,0,1-.6-.6H9a.6.6,0,0,1,.6-.6h4.8a.6.6,0,0,1,.6.6h0A.6.6,0,0,1,14.4,22.2Z" fill="#2e2e29"/>
  <path id="패스_39573" data-name="패스 39573" d="M22.99,14.1c0-.03.01-.06.01-.1V11A11,11,0,0,0,1,11v3c0,.03.01.06.01.1A1.825,1.825,0,0,0,0,15.5C0,17.43,5.37,19,12,19s12-1.57,12-3.5A1.825,1.825,0,0,0,22.99,14.1Z" fill="#4f5238"/>
  <g id="그룹_8967" transform="translate(-494.02 -495.476)">
    <path id="패스_33709" d="M503.39,506.03a3.877,3.877,0,0,1-1.8-1.42,3.737,3.737,0,0,1-1.9,1.56l-.67-.78a2.705,2.705,0,0,0,1.97-2.21v-.94h1.16v.94a2.426,2.426,0,0,0,1.82,2Zm-3.29,2.72v-2.28h1.11v1.35h4.4v.93Zm4.33-1.85v-4.77h1.11v4.77Z" fill="#fff"/>
    <path id="패스_33710" d="M511.77,506v-.75h-1.03v.55h-3.92v-3.57h1.11v.9h1.71v-.9h1.11v.59h1.03v-.7h1.11V506Zm-3.1,2.82c-1.04,0-1.53-.49-1.53-1.32s.49-1.32,1.53-1.32h2.83c1.03,0,1.53.49,1.53,1.32s-.49,1.32-1.53,1.32Zm.95-4.79h-1.71v.87h1.71Zm-.89,3.06c-.34,0-.5.13-.5.41s.16.41.5.41h2.68c.34,0,.5-.13.5-.41s-.16-.41-.5-.41Zm3.03-3.36h-1.03v.61h1.03Z" fill="#fff"/>
  </g>
</svg>
