<?xml version="1.0" encoding="utf-8"?>
<!-- Generator: Adobe Illustrator 28.2.0, SVG Export Plug-In . SVG Version: 6.00 Build 0)  -->
<svg version="1.1" id="Layer_1" xmlns="http://www.w3.org/2000/svg" xmlns:xlink="http://www.w3.org/1999/xlink" x="0px" y="0px"
	 viewBox="0 0 24 24" style="enable-background:new 0 0 24 24;" xml:space="preserve">
<style type="text/css">
	.st0{fill:#E0AB00;}
	.st1{fill:#FFC700;}
	.st2{fill:#F0BA00;}
	.st3{fill:url(#패스_39028_00000062901598916308235930000007662574035571023005_);}
	.st4{fill:url(#패스_39029_00000060012464025638442440000001242049626053898425_);}
	.st5{fill:url(#패스_39030_00000045617174261442692230000003181213925383277450_);}
	.st6{fill:url(#패스_39031_00000052088885597590353980000011280487536806804911_);}
	.st7{fill:url(#패스_39028_00000165216999947844119670000013288851471964189088_);}
	.st8{fill:url(#패스_39029_00000027584476149822308350000010173051497324992173_);}
	.st9{fill:url(#패스_39030_00000172427172340202402520000010778347989026935965_);}
	.st10{fill:url(#패스_39031_00000183220931270940171680000005535881240048891285_);}
	.st11{fill:url(#패스_39028_00000070093195150191400330000011835786879524258689_);}
	.st12{fill:url(#패스_39029_00000084524200153921999660000017635458013189818794_);}
	.st13{fill:url(#패스_39030_00000151514899159331730540000011320274069527274427_);}
	.st14{fill:url(#패스_39031_00000002364242424746313910000005296026806527700402_);}
	.st15{fill:none;}
</style>
<g>
	<path d="M23.91,8.27l-2-0.3l-1.73-0.26l-0.78-1.57l-0.9-1.81l-0.9,1.81l-0.78,1.57l-1.59,0.23l-1.58-0.23L12.9,6.15l-0.9-1.81
		l-0.9,1.81l-0.78,1.57L8.75,7.95L7.16,7.72L6.39,6.15l-0.9-1.81L4.6,6.15L3.82,7.72L2.08,7.98l-2,0.29l1.44,1.41l1.25,1.22
		l-0.29,1.72l-0.34,2l1.79-0.94l1.55-0.82l1.55,0.82l1.64,0.87l-0.01,0.08l0.08-0.04l0.09,0.05l-0.01-0.09l1.64-0.86l1.55-0.82
		l1.55,0.82l1.63,0.86l-0.01,0.08l0.09-0.04l0.09,0.05l-0.02-0.09l1.63-0.86l1.55-0.82l1.55,0.82l1.8,0.95l-0.35-2l-0.3-1.72
		l1.25-1.22L23.91,8.27z M9.01,12.63l-0.25,1.5l-0.26-1.51l-0.3-1.72l0.55-0.54L9.3,10.9L9.01,12.63z M15.52,12.63l-0.25,1.48
		l-0.26-1.48l-0.3-1.72l0.55-0.53l0.55,0.54L15.52,12.63z"/>
	<g id="그룹_14713_00000076587178835253191510000009551750830982281661_" transform="translate(-12 -6)">
		<path id="패스_39023_00000174577621944995208940000017776613385349333901_" class="st0" d="M30.52,15.9l-1.64,0.65l-1.63-1.59
			L30.52,15.9z"/>
		<path id="패스_39024_00000070808333232203034790000010841545674925414321_" class="st1" d="M28.5,18.79l2.01-2.89v1.83
			L28.5,18.79z"/>
		<path id="패스_39025_00000181779735956010463100000012216660076984858795_" class="st2" d="M30.52,12.59l1.01,2.04l-1.01,1.27
			V12.59z"/>
		<path id="패스_39026_00000095303859510642658480000006027826693844328356_" class="st2" d="M33.77,14.96l-3.25,0.94l1.63,0.65
			L33.77,14.96z"/>
		<path id="패스_39027_00000025435549225919285310000000586835455567107257_" class="st0" d="M32.53,18.79l-2.02-2.89v1.83
			L32.53,18.79z"/>
		<g id="그룹_14712_00000112604903604743097150000016209878182280143515_">
			
				<linearGradient id="패스_39028_00000141439486875153177360000016830985757191062145_" gradientUnits="userSpaceOnUse" x1="84.2384" y1="-66.4726" x2="85.0134" y2="-66.4726" gradientTransform="matrix(4.21 0 0 -4.27 -327.39 -269.59)">
				<stop  offset="0" style="stop-color:#FFDD37"/>
				<stop  offset="1" style="stop-color:#FFFFAE"/>
			</linearGradient>
			
				<path id="패스_39028_00000128484471296458653260000015779670478555731377_" style="fill:url(#패스_39028_00000141439486875153177360000016830985757191062145_);" d="
				M29.51,14.63l-2.26,0.33l3.26,0.94v-3.31L29.51,14.63z"/>
			<g id="그룹_14711_00000147198413602950574580000014512455116524566442_">
				
					<linearGradient id="패스_39029_00000088131874119233861440000007656771336643715973_" gradientUnits="userSpaceOnUse" x1="84.1818" y1="-221.8031" x2="84.9575" y2="-221.8031" gradientTransform="matrix(4.2 0 0 -1.64 -323.05 -348.49)">
					<stop  offset="0" style="stop-color:#FFA300"/>
					<stop  offset="1" style="stop-color:#FFFF6A"/>
				</linearGradient>
				
					<path id="패스_39029_00000173143088729023639840000004460132729951676829_" style="fill:url(#패스_39029_00000088131874119233861440000007656771336643715973_);" d="
					M31.52,14.63l-1.01,1.27l3.25-0.94L31.52,14.63z"/>
				
					<linearGradient id="패스_39030_00000055682024599497386420000001205120323487814824_" gradientUnits="userSpaceOnUse" x1="127.9856" y1="-80.2702" x2="128.7606" y2="-80.2702" gradientTransform="matrix(2.6 0 0 -3.73 -302.25 -282.06)">
					<stop  offset="0" style="stop-color:#FFA300"/>
					<stop  offset="1" style="stop-color:#FFFF6A"/>
				</linearGradient>
				
					<path id="패스_39030_00000136405906049267929300000002038668548701270153_" style="fill:url(#패스_39030_00000055682024599497386420000001205120323487814824_);" d="
					M30.52,15.9l2.02,2.89l-0.39-2.24L30.52,15.9z"/>
				
					<linearGradient id="패스_39031_00000080914945373668225710000016978827483442052738_" gradientUnits="userSpaceOnUse" x1="128.2114" y1="-80.2702" x2="128.9864" y2="-80.2702" gradientTransform="matrix(2.6 0 0 -3.73 -304.85 -282.06)">
					<stop  offset="0" style="stop-color:#FFA300"/>
					<stop  offset="1" style="stop-color:#FFFF6A"/>
				</linearGradient>
				
					<path id="패스_39031_00000067948765624246286200000007261998946651287698_" style="fill:url(#패스_39031_00000080914945373668225710000016978827483442052738_);" d="
					M28.5,18.79l2.01-2.89l-1.64,0.65L28.5,18.79z"/>
			</g>
		</g>
	</g>
	<g id="그룹_14713_00000040573812795946529350000014849117946313812112_" transform="translate(-12 -6)">
		<path id="패스_39023_00000084511477176793111730000016657631479361892514_" class="st0" d="M17.49,15.9l-1.64,0.65l-1.63-1.59
			L17.49,15.9z"/>
		<path id="패스_39024_00000065071756550258447930000012660141309995666319_" class="st1" d="M15.48,18.79l2.01-2.89v1.83
			L15.48,18.79z"/>
		<path id="패스_39025_00000032627990604978872980000006021103976330879678_" class="st2" d="M17.49,12.59l1.01,2.04l-1.01,1.27
			V12.59z"/>
		<path id="패스_39026_00000130645067081191650060000002224015670533821864_" class="st2" d="M20.75,14.96l-3.26,0.94l1.63,0.65
			L20.75,14.96z"/>
		<path id="패스_39027_00000143609836968959413960000017433081402051013546_" class="st0" d="M19.51,18.79l-2.01-2.89v1.83
			L19.51,18.79z"/>
		<g id="그룹_14712_00000036952364259909070450000002588003575583869613_">
			
				<linearGradient id="패스_39028_00000149349649779293759950000003971547706249742521_" gradientUnits="userSpaceOnUse" x1="81.1447" y1="-66.4726" x2="81.9197" y2="-66.4726" gradientTransform="matrix(4.21 0 0 -4.27 -327.39 -269.59)">
				<stop  offset="0" style="stop-color:#FFDD37"/>
				<stop  offset="1" style="stop-color:#FFFFAE"/>
			</linearGradient>
			
				<path id="패스_39028_00000095305470724661061840000008669518576570183589_" style="fill:url(#패스_39028_00000149349649779293759950000003971547706249742521_);" d="
				M16.48,14.63l-2.26,0.33l3.26,0.94v-3.31L16.48,14.63z"/>
			<g id="그룹_14711_00000095304001727369528760000005526448610227024548_">
				
					<linearGradient id="패스_39029_00000103974220179555243110000011080083671135187903_" gradientUnits="userSpaceOnUse" x1="81.0807" y1="-221.8031" x2="81.8565" y2="-221.8031" gradientTransform="matrix(4.2 0 0 -1.64 -323.05 -348.49)">
					<stop  offset="0" style="stop-color:#FFA300"/>
					<stop  offset="1" style="stop-color:#FFFF6A"/>
				</linearGradient>
				
					<path id="패스_39029_00000141419580863549588300000012864432083904003256_" style="fill:url(#패스_39029_00000103974220179555243110000011080083671135187903_);" d="
					M18.5,14.63l-1.01,1.27l3.25-0.94L18.5,14.63z"/>
				
					<linearGradient id="패스_39030_00000059294111951779285020000010991036182318161798_" gradientUnits="userSpaceOnUse" x1="122.9761" y1="-80.2702" x2="123.7511" y2="-80.2702" gradientTransform="matrix(2.6 0 0 -3.73 -302.25 -282.06)">
					<stop  offset="0" style="stop-color:#FFA300"/>
					<stop  offset="1" style="stop-color:#FFFF6A"/>
				</linearGradient>
				
					<path id="패스_39030_00000048469035523102799050000005955305487754923176_" style="fill:url(#패스_39030_00000059294111951779285020000010991036182318161798_);" d="
					M17.49,15.9l2.01,2.89l-0.39-2.24L17.49,15.9z"/>
				
					<linearGradient id="패스_39031_00000064345806621410721300000016844652602933475204_" gradientUnits="userSpaceOnUse" x1="123.202" y1="-80.2702" x2="123.977" y2="-80.2702" gradientTransform="matrix(2.6 0 0 -3.73 -304.85 -282.06)">
					<stop  offset="0" style="stop-color:#FFA300"/>
					<stop  offset="1" style="stop-color:#FFFF6A"/>
				</linearGradient>
				
					<path id="패스_39031_00000041286386968340818600000014796367421776868505_" style="fill:url(#패스_39031_00000064345806621410721300000016844652602933475204_);" d="
					M15.48,18.79l2.01-2.89l-1.64,0.65L15.48,18.79z"/>
			</g>
		</g>
	</g>
	<g id="그룹_14713_00000118382040047608294790000006427219271496606114_" transform="translate(-12 -6)">
		<path id="패스_39023_00000173162662630806075440000013044466378761657734_" class="st0" d="M24.01,15.9l-1.64,0.65l-1.63-1.59
			L24.01,15.9z"/>
		<path id="패스_39024_00000007395769961128140120000000635478152458084508_" class="st1" d="M21.99,18.79l2.01-2.89v1.83
			L21.99,18.79z"/>
		<path id="패스_39025_00000114054388951659133890000004028012578342861979_" class="st2" d="M24.01,12.59l1.01,2.04l-1.01,1.27
			V12.59z"/>
		<path id="패스_39026_00000023972852143757417690000003246653169932718764_" class="st2" d="M27.26,14.96l-3.26,0.94l1.63,0.65
			L27.26,14.96z"/>
		<path id="패스_39027_00000155858382337358509480000003326218816382014134_" class="st0" d="M26.02,18.79l-2.02-2.89v1.83
			L26.02,18.79z"/>
		<g id="그룹_14712_00000155123233240793342960000010327440092843652538_">
			
				<linearGradient id="패스_39028_00000183209444005404061790000012965848547044712834_" gradientUnits="userSpaceOnUse" x1="82.6926" y1="-66.4726" x2="83.4676" y2="-66.4726" gradientTransform="matrix(4.21 0 0 -4.27 -327.39 -269.59)">
				<stop  offset="0" style="stop-color:#FFDD37"/>
				<stop  offset="1" style="stop-color:#FFFFAE"/>
			</linearGradient>
			
				<path id="패스_39028_00000165953307180715888620000008949847646068770476_" style="fill:url(#패스_39028_00000183209444005404061790000012965848547044712834_);" d="
				M23,14.63l-2.26,0.33l3.26,0.94v-3.31L23,14.63z"/>
			<g id="그룹_14711_00000080922347105075736180000003039917346845738678_">
				
					<linearGradient id="패스_39029_00000089548317395907798260000011834947423025117868_" gradientUnits="userSpaceOnUse" x1="82.6322" y1="-221.8031" x2="83.408" y2="-221.8031" gradientTransform="matrix(4.2 0 0 -1.64 -323.05 -348.49)">
					<stop  offset="0" style="stop-color:#FFA300"/>
					<stop  offset="1" style="stop-color:#FFFF6A"/>
				</linearGradient>
				
					<path id="패스_39029_00000183243827915081596800000012222550999003837368_" style="fill:url(#패스_39029_00000089548317395907798260000011834947423025117868_);" d="
					M25.02,14.63l-1.01,1.27l3.25-0.94L25.02,14.63z"/>
				
					<linearGradient id="패스_39030_00000036228633765509787890000017250301009624783763_" gradientUnits="userSpaceOnUse" x1="125.4825" y1="-80.2702" x2="126.2575" y2="-80.2702" gradientTransform="matrix(2.6 0 0 -3.73 -302.25 -282.06)">
					<stop  offset="0" style="stop-color:#FFA300"/>
					<stop  offset="1" style="stop-color:#FFFF6A"/>
				</linearGradient>
				
					<path id="패스_39030_00000072969357009247887920000016691955886213371011_" style="fill:url(#패스_39030_00000036228633765509787890000017250301009624783763_);" d="
					M24.01,15.9l2.02,2.89l-0.39-2.24L24.01,15.9z"/>
				
					<linearGradient id="패스_39031_00000098186257919919004460000006212461901956600986_" gradientUnits="userSpaceOnUse" x1="125.7083" y1="-80.2702" x2="126.4833" y2="-80.2702" gradientTransform="matrix(2.6 0 0 -3.73 -304.85 -282.06)">
					<stop  offset="0" style="stop-color:#FFA300"/>
					<stop  offset="1" style="stop-color:#FFFF6A"/>
				</linearGradient>
				
					<path id="패스_39031_00000138533868126615792800000010993671610022517402_" style="fill:url(#패스_39031_00000098186257919919004460000006212461901956600986_);" d="
					M21.99,18.79l2.01-2.89l-1.64,0.65L21.99,18.79z"/>
			</g>
		</g>
	</g>
</g>
<rect class="st15" width="24" height="24"/>
</svg>
