<?xml version="1.0" encoding="utf-8"?>
<!-- Generator: Adobe Illustrator 28.2.0, SVG Export Plug-In . SVG Version: 6.00 Build 0)  -->
<svg version="1.1" id="Layer_1" xmlns="http://www.w3.org/2000/svg" xmlns:xlink="http://www.w3.org/1999/xlink" x="0px" y="0px"
	 viewBox="0 0 24 24" style="enable-background:new 0 0 24 24;" xml:space="preserve">
<style type="text/css">
	.st0{fill:#E0AB00;}
	.st1{fill:#FFC700;}
	.st2{fill:#F0BA00;}
	.st3{fill:url(#패스_39028_00000179626763255413503970000011622970791954857092_);}
	.st4{fill:url(#패스_39029_00000042738386556259830280000004089721599819583934_);}
	.st5{fill:url(#패스_39030_00000075139642264459019710000017353220240895971516_);}
	.st6{fill:url(#패스_39031_00000163764026322971284580000014137527325706410883_);}
	.st7{fill:url(#패스_39028_00000101072341503961794360000012101692057421385620_);}
	.st8{fill:url(#패스_39029_00000145737151535116543480000002619208759794026886_);}
	.st9{fill:url(#패스_39030_00000068677844114751828540000008773631881678209952_);}
	.st10{fill:url(#패스_39031_00000020370266065679073950000003186933863056845702_);}
	.st11{fill:url(#패스_39028_00000119096802457317740310000012303653837734087099_);}
	.st12{fill:url(#패스_39029_00000044139183382707080450000001751743078487477170_);}
	.st13{fill:url(#패스_39030_00000044164571588187757930000008860927283726826922_);}
	.st14{fill:url(#패스_39031_00000024002895760012148900000011710147707033994919_);}
	.st15{fill:url(#패스_39028_00000036946801702066049170000001665771089250879666_);}
	.st16{fill:url(#패스_39029_00000109708858925484384540000008262904201764670641_);}
	.st17{fill:url(#패스_39030_00000060737413105661683720000000499034527130575273_);}
	.st18{fill:url(#패스_39031_00000137835997380907041030000012600638076118745790_);}
	.st19{fill:none;}
</style>
<g>
	<path d="M19.29,11.08l-0.34-1.99L18.6,7.08l1.46-1.43l1.44-1.41l-2-0.3l-2.02-0.3l-0.91-1.83L15.69,0l-0.9,1.81l-0.91,1.83L12,3.92
		l-1.87-0.28L9.22,1.81L8.32,0l-0.9,1.81L6.52,3.65l-2.03,0.3l-2,0.3l1.44,1.41L5.4,7.08L5.06,9.09l-0.34,1.99l-0.23,0.03l-2,0.3
		l1.44,1.41l1.46,1.43l-0.34,2.01l-0.34,2l1.79-0.94l1.81-0.95l1.81,0.95l1.8,0.95l-0.35-2l-0.35-2.01L12,13.5l0.76,0.75l-0.34,2.01
		l-0.34,2l1.79-0.94l1.81-0.95l1.81,0.95l1.8,0.95l-0.35-2l-0.35-2.01l1.46-1.43l1.44-1.41l-2-0.3L19.29,11.08z M10.13,10.81
		L9.68,9.9l0.46,0.24l1.77,0.93L10.13,10.81z M11.93,11.08l-0.34-1.99l-0.35-2.01L12,6.33l0.76,0.75l-0.34,2.01l-0.34,1.99L12,11.09
		L11.93,11.08z M12.11,11.07l1.77-0.93l0.46-0.24l-0.45,0.91L12.11,11.07z M4.75,11.07l1.77-0.93L6.97,9.9l-0.45,0.91L4.75,11.07z
		 M17.49,10.81L17.04,9.9l0.46,0.24l1.77,0.93L17.49,10.81z"/>
	<g id="그룹_14713_00000087408780360622612070000008755433691612561818_" transform="translate(-12 -6)">
		<path id="패스_39023_00000068661158860123763280000017624106215872588971_" class="st0" d="M27.69,19.16l-1.85,0.74L24,18.1
			L27.69,19.16z"/>
		<path id="패스_39024_00000073712058353468156110000013880446726626794368_" class="st1" d="M25.41,22.42l2.27-3.26v2.07
			L25.41,22.42z"/>
		<path id="패스_39025_00000152256122213844703150000015284344178268910782_" class="st2" d="M27.69,15.42l1.14,2.3l-1.14,1.43
			V15.42z"/>
		<path id="패스_39026_00000134250980663050001470000001516007563420350600_" class="st2" d="M31.36,18.1l-3.68,1.06l1.84,0.74
			L31.36,18.1z"/>
		<path id="패스_39027_00000098180329385492412990000006703865575877491380_" class="st0" d="M29.96,22.42l-2.28-3.26v2.07
			L29.96,22.42z"/>
		<g id="그룹_14712_00000014635424042506814930000011005065784463932601_">
			
				<linearGradient id="패스_39028_00000024683053334469127720000015334591791903483065_" gradientUnits="userSpaceOnUse" x1="83.4659" y1="-67.1851" x2="84.3409" y2="-67.1851" gradientTransform="matrix(4.21 0 0 -4.27 -327.39 -269.59)">
				<stop  offset="0" style="stop-color:#FFDD37"/>
				<stop  offset="1" style="stop-color:#FFFFAE"/>
			</linearGradient>
			
				<path id="패스_39028_00000048470080927659255030000003068516918386842246_" style="fill:url(#패스_39028_00000024683053334469127720000015334591791903483065_);" d="
				M26.55,17.72L24,18.1l3.68,1.06v-3.74L26.55,17.72z"/>
			<g id="그룹_14711_00000005980519303972210120000015939762440585155484_">
				
					<linearGradient id="패스_39029_00000124132364269737533010000006597166927352383642_" gradientUnits="userSpaceOnUse" x1="83.5075" y1="-223.7384" x2="84.3834" y2="-223.7384" gradientTransform="matrix(4.2 0 0 -1.64 -323.05 -348.49)">
					<stop  offset="0" style="stop-color:#FFA300"/>
					<stop  offset="1" style="stop-color:#FFFF6A"/>
				</linearGradient>
				
					<path id="패스_39029_00000121979385264915076180000009894227494155135368_" style="fill:url(#패스_39029_00000124132364269737533010000006597166927352383642_);" d="
					M28.82,17.72l-1.14,1.43l3.67-1.06L28.82,17.72z"/>
				
					<linearGradient id="패스_39030_00000091006988834078878680000008656349147090467767_" gradientUnits="userSpaceOnUse" x1="126.8963" y1="-81.1932" x2="127.7713" y2="-81.1932" gradientTransform="matrix(2.6 0 0 -3.73 -302.25 -282.06)">
					<stop  offset="0" style="stop-color:#FFA300"/>
					<stop  offset="1" style="stop-color:#FFFF6A"/>
				</linearGradient>
				
					<path id="패스_39030_00000179619442264698883040000009317688125182469761_" style="fill:url(#패스_39030_00000091006988834078878680000008656349147090467767_);" d="
					M27.69,19.16l2.28,3.26l-0.44-2.53L27.69,19.16z"/>
				
					<linearGradient id="패스_39031_00000024711935485550331300000011301163332767560894_" gradientUnits="userSpaceOnUse" x1="127.0223" y1="-81.1932" x2="127.8973" y2="-81.1932" gradientTransform="matrix(2.6 0 0 -3.73 -304.85 -282.06)">
					<stop  offset="0" style="stop-color:#FFA300"/>
					<stop  offset="1" style="stop-color:#FFFF6A"/>
				</linearGradient>
				
					<path id="패스_39031_00000014621618088596344780000005334584644509133968_" style="fill:url(#패스_39031_00000024711935485550331300000011301163332767560894_);" d="
					M25.41,22.42l2.27-3.26l-1.85,0.74L25.41,22.42z"/>
			</g>
		</g>
	</g>
	<g id="그룹_14713_00000040573812795946529350000014849117946313812112_" transform="translate(-12 -6)">
		<path id="패스_39023_00000084511477176793111730000016657631479361892514_" class="st0" d="M20.32,19.16l-1.85,0.74l-1.84-1.79
			L20.32,19.16z"/>
		<path id="패스_39024_00000065071756550258447930000012660141309995666319_" class="st1" d="M18.05,22.42l2.27-3.26v2.07
			L18.05,22.42z"/>
		<path id="패스_39025_00000032627990604978872980000006021103976330879678_" class="st2" d="M20.32,15.42l1.14,2.3l-1.14,1.43
			V15.42z"/>
		<path id="패스_39026_00000130645067081191650060000002224015670533821864_" class="st2" d="M24,18.1l-3.68,1.06l1.84,0.74
			L24,18.1z"/>
		<path id="패스_39027_00000143609836968959413960000017433081402051013546_" class="st0" d="M22.6,22.42l-2.27-3.26v2.07
			L22.6,22.42z"/>
		<g id="그룹_14712_00000036952364259909070450000002588003575583869613_">
			
				<linearGradient id="패스_39028_00000070089111858487121860000009136252240673493923_" gradientUnits="userSpaceOnUse" x1="81.7175" y1="-67.1851" x2="82.5925" y2="-67.1851" gradientTransform="matrix(4.21 0 0 -4.27 -327.39 -269.59)">
				<stop  offset="0" style="stop-color:#FFDD37"/>
				<stop  offset="1" style="stop-color:#FFFFAE"/>
			</linearGradient>
			
				<path id="패스_39028_00000095305470724661061840000008669518576570183589_" style="fill:url(#패스_39028_00000070089111858487121860000009136252240673493923_);" d="
				M19.19,17.72l-2.55,0.38l3.68,1.06v-3.74L19.19,17.72z"/>
			<g id="그룹_14711_00000095304001727369528760000005526448610227024548_">
				
					<linearGradient id="패스_39029_00000169516008355213769500000007594448664346048191_" gradientUnits="userSpaceOnUse" x1="81.755" y1="-223.7384" x2="82.6309" y2="-223.7384" gradientTransform="matrix(4.2 0 0 -1.64 -323.05 -348.49)">
					<stop  offset="0" style="stop-color:#FFA300"/>
					<stop  offset="1" style="stop-color:#FFFF6A"/>
				</linearGradient>
				
					<path id="패스_39029_00000141419580863549588300000012864432083904003256_" style="fill:url(#패스_39029_00000169516008355213769500000007594448664346048191_);" d="
					M21.46,17.72l-1.14,1.43L24,18.1L21.46,17.72z"/>
				
					<linearGradient id="패스_39030_00000155833882183235893210000014105288419199675279_" gradientUnits="userSpaceOnUse" x1="124.0654" y1="-81.1932" x2="124.9404" y2="-81.1932" gradientTransform="matrix(2.6 0 0 -3.73 -302.25 -282.06)">
					<stop  offset="0" style="stop-color:#FFA300"/>
					<stop  offset="1" style="stop-color:#FFFF6A"/>
				</linearGradient>
				
					<path id="패스_39030_00000048469035523102799050000005955305487754923176_" style="fill:url(#패스_39030_00000155833882183235893210000014105288419199675279_);" d="
					M20.32,19.16l2.27,3.26l-0.44-2.53L20.32,19.16z"/>
				
					<linearGradient id="패스_39031_00000035516343236100384610000007970820463168844941_" gradientUnits="userSpaceOnUse" x1="124.1913" y1="-81.1932" x2="125.0663" y2="-81.1932" gradientTransform="matrix(2.6 0 0 -3.73 -304.85 -282.06)">
					<stop  offset="0" style="stop-color:#FFA300"/>
					<stop  offset="1" style="stop-color:#FFFF6A"/>
				</linearGradient>
				
					<path id="패스_39031_00000041286386968340818600000014796367421776868505_" style="fill:url(#패스_39031_00000035516343236100384610000007970820463168844941_);" d="
					M18.05,22.42l2.27-3.26l-1.85,0.74L18.05,22.42z"/>
			</g>
		</g>
	</g>
	<g id="그룹_14713_00000008832278184875784710000015892314283013640356_" transform="translate(-12 -6)">
		<path id="패스_39023_00000097498614881340381880000016748413425219430539_" class="st0" d="M27.69,11.99l-1.85,0.74L24,10.93
			L27.69,11.99z"/>
		<path id="패스_39024_00000150074839454056281880000014704507379079913100_" class="st1" d="M25.41,15.26l2.27-3.26v2.06
			L25.41,15.26z"/>
		<path id="패스_39025_00000063628758088959344120000010189044565456785336_" class="st2" d="M27.69,8.26l1.14,2.3l-1.14,1.44
			V8.26z"/>
		<path id="패스_39026_00000124133067619127230880000000940846587870673839_" class="st2" d="M31.36,10.93l-3.68,1.06l1.84,0.74
			L31.36,10.93z"/>
		<path id="패스_39027_00000109014247997804650240000013462967750354925441_" class="st0" d="M29.96,15.26l-2.28-3.26v2.06
			L29.96,15.26z"/>
		<g id="그룹_14712_00000102512404676413067210000015540133639240496285_">
			
				<linearGradient id="패스_39028_00000017476556200071275490000003322522241406630275_" gradientUnits="userSpaceOnUse" x1="83.4659" y1="-65.507" x2="84.3409" y2="-65.507" gradientTransform="matrix(4.21 0 0 -4.27 -327.39 -269.59)">
				<stop  offset="0" style="stop-color:#FFDD37"/>
				<stop  offset="1" style="stop-color:#FFFFAE"/>
			</linearGradient>
			
				<path id="패스_39028_00000015340966597234379230000011396316488069946302_" style="fill:url(#패스_39028_00000017476556200071275490000003322522241406630275_);" d="
				M26.55,10.56L24,10.93l3.68,1.06V8.26L26.55,10.56z"/>
			<g id="그룹_14711_00000121966368938428229260000012078555084095251075_">
				
					<linearGradient id="패스_39029_00000134216211068084198270000000469613581895106432_" gradientUnits="userSpaceOnUse" x1="83.5075" y1="-219.3691" x2="84.3834" y2="-219.3691" gradientTransform="matrix(4.2 0 0 -1.64 -323.05 -348.49)">
					<stop  offset="0" style="stop-color:#FFA300"/>
					<stop  offset="1" style="stop-color:#FFFF6A"/>
				</linearGradient>
				
					<path id="패스_39029_00000046303609797095506310000018293281912011616954_" style="fill:url(#패스_39029_00000134216211068084198270000000469613581895106432_);" d="
					M28.82,10.56l-1.14,1.44l3.67-1.06L28.82,10.56z"/>
				
					<linearGradient id="패스_39030_00000038400451853047462390000004630201652055625090_" gradientUnits="userSpaceOnUse" x1="126.8963" y1="-79.2721" x2="127.7713" y2="-79.2721" gradientTransform="matrix(2.6 0 0 -3.73 -302.25 -282.06)">
					<stop  offset="0" style="stop-color:#FFA300"/>
					<stop  offset="1" style="stop-color:#FFFF6A"/>
				</linearGradient>
				
					<path id="패스_39030_00000148633764036710384340000015070189030826234795_" style="fill:url(#패스_39030_00000038400451853047462390000004630201652055625090_);" d="
					M27.69,11.99l2.28,3.26l-0.44-2.53L27.69,11.99z"/>
				
					<linearGradient id="패스_39031_00000048496458553015919780000004177585608192930698_" gradientUnits="userSpaceOnUse" x1="127.0223" y1="-79.2721" x2="127.8973" y2="-79.2721" gradientTransform="matrix(2.6 0 0 -3.73 -304.85 -282.06)">
					<stop  offset="0" style="stop-color:#FFA300"/>
					<stop  offset="1" style="stop-color:#FFFF6A"/>
				</linearGradient>
				
					<path id="패스_39031_00000137816160271859035080000007810924509636232850_" style="fill:url(#패스_39031_00000048496458553015919780000004177585608192930698_);" d="
					M25.41,15.26l2.27-3.26l-1.85,0.74L25.41,15.26z"/>
			</g>
		</g>
	</g>
	<g id="그룹_14713_00000118374743408667299290000017240535127048408457_" transform="translate(-12 -6)">
		<path id="패스_39023_00000019672024248839324710000004840378203326576516_" class="st0" d="M20.32,11.99l-1.85,0.74l-1.84-1.79
			L20.32,11.99z"/>
		<path id="패스_39024_00000164499323814217645280000001082998523211499436_" class="st1" d="M18.05,15.26l2.27-3.26v2.06
			L18.05,15.26z"/>
		<path id="패스_39025_00000119840077529093634110000001723329952677734050_" class="st2" d="M20.32,8.26l1.14,2.3l-1.14,1.44
			V8.26z"/>
		<path id="패스_39026_00000001623137338456537310000000239875845211197613_" class="st2" d="M24,10.93l-3.68,1.06l1.84,0.74
			L24,10.93z"/>
		<path id="패스_39027_00000029744270849011426190000011496620427735962035_" class="st0" d="M22.6,15.26l-2.27-3.26v2.06
			L22.6,15.26z"/>
		<g id="그룹_14712_00000005263286654257200220000009445496317820219035_">
			
				<linearGradient id="패스_39028_00000014594212005479344170000017537693150439194259_" gradientUnits="userSpaceOnUse" x1="81.7175" y1="-65.507" x2="82.5925" y2="-65.507" gradientTransform="matrix(4.21 0 0 -4.27 -327.39 -269.59)">
				<stop  offset="0" style="stop-color:#FFDD37"/>
				<stop  offset="1" style="stop-color:#FFFFAE"/>
			</linearGradient>
			
				<path id="패스_39028_00000087401600217564019180000000280763527287623845_" style="fill:url(#패스_39028_00000014594212005479344170000017537693150439194259_);" d="
				M19.19,10.56l-2.55,0.38l3.68,1.06V8.26L19.19,10.56z"/>
			<g id="그룹_14711_00000106128169080323114630000011283422453797895066_">
				
					<linearGradient id="패스_39029_00000142172346664563459030000003348937010376193924_" gradientUnits="userSpaceOnUse" x1="81.755" y1="-219.3691" x2="82.6309" y2="-219.3691" gradientTransform="matrix(4.2 0 0 -1.64 -323.05 -348.49)">
					<stop  offset="0" style="stop-color:#FFA300"/>
					<stop  offset="1" style="stop-color:#FFFF6A"/>
				</linearGradient>
				
					<path id="패스_39029_00000066476915443541072800000005929147035380125089_" style="fill:url(#패스_39029_00000142172346664563459030000003348937010376193924_);" d="
					M21.46,10.56l-1.14,1.44L24,10.93L21.46,10.56z"/>
				
					<linearGradient id="패스_39030_00000095336539282192387260000007218968388654342531_" gradientUnits="userSpaceOnUse" x1="124.0654" y1="-79.2721" x2="124.9404" y2="-79.2721" gradientTransform="matrix(2.6 0 0 -3.73 -302.25 -282.06)">
					<stop  offset="0" style="stop-color:#FFA300"/>
					<stop  offset="1" style="stop-color:#FFFF6A"/>
				</linearGradient>
				
					<path id="패스_39030_00000061450881221749255140000015045032271931345054_" style="fill:url(#패스_39030_00000095336539282192387260000007218968388654342531_);" d="
					M20.32,11.99l2.27,3.26l-0.44-2.53L20.32,11.99z"/>
				
					<linearGradient id="패스_39031_00000008868598351540068260000005191962454562541953_" gradientUnits="userSpaceOnUse" x1="124.1913" y1="-79.2721" x2="125.0663" y2="-79.2721" gradientTransform="matrix(2.6 0 0 -3.73 -304.85 -282.06)">
					<stop  offset="0" style="stop-color:#FFA300"/>
					<stop  offset="1" style="stop-color:#FFFF6A"/>
				</linearGradient>
				
					<path id="패스_39031_00000114058098687149416690000006622146162834257560_" style="fill:url(#패스_39031_00000008868598351540068260000005191962454562541953_);" d="
					M18.05,15.26l2.27-3.26l-1.85,0.74L18.05,15.26z"/>
			</g>
		</g>
	</g>
</g>
<rect class="st19" width="24" height="24"/>
</svg>
