<?xml version="1.0" encoding="utf-8"?>
<!-- Generator: Adobe Illustrator 28.2.0, SVG Export Plug-In . SVG Version: 6.00 Build 0)  -->
<svg version="1.1" id="Layer_1" xmlns="http://www.w3.org/2000/svg" xmlns:xlink="http://www.w3.org/1999/xlink" x="0px" y="0px"
	 viewBox="0 0 24 24" style="enable-background:new 0 0 24 24;" xml:space="preserve">
<style type="text/css">
	.st0{fill:#E0AB00;}
	.st1{fill:#FFC700;}
	.st2{fill:#F0BA00;}
	.st3{fill:url(#패스_39028_00000093144368517972133270000006131615994165929867_);}
	.st4{fill:url(#패스_39029_00000072986598128822332030000012447551565681227177_);}
	.st5{fill:url(#패스_39030_00000176037048152924716150000006427066005721376173_);}
	.st6{fill:url(#패스_39031_00000158735078801894317810000001246010415847135131_);}
	.st7{fill:url(#패스_39028_00000092425537717606212870000012272935384948203946_);}
	.st8{fill:url(#패스_39029_00000120545521279790368730000001274643015798244261_);}
	.st9{fill:url(#패스_39030_00000093164146977029942300000006408028271726608020_);}
	.st10{fill:url(#패스_39031_00000007414749755505492790000002099442163280430506_);}
	.st11{fill:url(#패스_39028_00000109728610448288350460000007769378974984839073_);}
	.st12{fill:url(#패스_39029_00000029042885293624023490000000734342152270328241_);}
	.st13{fill:url(#패스_39030_00000014600038556713498320000006933753584220117401_);}
	.st14{fill:url(#패스_39031_00000041987808188597345780000003520608937601209231_);}
	.st15{fill:url(#패스_39028_00000180348346086025894990000007661990776261065655_);}
	.st16{fill:url(#패스_39029_00000074410962936514579480000010723058199967246000_);}
	.st17{fill:url(#패스_39030_00000112598898203791318430000014906916827218159528_);}
	.st18{fill:url(#패스_39031_00000089543218133030208540000002004893991094466692_);}
	.st19{fill:url(#패스_39028_00000029731678189197015360000001825940404521413016_);}
	.st20{fill:url(#패스_39029_00000159435112978501745520000004140409432239872951_);}
	.st21{fill:url(#패스_39030_00000058553101134806043700000001572038133067470468_);}
	.st22{fill:url(#패스_39031_00000025429277943357998280000002193518437444536746_);}
	.st23{fill:none;}
</style>
<g>
	<path d="M21.67,7.02l-2-0.29l-1.45-0.21l-0.65-1.31l-0.72-1.46l-0.08-0.16L16.6,3.56l-1.61-0.23l-1.44-0.21L12.9,1.81L12,0
		l-0.89,1.81l-0.65,1.3L9.02,3.33L7.4,3.56L7.23,3.59L7.15,3.75L6.43,5.21l-0.65,1.3L4.34,6.72l-2.01,0.3l1.45,1.41l1.04,1.02
		l-0.24,1.44l-0.27,1.6l-0.03,0.17l0.13,0.13l1.16,1.14l1.04,1.02l-0.25,1.44l-0.34,1.99l1.79-0.94l1.29-0.68l1.3,0.68l1.44,0.76
		l0.15,0.08l0.17-0.09l1.44-0.75l1.29-0.67l1.29,0.67l1.79,0.95l-0.34-2l-0.24-1.43l1.04-1.03l1.16-1.13l0.13-0.13l-0.03-0.18
		l-0.27-1.6l-0.24-1.44l1.04-1.01L21.67,7.02z M15.54,5.03l0.64-0.63l-0.4,0.81l-0.64,1.31L14.59,6.6L14.5,6.05L15.54,5.03z
		 M10.64,12.02l-0.59-1.21V10.8l-0.01-0.01L9.81,9.44l0.97-0.93L12,7.86l1.21,0.64l0.98,0.95l-0.23,1.33l-0.61,1.24L12,12.22
		L10.64,12.02z M9.51,6.05L9.42,6.6H9.41L8.86,6.52L8.22,5.21l-0.4-0.8l0.64,0.62L9.51,6.05z M7.56,12.02l-1.44,0.21l-0.89,0.13
		l0.8-0.42l1.29-0.68l0.49,0.26L7.56,12.02z M12.15,16.39L12,17.27l-0.15-0.88l-0.25-1.44l0.4-0.39l0.4,0.39L12.15,16.39z
		 M17.87,12.23l-1.44-0.21l-0.24-0.5l0.49-0.26l1.29,0.68l0.79,0.42L17.87,12.23z"/>
	<g id="그룹_14713_00000026858368684316809890000003530032459744331692_" transform="translate(-12 -6)">
		<path id="패스_39023_00000100343897697176919480000015305575936532435642_" class="st0" d="M24,11.13l-1.42,0.57l-1.42-1.38
			L24,11.13z"/>
		<path id="패스_39024_00000174571809310289944110000002665815778647252906_" class="st1" d="M22.25,13.65L24,11.13v1.59
			L22.25,13.65z"/>
		<path id="패스_39025_00000108999749471825555270000007416298064256589237_" class="st2" d="M24,8.25l0.88,1.78L24,11.13V8.25z"
			/>
		<path id="패스_39026_00000034769643357081446600000003286621318415042489_" class="st2" d="M26.84,10.32L24,11.13l1.42,0.57
			L26.84,10.32z"/>
		<path id="패스_39027_00000111189504473124619710000000418370166438588333_" class="st0" d="M25.76,13.65L24,11.13v1.59
			L25.76,13.65z"/>
		<g id="그룹_14712_00000178924205925667608420000013220117927483648940_">
			
				<linearGradient id="패스_39028_00000079466890182606653050000015934638855891320490_" gradientUnits="userSpaceOnUse" x1="82.029" y1="-66.6401" x2="82.704" y2="-66.6401" gradientTransform="matrix(4.21 0 0 -4.27 -324.18 -274.86)">
				<stop  offset="0" style="stop-color:#FFDD37"/>
				<stop  offset="1" style="stop-color:#FFFFAE"/>
			</linearGradient>
			
				<path id="패스_39028_00000003793342943561308490000012493912388721104521_" style="fill:url(#패스_39028_00000079466890182606653050000015934638855891320490_);" d="
				M23.13,10.03l-1.96,0.29L24,11.13V8.25L23.13,10.03z"/>
			<g id="그룹_14711_00000103969428309077815500000003701980774234075564_">
				
					<linearGradient id="패스_39029_00000170960280822324869270000015663212775597687726_" gradientUnits="userSpaceOnUse" x1="81.8693" y1="-220.5555" x2="82.545" y2="-220.5555" gradientTransform="matrix(4.2 0 0 -1.64 -319.85 -351.13)">
					<stop  offset="0" style="stop-color:#FFA300"/>
					<stop  offset="1" style="stop-color:#FFFF6A"/>
				</linearGradient>
				
					<path id="패스_39029_00000162311779711480599100000015215755270341990544_" style="fill:url(#패스_39029_00000170960280822324869270000015663212775597687726_);" d="
					M24.88,10.03L24,11.13l2.83-0.82L24.88,10.03z"/>
				
					<linearGradient id="패스_39030_00000164502409816732197610000015774598695250062522_" gradientUnits="userSpaceOnUse" x1="124.8655" y1="-80.2101" x2="125.5405" y2="-80.2101" gradientTransform="matrix(2.6 0 0 -3.73 -300.65 -286.79)">
					<stop  offset="0" style="stop-color:#FFA300"/>
					<stop  offset="1" style="stop-color:#FFFF6A"/>
				</linearGradient>
				
					<path id="패스_39030_00000127016646306208621100000009219863879464162962_" style="fill:url(#패스_39030_00000164502409816732197610000015774598695250062522_);" d="
					M24,11.13l1.75,2.52l-0.34-1.95L24,11.13z"/>
				
					<linearGradient id="패스_39031_00000015343686956550103760000004050703309440463491_" gradientUnits="userSpaceOnUse" x1="125.1912" y1="-80.2101" x2="125.8662" y2="-80.2101" gradientTransform="matrix(2.6 0 0 -3.73 -303.25 -286.79)">
					<stop  offset="0" style="stop-color:#FFA300"/>
					<stop  offset="1" style="stop-color:#FFFF6A"/>
				</linearGradient>
				
					<path id="패스_39031_00000119814337846405688400000008034566382622310531_" style="fill:url(#패스_39031_00000015343686956550103760000004050703309440463491_);" d="
					M22.25,13.65L24,11.13l-1.42,0.57L22.25,13.65z"/>
			</g>
		</g>
	</g>
	<g id="그룹_14713_00000170261787240083174260000007976246369197425085_" transform="translate(-12 -6)">
		<path id="패스_39023_00000006683458363899696430000001538988873636616624_" class="st0" d="M19.22,14.6l0.1,1.53l-1.75,0.92
			L19.22,14.6z"/>
		<path id="패스_39024_00000127751444030902518260000014953261359184105352_" class="st1" d="M21.07,17.05l-1.85-2.45l1.52,0.49
			L21.07,17.05z"/>
		<path id="패스_39025_00000039091693449100876180000014749382673125500818_" class="st2" d="M16.48,13.71l1.96-0.29l0.78,1.18
			L16.48,13.71z"/>
		<path id="패스_39026_00000090998861551935698700000012882837631889967280_" class="st2" d="M19.32,11.65l-0.1,2.95l0.98-1.17
			L19.32,11.65z"/>
		<path id="패스_39027_00000096035620731977004640000002944365709731321220_" class="st0" d="M22.16,13.71l-2.94,0.89l1.52,0.49
			L22.16,13.71z"/>
		<g id="그룹_14712_00000085216814854023116700000008876941269611578037_">
			
				<linearGradient id="패스_39028_00000166661375183788778920000016402175615074448049_" gradientUnits="userSpaceOnUse" x1="81.5938" y1="-66.6687" x2="82.2688" y2="-66.6687" gradientTransform="matrix(1.301 -4.0039 -4.061 -1.3195 -359.9195 255.5884)">
				<stop  offset="0" style="stop-color:#FFDD37"/>
				<stop  offset="1" style="stop-color:#FFFFAE"/>
			</linearGradient>
			
				<path id="패스_39028_00000049920962938240486440000015952114702085378439_" style="fill:url(#패스_39028_00000166661375183788778920000016402175615074448049_);" d="
				M17.9,15.1l-0.33,1.96l1.65-2.45l-2.74-0.89L17.9,15.1z"/>
			<g id="그룹_14711_00000041262426404603114170000010872230646647381136_">
				
					<linearGradient id="패스_39029_00000058567580043196249320000010190291847667292601_" gradientUnits="userSpaceOnUse" x1="81.4331" y1="-220.6298" x2="82.1087" y2="-220.6298" gradientTransform="matrix(1.2979 -3.9944 -1.5597 -0.5068 -431.1186 227.9016)">
					<stop  offset="0" style="stop-color:#FFA300"/>
					<stop  offset="1" style="stop-color:#FFFF6A"/>
				</linearGradient>
				
					<path id="패스_39029_00000092416040239931901080000005688580739133541505_" style="fill:url(#패스_39029_00000058567580043196249320000010190291847667292601_);" d="
					M18.44,13.43l0.78,1.18l0.1-2.95L18.44,13.43z"/>
				
					<linearGradient id="패스_39030_00000024703948305351676700000012613684953779471542_" gradientUnits="userSpaceOnUse" x1="124.1608" y1="-80.2427" x2="124.8358" y2="-80.2427" gradientTransform="matrix(0.8034 -2.4727 -3.5474 -1.1526 -363.9945 229.5235)">
					<stop  offset="0" style="stop-color:#FFA300"/>
					<stop  offset="1" style="stop-color:#FFFF6A"/>
				</linearGradient>
				
					<path id="패스_39030_00000138568102899740825170000012001265137983208337_" style="fill:url(#패스_39030_00000024703948305351676700000012613684953779471542_);" d="
					M19.22,14.6l2.94-0.89l-1.96-0.28L19.22,14.6z"/>
				
					<linearGradient id="패스_39031_00000084526056709834062500000008304024513118118591_" gradientUnits="userSpaceOnUse" x1="124.4865" y1="-80.2427" x2="125.1615" y2="-80.2427" gradientTransform="matrix(0.8034 -2.4727 -3.5474 -1.1526 -364.7979 231.9962)">
					<stop  offset="0" style="stop-color:#FFA300"/>
					<stop  offset="1" style="stop-color:#FFFF6A"/>
				</linearGradient>
				
					<path id="패스_39031_00000165230584507465555030000016223726671741416339_" style="fill:url(#패스_39031_00000084526056709834062500000008304024513118118591_);" d="
					M21.07,17.05l-1.85-2.45l0.1,1.53L21.07,17.05z"/>
			</g>
		</g>
	</g>
	<g id="그룹_14713_00000123439942529283483580000006910574169928404659_" transform="translate(-12 -6)">
		<path id="패스_39023_00000147901651822722506910000012138933714954502272_" class="st0" d="M21.04,20.22l1.49,0.38l0.33,1.95
			L21.04,20.22z"/>
		<path id="패스_39024_00000026142789470832334790000001340640393326644369_" class="st1" d="M23.94,19.22l-2.9,1.01l0.94-1.29
			L23.94,19.22z"/>
		<path id="패스_39025_00000106129855114207144100000004039325902659937690_" class="st2" d="M19.35,22.55l0.33-1.95l1.36-0.38
			L19.35,22.55z"/>
		<path id="패스_39026_00000114042314883776882110000003597834216208958856_" class="st2" d="M18.27,19.22l2.77,1.01l-0.81-1.29
			L18.27,19.22z"/>
		<path id="패스_39027_00000057125049141276521460000015732839768106574231_" class="st0" d="M21.1,17.15l-0.06,3.07l0.94-1.29
			L21.1,17.15z"/>
		<g id="그룹_14712_00000078741692453678656570000008532312285761042360_">
			
				<linearGradient id="패스_39028_00000108274679536907494710000002546108279405209229_" gradientUnits="userSpaceOnUse" x1="81.4318" y1="-66.2694" x2="82.1068" y2="-66.2694" gradientTransform="matrix(-3.406 -2.4746 -2.5098 3.4545 133.5227 453.4962)">
				<stop  offset="0" style="stop-color:#FFDD37"/>
				<stop  offset="1" style="stop-color:#FFFFAE"/>
			</linearGradient>
			
				<path id="패스_39028_00000091717016171231758620000001064374454534979767_" style="fill:url(#패스_39028_00000108274679536907494710000002546108279405209229_);" d="
				M21.1,21.63l1.76,0.92l-1.82-2.33l-1.69,2.33L21.1,21.63z"/>
			<g id="그룹_14711_00000147912394925957528450000012246022708759413924_">
				
					<linearGradient id="패스_39029_00000051380139446891899290000003403536664145436076_" gradientUnits="userSpaceOnUse" x1="81.2706" y1="-219.5902" x2="81.9463" y2="-219.5902" gradientTransform="matrix(-3.3979 -2.4687 -0.964 1.3268 85.1893 512.6548)">
					<stop  offset="0" style="stop-color:#FFA300"/>
					<stop  offset="1" style="stop-color:#FFFF6A"/>
				</linearGradient>
				
					<path id="패스_39029_00000023279648685918774150000011502933373489191075_" style="fill:url(#패스_39029_00000051380139446891899290000003403536664145436076_);" d="
					M19.68,20.6l1.36-0.38l-2.77-1.01L19.68,20.6z"/>
				
					<linearGradient id="패스_39030_00000136399368828931261400000015263446217978294666_" gradientUnits="userSpaceOnUse" x1="123.8984" y1="-79.7856" x2="124.5734" y2="-79.7856" gradientTransform="matrix(-2.1034 -1.5282 -2.1924 3.0176 107.4743 449.3173)">
					<stop  offset="0" style="stop-color:#FFA300"/>
					<stop  offset="1" style="stop-color:#FFFF6A"/>
				</linearGradient>
				
					<path id="패스_39030_00000080885676959122482560000000648653415705774757_" style="fill:url(#패스_39030_00000136399368828931261400000015263446217978294666_);" d="
					M21.04,20.22l0.06-3.07l-0.87,1.78L21.04,20.22z"/>
				
					<linearGradient id="패스_39031_00000176021330457275979900000012366826601693280385_" gradientUnits="userSpaceOnUse" x1="124.2241" y1="-79.7856" x2="124.8991" y2="-79.7856" gradientTransform="matrix(-2.1034 -1.5282 -2.1924 3.0176 109.5777 450.8455)">
					<stop  offset="0" style="stop-color:#FFA300"/>
					<stop  offset="1" style="stop-color:#FFFF6A"/>
				</linearGradient>
				
					<path id="패스_39031_00000152961702958865191580000004062031953330473393_" style="fill:url(#패스_39031_00000176021330457275979900000012366826601693280385_);" d="
					M23.94,19.22l-2.9,1.01l1.49,0.38L23.94,19.22z"/>
			</g>
		</g>
	</g>
	<g id="그룹_14713_00000123406822725048384590000008055601535773866893_" transform="translate(-12 -6)">
		<path id="패스_39023_00000039103551312903676170000015510326913641935019_" class="st0" d="M26.95,20.23l0.82-1.3l1.96,0.29
			L26.95,20.23z"/>
		<path id="패스_39024_00000029037877537704818400000002942369261438810517_" class="st1" d="M26.89,17.16l0.06,3.07l-0.94-1.29
			L26.89,17.16z"/>
		<path id="패스_39025_00000021841055888661414950000006264209145344458902_" class="st2" d="M28.64,22.56l-1.75-0.92l0.06-1.41
			L28.64,22.56z"/>
		<path id="패스_39026_00000072282451245465563150000008769769872847019963_" class="st2" d="M25.14,22.55l1.81-2.33l-1.48,0.37
			L25.14,22.55z"/>
		<path id="패스_39027_00000157288887131620291310000014649574300235724209_" class="st0" d="M24.05,19.22l2.9,1.01l-0.94-1.29
			L24.05,19.22z"/>
		<g id="그룹_14712_00000014624566057963739490000004866915429456947368_">
			
				<linearGradient id="패스_39028_00000128479617630972992260000011994698325161014206_" gradientUnits="userSpaceOnUse" x1="81.7669" y1="-65.9941" x2="82.4419" y2="-65.9941" gradientTransform="matrix(-3.406 2.4746 2.5098 3.4545 474.2263 45.3617)">
				<stop  offset="0" style="stop-color:#FFDD37"/>
				<stop  offset="1" style="stop-color:#FFFFAE"/>
			</linearGradient>
			
				<path id="패스_39028_00000035526666354133552790000003320472627273062079_" style="fill:url(#패스_39028_00000128479617630972992260000011994698325161014206_);" d="
				M28.31,20.61l1.42-1.39l-2.78,1.01l1.69,2.33L28.31,20.61z"/>
			<g id="그룹_14711_00000105411040796906125360000017008776664481249724_">
				
					<linearGradient id="패스_39029_00000044139561514744786090000004014998591954003849_" gradientUnits="userSpaceOnUse" x1="81.6065" y1="-218.8734" x2="82.2822" y2="-218.8734" gradientTransform="matrix(-3.3979 2.4687 0.964 1.3268 515.5536 109.6105)">
					<stop  offset="0" style="stop-color:#FFA300"/>
					<stop  offset="1" style="stop-color:#FFFF6A"/>
				</linearGradient>
				
					<path id="패스_39029_00000070093872176312623230000011740261786070543233_" style="fill:url(#패스_39029_00000044139561514744786090000004014998591954003849_);" d="
					M26.89,21.64l0.06-1.41l-1.81,2.33L26.89,21.64z"/>
				
					<linearGradient id="패스_39030_00000020385175753207038700000000087238897226018743_" gradientUnits="userSpaceOnUse" x1="124.441" y1="-79.4705" x2="125.116" y2="-79.4705" gradientTransform="matrix(-2.1034 1.5282 2.1924 3.0176 462.2025 68.8439)">
					<stop  offset="0" style="stop-color:#FFA300"/>
					<stop  offset="1" style="stop-color:#FFFF6A"/>
				</linearGradient>
				
					<path id="패스_39030_00000001640994657566723830000002705028599160445592_" style="fill:url(#패스_39030_00000020385175753207038700000000087238897226018743_);" d="
					M26.95,20.23l-2.9-1.01l1.42,1.38L26.95,20.23z"/>
				
					<linearGradient id="패스_39031_00000024698674514025790460000003658367417003766965_" gradientUnits="userSpaceOnUse" x1="124.7667" y1="-79.4705" x2="125.4417" y2="-79.4705" gradientTransform="matrix(-2.1034 1.5282 2.1924 3.0176 464.3059 67.3156)">
					<stop  offset="0" style="stop-color:#FFA300"/>
					<stop  offset="1" style="stop-color:#FFFF6A"/>
				</linearGradient>
				
					<path id="패스_39031_00000044158144159277030230000018325973756019981488_" style="fill:url(#패스_39031_00000024698674514025790460000003658367417003766965_);" d="
					M26.89,17.16l0.06,3.07l0.82-1.3L26.89,17.16z"/>
			</g>
		</g>
	</g>
	<g id="그룹_14713_00000139274104593182509690000016884745883252669109_" transform="translate(-12 -6)">
		<path id="패스_39023_00000052094417962735872710000015450136211950544566_" class="st0" d="M28.78,14.61l-0.98-1.18l0.88-1.78
			L28.78,14.61z"/>
		<path id="패스_39024_00000116937446134898629030000014848744629394572430_" class="st1" d="M25.84,13.72l2.94,0.89l-1.52,0.49
			L25.84,13.72z"/>
		<path id="패스_39025_00000121991266838134097660000004692721655815059345_" class="st2" d="M31.52,13.72L30.1,15.1l-1.32-0.49
			L31.52,13.72z"/>
		<path id="패스_39026_00000023248238821716104730000014955244795819909820_" class="st2" d="M30.43,17.05l-1.65-2.44l-0.1,1.52
			L30.43,17.05z"/>
		<path id="패스_39027_00000065047659380448694940000016332360826551325588_" class="st0" d="M26.93,17.06l1.85-2.45l-1.52,0.49
			L26.93,17.06z"/>
		<g id="그룹_14712_00000065766715980505790440000000987505379680647591_">
			
				<linearGradient id="패스_39028_00000077313486679414975030000006771584658753698203_" gradientUnits="userSpaceOnUse" x1="82.136" y1="-66.2232" x2="82.811" y2="-66.2232" gradientTransform="matrix(1.301 4.0039 4.061 -1.3195 191.3505 -404.7872)">
				<stop  offset="0" style="stop-color:#FFDD37"/>
				<stop  offset="1" style="stop-color:#FFFFAE"/>
			</linearGradient>
			
				<path id="패스_39028_00000085962864494474153210000008024448515163225010_" style="fill:url(#패스_39028_00000077313486679414975030000006771584658753698203_);" d="
				M29.56,13.43l-0.88-1.78l0.1,2.96l2.74-0.89L29.56,13.43z"/>
			<g id="그룹_14711_00000127042302483391008470000000891002571529438898_">
				
					<linearGradient id="패스_39029_00000071532202919811178490000000520244224209358521_" gradientUnits="userSpaceOnUse" x1="81.9765" y1="-219.47" x2="82.6522" y2="-219.47" gradientTransform="matrix(1.2979 3.9944 1.5597 -0.5068 265.2256 -424.2379)">
					<stop  offset="0" style="stop-color:#FFA300"/>
					<stop  offset="1" style="stop-color:#FFFF6A"/>
				</linearGradient>
				
					<path id="패스_39029_00000152264827074279763610000009195374692354174624_" style="fill:url(#패스_39029_00000071532202919811178490000000520244224209358521_);" d="
					M30.1,15.1l-1.32-0.49l1.65,2.44L30.1,15.1z"/>
				
					<linearGradient id="패스_39030_00000169528752817593437230000000412219762572827544_" gradientUnits="userSpaceOnUse" x1="125.0387" y1="-79.7328" x2="125.7137" y2="-79.7328" gradientTransform="matrix(0.8034 2.4727 3.5474 -1.1526 209.9678 -386.0955)">
					<stop  offset="0" style="stop-color:#FFA300"/>
					<stop  offset="1" style="stop-color:#FFFF6A"/>
				</linearGradient>
				
					<path id="패스_39030_00000086682502355155932860000007012009724567762576_" style="fill:url(#패스_39030_00000169528752817593437230000000412219762572827544_);" d="
					M28.78,14.61l-1.85,2.45l1.75-0.92L28.78,14.61z"/>
				
					<linearGradient id="패스_39031_00000013153538119683648710000002616689760277750930_" gradientUnits="userSpaceOnUse" x1="125.3644" y1="-79.7328" x2="126.0394" y2="-79.7328" gradientTransform="matrix(0.8034 2.4727 3.5474 -1.1526 209.1644 -388.5682)">
					<stop  offset="0" style="stop-color:#FFA300"/>
					<stop  offset="1" style="stop-color:#FFFF6A"/>
				</linearGradient>
				
					<path id="패스_39031_00000064347385526723252220000001877015989205873329_" style="fill:url(#패스_39031_00000013153538119683648710000002616689760277750930_);" d="
					M25.84,13.72l2.94,0.89l-0.98-1.18L25.84,13.72z"/>
			</g>
		</g>
	</g>
</g>
<rect class="st23" width="24" height="24"/>
</svg>
