<?xml version="1.0" encoding="utf-8"?>
<!-- Generator: Adobe Illustrator 28.2.0, SVG Export Plug-In . SVG Version: 6.00 Build 0)  -->
<svg version="1.1" id="Layer_1" xmlns="http://www.w3.org/2000/svg" xmlns:xlink="http://www.w3.org/1999/xlink" x="0px" y="0px"
	 viewBox="0 0 24 24" style="enable-background:new 0 0 24 24;" xml:space="preserve">
<style type="text/css">
	.st0{fill:url(#SVGID_1_);}
	.st1{fill:#2E2E29;}
	.st2{fill:#22221E;}
	.st3{fill:#FFFFFF;}
</style>
<radialGradient id="SVGID_1_" cx="12" cy="3.26" r="7.3634" gradientTransform="matrix(1 0 0 -1 0 24)" gradientUnits="userSpaceOnUse">
	<stop  offset="0" style="stop-color:#EDE0CE"/>
	<stop  offset="1" style="stop-color:#ECCBA5"/>
</radialGradient>
<path class="st0" d="M21.89,17.48C20.64,21.29,17.8,24,13.5,24h-3c-4.3,0-7.14-2.71-8.39-6.52C4.27,18.4,7.89,19,12,19
	S19.73,18.4,21.89,17.48z"/>
<path class="st1" d="M14.4,22.2H9.6c-0.33,0-0.6-0.27-0.6-0.6l0,0C9,21.27,9.27,21,9.6,21h4.8c0.33,0,0.6,0.27,0.6,0.6l0,0
	C15,21.93,14.73,22.2,14.4,22.2z"/>
<path class="st2" d="M22.99,14.1c0-0.03,0.01-0.06,0.01-0.1v-3c0-6.08-4.92-11-11-11S1,4.92,1,11v3c0,0.03,0.01,0.06,0.01,0.1
	C0.36,14.53,0,15,0,15.5C0,17.43,5.37,19,12,19s12-1.57,12-3.5C24,15,23.64,14.53,22.99,14.1z"/>
<g>
	<polygon class="st3" points="9.19,5.66 7.35,5.66 7.35,5 5.89,5 5.89,5.66 4,5.66 4,6.75 9.19,6.75 	"/>
	<polygon class="st3" points="9.15,8.81 9.91,8.81 9.91,10.9 11.36,10.9 11.36,5.23 9.91,5.23 9.91,7.63 9.15,7.63 	"/>
	<polygon class="st3" points="11.44,11.74 6.43,11.74 6.43,10.48 4.98,10.48 4.98,12.91 11.44,12.91 	"/>
	<path class="st3" d="M7.25,10.08c1.06,0,1.73-0.56,1.73-1.53c0-0.97-0.67-1.53-1.73-1.53H5.97c-1.05,0-1.74,0.56-1.74,1.53
		c0,0.97,0.69,1.53,1.74,1.53H7.25z M5.63,8.68c-0.01-0.04-0.01-0.08,0-0.13c0-0.31,0.15-0.47,0.49-0.47H7.1
		c0.34,0,0.5,0.16,0.5,0.47C7.63,8.79,7.46,9,7.22,9.03c-0.04,0-0.08,0-0.12,0H6.12C5.89,9.07,5.67,8.91,5.63,8.68z"/>
	<path class="st3" d="M17.34,8.91h1.04v0.8h1.46V5.23h-1.46v0.75h-1.04V5.35h-1.45v0.98h-1.72V5.35h-1.44V9.5h4.61V8.91z
		 M17.34,7.13h1.04v0.63h-1.04V7.13z M15.89,8.36h-1.72V7.43h1.72V8.36z"/>
	<path class="st3" d="M18.24,9.91h-3.37c-1.18,0-1.76,0.61-1.76,1.55S13.69,13,14.87,13h3.37c1.18,0,1.76-0.61,1.76-1.54
		S19.42,9.91,18.24,9.91z M18.06,11.86h-3.02c-0.34,0-0.5-0.13-0.5-0.4s0.16-0.4,0.5-0.4h3.02c0.36,0,0.5,0.13,0.5,0.4
		S18.42,11.86,18.06,11.86z"/>
	<rect x="4" y="14.4" class="st3" width="16" height="1.2"/>
	<path class="st3" d="M22.82,9H21v4h2v-2C23,10.32,22.94,9.65,22.82,9z"/>
	<path class="st3" d="M1,11v2h2V9H1.18C1.06,9.65,1,10.32,1,11z"/>
</g>
</svg>
