<svg xmlns="http://www.w3.org/2000/svg" width="18" height="18" viewBox="0 0 18 18">
  <g id="그룹_22335" data-name="그룹 22335" transform="translate(-322 -184)">
    <path id="패스_48159" data-name="패스 48159" d="M87.807,20.182h-12a3,3,0,0,1-3-3v-12a3,3,0,0,1,3-3h12a3,3,0,0,1,3,3v12a3,3,0,0,1-3,3" transform="translate(249.193 181.818)" fill="#71717a"/>
    <path id="패스_48160" data-name="패스 48160" d="M78.534,5.727h2.182v1.6H78.534Zm0,1.6h2.182v1.6H78.534Zm0,1.6h2.182v1.6H78.534Zm0,3.2h2.182v1.6H78.534Zm2.182-6.4H82.9v1.6H80.716Zm0,3.2H82.9v1.6H80.716Zm0,3.2H82.9v1.6H80.716Zm2.182-6.4h2.183v1.6H82.9Zm0,3.2h2.183v1.6H82.9Zm0,1.6h2.183v1.6H82.9Zm0,1.6h2.183v1.6H82.9Z" transform="translate(249.193 183.273)" fill="#fff"/>
  </g>
</svg>
