<svg xmlns="http://www.w3.org/2000/svg" width="18" height="18" viewBox="0 0 18 18">
  <g id="그룹_22334" data-name="그룹 22334" transform="translate(-341 -184)">
    <path id="패스_48161" data-name="패스 48161" d="M111.757,21.273h-12a3,3,0,0,1-3-3v-12a3,3,0,0,1,3-3h12a3,3,0,0,1,3,3v12a3,3,0,0,1-3,3" transform="translate(244.243 180.727)" fill="#61616b"/>
    <path id="패스_48162" data-name="패스 48162" d="M102.484,6.818h2.182v1.6h-2.182Zm0,1.6h2.182v1.6h-2.182Zm0,1.6h2.182v1.6h-2.182Zm0,1.6h2.182v1.6h-2.182Zm0,1.6h2.182v1.6h-2.182Zm2.182-6.4h2.182v1.6h-2.182Zm0,3.2h2.182v1.6h-2.182Zm0,3.2h2.182v1.6h-2.182Zm2.182-6.4h2.183v1.6h-2.183Zm0,3.2h2.183v1.6h-2.183Zm0,1.6h2.183v1.6h-2.183Zm0,1.6h2.183v1.6h-2.183Z" transform="translate(244.243 182.182)" fill="#fff"/>
  </g>
</svg>
