<svg xmlns="http://www.w3.org/2000/svg" width="18" height="18" viewBox="0 0 18 18">
  <g id="그룹_22333" data-name="그룹 22333" transform="translate(-360 -184)">
    <path id="패스_48143" data-name="패스 48143" d="M135.079,21.273h-12a3,3,0,0,1-3-3v-12a3,3,0,0,1,3-3h12a3,3,0,0,1,3,3v12a3,3,0,0,1-3,3" transform="translate(239.921 180.727)" fill="#52525b"/>
    <path id="패스_48144" data-name="패스 48144" d="M125.806,6.818h2.182v1.6h-2.182Zm2.182,0h2.182v1.6h-2.182Zm0,4.8h2.182v1.6h-2.182Zm0,1.6h2.182v1.6h-2.182Zm2.181-6.4h2.183v1.6h-2.183Zm0,1.6h2.183v1.6h-2.183Zm0,1.6h2.183v1.6h-2.183Z" transform="translate(239.921 182.182)" fill="#fff"/>
  </g>
</svg>
