<?xml version="1.0" encoding="utf-8"?>
<!-- Generator: Adobe Illustrator 28.2.0, SVG Export Plug-In . SVG Version: 6.00 Build 0)  -->
<svg version="1.1" id="Layer_1" xmlns="http://www.w3.org/2000/svg" xmlns:xlink="http://www.w3.org/1999/xlink" x="0px" y="0px"
	 viewBox="0 0 24 24" style="enable-background:new 0 0 24 24;" xml:space="preserve">
<style type="text/css">
	.st0{fill:#EFD60A;}
	.st1{fill:none;}
</style>
<polygon points="16.99,8.66 16.23,9.11 12,11.65 7.77,9.11 7.01,8.66 5.5,7.75 5.5,9.52 5.5,10.4 5.5,10.9 5.5,11.18 5.5,11.75 
	5.99,12.04 6.23,12.19 11.23,15.19 11.49,15.34 12,15.65 12.51,15.34 12.77,15.19 17.77,12.19 18.01,12.04 18.5,11.75 18.5,11.18 
	18.5,10.9 18.5,10.4 18.5,9.52 18.5,7.75 "/>
<path class="st0" d="M12,14.48l-0.26-0.15l-5-3L6.5,11.18V10.9v-0.5V9.52l0.76,0.45L12,12.82l4.74-2.85l0.76-0.45v0.88v0.5v0.28
	l-0.24,0.15l-5,3L12,14.48z"/>
<rect class="st1" width="24" height="24"/>
</svg>
