<?xml version="1.0" encoding="utf-8"?>
<!-- Generator: Adobe Illustrator 28.2.0, SVG Export Plug-In . SVG Version: 6.00 Build 0)  -->
<svg version="1.1" id="Layer_1" xmlns="http://www.w3.org/2000/svg" xmlns:xlink="http://www.w3.org/1999/xlink" x="0px" y="0px"
	 viewBox="0 0 24 24" style="enable-background:new 0 0 24 24;" xml:space="preserve">
<style type="text/css">
	.st0{fill:none;}
	.st1{fill:#EFD60A;}
</style>
<polygon points="16.99,5.82 16.23,6.28 12,8.82 7.77,6.28 7.02,5.82 5.5,4.92 5.5,6.68 5.5,7.57 5.5,7.75 5.5,7.75 5.5,9.52 
	5.5,10.4 5.5,10.9 5.5,11.18 5.5,11.75 5.99,12.04 6.23,12.19 11.23,15.19 11.49,15.34 12,15.65 12.51,15.34 12.77,15.19 
	17.77,12.19 18.01,12.04 18.5,11.75 18.5,11.18 18.5,10.9 18.5,10.4 18.5,9.52 18.5,8.92 18.5,8.91 18.5,8.35 18.5,8.07 18.5,7.57 
	18.5,6.68 18.5,4.92 "/>
<rect class="st0" width="24" height="24"/>
<g>
	<polygon class="st1" points="12,12.82 7.26,9.97 6.5,9.52 6.5,10.4 6.5,10.9 6.5,11.18 6.74,11.33 11.74,14.33 12,14.48 
		12.26,14.33 17.26,11.33 17.5,11.18 17.5,10.9 17.5,10.4 17.5,9.52 16.74,9.97 	"/>
	<polygon class="st1" points="16.74,7.14 12,9.98 7.26,7.14 6.5,6.68 6.5,7.57 6.5,8.07 6.5,8.35 6.74,8.49 11.74,11.49 12,11.65 
		12.26,11.49 17.26,8.49 17.5,8.35 17.5,8.07 17.5,7.57 17.5,6.68 	"/>
</g>
</svg>
