<svg xmlns="http://www.w3.org/2000/svg" width="18" height="18" viewBox="0 0 18 18">
  <g id="그룹_22332" data-name="그룹 22332" transform="translate(-379 -184)">
    <path id="패스_48145" data-name="패스 48145" d="M160.083,21.273h-12a3,3,0,0,1-3-3v-12a3,3,0,0,1,3-3h12a3,3,0,0,1,3,3v12a3,3,0,0,1-3,3" transform="translate(233.917 180.727)" fill="#3f3f46"/>
    <path id="패스_48146" data-name="패스 48146" d="M150.81,6.818h2.182v1.6H150.81Zm0,1.6h2.182v1.6H150.81Zm0,1.6h2.182v1.6H150.81Zm0,1.6h2.182v1.6H150.81Zm0,1.6h2.182v1.6H150.81Zm2.182-6.4h2.182v1.6h-2.182Zm0,3.2h2.182v1.6h-2.182Zm0,3.2h2.182v1.6h-2.182Zm2.182-6.4h2.183v1.6h-2.183Zm0,1.6h2.183v1.6h-2.183Zm0,1.6h2.183v1.6h-2.183Zm0,1.6h2.183v1.6h-2.183Zm0,1.6h2.183v1.6h-2.183Z" transform="translate(233.917 182.182)" fill="#fff"/>
  </g>
</svg>
