<svg xmlns="http://www.w3.org/2000/svg" width="18" height="18" viewBox="0 0 18 18">
  <g id="그룹_22331" data-name="그룹 22331" transform="translate(-398 -184)">
    <path id="패스_48147" data-name="패스 48147" d="M51.5,51.192h-12a3,3,0,0,1-3-3v-12a3,3,0,0,1,3-3h12a3,3,0,0,1,3,3v12a3,3,0,0,1-3,3" transform="translate(361.503 150.808)" fill="#27272a"/>
    <path id="패스_48148" data-name="패스 48148" d="M42.224,36.737h2.182v1.6H42.224Zm0,1.6h2.182v1.6H42.224Zm0,1.6h2.182v1.6H42.224Zm0,3.2h2.182v1.6H42.224Zm2.181-6.4h2.182v1.6H44.4Zm0,3.2h2.182v1.6H44.4Zm0,3.2h2.182v1.6H44.4Zm2.182-6.4H48.77v1.6H46.587Zm0,1.6H48.77v1.6H46.587Zm0,1.6H48.77v1.6H46.587Zm0,1.6H48.77v1.6H46.587Zm0,1.6H48.77v1.6H46.587Z" transform="translate(361.503 152.263)" fill="#fff"/>
  </g>
</svg>
