<?xml version="1.0" encoding="utf-8"?>
<!-- Generator: Adobe Illustrator 28.2.0, SVG Export Plug-In . SVG Version: 6.00 Build 0)  -->
<svg version="1.1" id="Layer_1" xmlns="http://www.w3.org/2000/svg" xmlns:xlink="http://www.w3.org/1999/xlink" x="0px" y="0px"
	 viewBox="0 0 24 24" style="enable-background:new 0 0 24 24;" xml:space="preserve">
<style type="text/css">
	.st0{fill:none;}
	.st1{fill:#EFD60A;}
</style>
<polygon points="18.5,5.55 18.5,5.36 18.5,4.48 18.5,2.71 16.99,3.62 16.23,4.08 12,6.61 7.77,4.08 7.01,3.62 5.5,2.71 5.5,4.48 
	5.5,5.36 5.5,5.86 5.5,6.15 5.5,6.71 5.5,6.71 5.5,7.32 5.5,8.2 5.5,8.39 5.5,8.39 5.5,10.15 5.5,11.04 5.5,11.54 5.5,11.82 
	5.5,12.39 5.99,12.68 6.23,12.82 11.23,15.82 11.49,15.98 12,16.29 12.51,15.98 12.77,15.82 17.77,12.82 18.01,12.68 18.5,12.39 
	18.5,11.82 18.5,11.54 18.5,11.04 18.5,10.15 18.5,9.55 18.5,9.55 18.5,8.98 18.5,8.7 18.5,8.2 18.5,7.32 18.5,5.55 "/>
<rect class="st0" width="24" height="24"/>
<g>
	<polygon class="st1" points="12,13.45 7.26,10.61 6.5,10.15 6.5,11.04 6.5,11.54 6.5,11.82 6.74,11.97 11.74,14.97 12,15.12 
		12.26,14.97 17.26,11.97 17.5,11.82 17.5,11.54 17.5,11.04 17.5,10.15 16.74,10.61 	"/>
	<polygon class="st1" points="16.74,7.77 12,10.62 7.26,7.77 6.5,7.32 6.5,8.2 6.5,8.7 6.5,8.98 6.74,9.13 11.74,12.13 12,12.29 
		12.26,12.13 17.26,9.13 17.5,8.98 17.5,8.7 17.5,8.2 17.5,7.32 	"/>
	<polygon class="st1" points="11.74,9.29 12,9.45 12.26,9.29 17.26,6.29 17.5,6.15 17.5,5.86 17.5,5.36 17.5,4.48 16.74,4.93 
		12,7.78 7.26,4.93 6.5,4.48 6.5,5.36 6.5,5.86 6.5,6.15 6.74,6.29 	"/>
</g>
</svg>
