<?xml version="1.0" encoding="utf-8"?>
<!-- Generator: Adobe Illustrator 28.2.0, SVG Export Plug-In . SVG Version: 6.00 Build 0)  -->
<svg version="1.1" id="Layer_1" xmlns="http://www.w3.org/2000/svg" xmlns:xlink="http://www.w3.org/1999/xlink" x="0px" y="0px"
	 viewBox="0 0 24 24" style="enable-background:new 0 0 24 24;" xml:space="preserve">
<style type="text/css">
	.st0{fill:url(#SVGID_1_);}
	.st1{fill:#2E2E29;}
	.st2{fill:#4F5238;}
	.st3{fill:none;}
	.st4{fill:#C4B7AB;}
	.st5{fill:#505949;}
	.st6{fill:#474342;}
</style>
<radialGradient id="SVGID_1_" cx="12" cy="20.74" r="7.3634" gradientUnits="userSpaceOnUse">
	<stop  offset="0" style="stop-color:#EDE0CE"/>
	<stop  offset="1" style="stop-color:#ECCBA5"/>
</radialGradient>
<path class="st0" d="M21.89,17.48C20.64,21.29,17.8,24,13.5,24h-3c-4.3,0-7.14-2.71-8.39-6.52C4.27,18.4,7.89,19,12,19
	S19.73,18.4,21.89,17.48z"/>
<path class="st1" d="M14.4,22.2H9.6c-0.33,0-0.6-0.27-0.6-0.6l0,0C9,21.27,9.27,21,9.6,21h4.8c0.33,0,0.6,0.27,0.6,0.6l0,0
	C15,21.93,14.73,22.2,14.4,22.2z"/>
<g>
	<path class="st2" d="M22.99,14.1c0-0.03,0.01-0.06,0.01-0.1v-3c0-6.08-4.92-11-11-11S1,4.92,1,11v3c0,0.03,0.01,0.06,0.01,0.1
		C0.36,14.53,0,15,0,15.5C0,17.43,5.37,19,12,19c6.63,0,12-1.57,12-3.5C24,15,23.64,14.53,22.99,14.1z"/>
	<g>
		<path class="st3" d="M20.41,3.91v0.3h-0.66V3.88h-0.67V3.54h-0.33v0.34h-1.67v1h0.33V4.54h0.34v0.67h-0.34v0.33h0.34v0.67h1.33
			V5.88h0.67v0.66h1.33V6.21h0.33V5.88h0.33C21.37,5.18,20.92,4.51,20.41,3.91z M22.2,6.88h-0.45v0.33h0.58
			C22.29,7.1,22.25,6.99,22.2,6.88z M20.41,3.91c-0.1-0.13-0.21-0.25-0.33-0.37c-0.1-0.11-0.2-0.22-0.31-0.33
			c-0.11-0.11-0.23-0.23-0.35-0.33h-0.01V2.87c-0.42-0.38-0.86-0.73-1.33-1.04v0.38h-0.33v0.33h-0.34v0.67h0.34v0.33h-0.34v0.34
			h-0.33v1h0.33V4.54h0.34v0.67h-0.34v0.33h0.34v0.67h1.33V5.88h0.67v0.66h1.33V6.21h0.33V5.88h0.33
			C21.37,5.18,20.92,4.51,20.41,3.91z M17.41,1.42v0.12h0.21C17.55,1.5,17.48,1.46,17.41,1.42z M22.2,6.88h-0.45v0.33h0.58
			C22.29,7.1,22.25,6.99,22.2,6.88z M20.41,3.91c-0.1-0.13-0.21-0.25-0.33-0.37c-0.1-0.11-0.2-0.22-0.31-0.33
			c-0.11-0.11-0.23-0.23-0.35-0.33h-0.01V2.87c-0.42-0.38-0.86-0.73-1.33-1.04v0.38h-0.33v0.33h-0.34v0.67h0.34v0.33h-0.34v0.34
			h-0.33v1h0.33V4.54h0.34v0.67h-0.34v0.33h0.34v0.67h1.33V5.88h0.67v0.66h1.33V6.21h0.33V5.88h0.33
			C21.37,5.18,20.92,4.51,20.41,3.91z M17.41,1.42v0.12h0.21C17.55,1.5,17.48,1.46,17.41,1.42z M22.2,6.88h-0.45v0.33h0.58
			C22.29,7.1,22.25,6.99,22.2,6.88z M20.41,3.91c-0.1-0.13-0.21-0.25-0.33-0.37c-0.1-0.11-0.2-0.22-0.31-0.33
			c-0.11-0.11-0.23-0.23-0.35-0.33h-0.01V2.87c-0.42-0.38-0.86-0.73-1.33-1.04v0.38h-0.33v0.33h-0.34v0.67h0.34v0.33h-0.34v0.34
			h-0.33v1h0.33V4.54h0.34v0.67h-0.34v0.33h0.34v0.67h1.33V5.88h0.67v0.66h1.33V6.21h0.33V5.88h0.33
			C21.37,5.18,20.92,4.51,20.41,3.91z M17.41,1.42v0.12h0.21C17.55,1.5,17.48,1.46,17.41,1.42z M22.2,6.88h-0.45v0.33h0.58
			C22.29,7.1,22.25,6.99,22.2,6.88z M20.41,3.91c-0.1-0.13-0.21-0.25-0.33-0.37c-0.1-0.11-0.2-0.22-0.31-0.33
			c-0.11-0.11-0.23-0.23-0.35-0.33h-0.01V2.87c-0.42-0.38-0.86-0.73-1.33-1.04v0.38h-0.33v0.33h-0.34v0.67h0.34v0.33h-0.34v0.34
			h-0.33v1h0.33V4.54h0.34v0.67h-0.34v0.33h0.34v0.67h1.33V5.88h0.67v0.66h1.33V6.21h0.33V5.88h0.33
			C21.37,5.18,20.92,4.51,20.41,3.91z M17.41,1.42v0.12h0.21C17.55,1.5,17.48,1.46,17.41,1.42z M22.2,6.88h-0.45v0.33h0.58
			C22.29,7.1,22.25,6.99,22.2,6.88z M20.41,3.91c-0.1-0.13-0.21-0.25-0.33-0.37c-0.1-0.11-0.2-0.22-0.31-0.33
			c-0.11-0.11-0.23-0.23-0.35-0.33h-0.01V2.87c-0.42-0.38-0.86-0.73-1.33-1.04v0.38h-0.33v0.33h-0.34v0.67h0.34v0.33h-0.34v0.34
			h-0.33v1h0.33V4.54h0.34v0.67h-0.34v0.33h0.34v0.67h1.33V5.88h0.67v0.66h1.33V6.21h0.33V5.88h0.33
			C21.37,5.18,20.92,4.51,20.41,3.91z M17.41,1.42v0.12h0.21C17.55,1.5,17.48,1.46,17.41,1.42z M22.2,6.88h-0.45v0.33h0.58
			C22.29,7.1,22.25,6.99,22.2,6.88z M20.41,3.91c-0.1-0.13-0.21-0.25-0.33-0.37c-0.1-0.11-0.2-0.22-0.31-0.33
			c-0.11-0.11-0.23-0.23-0.35-0.33h-0.01V2.87c-0.42-0.38-0.86-0.73-1.33-1.04v0.38h-0.33v0.33h-0.34v0.67h0.34v0.33h-0.34v0.34
			h-0.33v1h0.33V4.54h0.34v0.67h-0.34v0.33h0.34v0.67h1.33V5.88h0.67v0.66h1.33V6.21h0.33V5.88h0.33
			C21.37,5.18,20.92,4.51,20.41,3.91z M17.41,1.42v0.12h0.21C17.55,1.5,17.48,1.46,17.41,1.42z M22.2,6.88h-0.45v0.33h0.58
			C22.29,7.1,22.25,6.99,22.2,6.88z M20.41,3.91c-0.1-0.13-0.21-0.25-0.33-0.37c-0.1-0.11-0.2-0.22-0.31-0.33
			c-0.11-0.11-0.23-0.23-0.35-0.33h-0.01V2.87c-0.42-0.38-0.86-0.73-1.33-1.04v0.38h-0.33v0.33h-0.34v0.67h0.34v0.33h-0.34v0.34
			h-0.33v1h0.33V4.54h0.34v0.67h-0.34v0.33h0.34v0.67h1.33V5.88h0.67v0.66h1.33V6.21h0.33V5.88h0.33
			C21.37,5.18,20.92,4.51,20.41,3.91z M17.41,1.42v0.12h0.21C17.55,1.5,17.48,1.46,17.41,1.42z M22.2,6.88h-0.45v0.33h0.58
			C22.29,7.1,22.25,6.99,22.2,6.88z M20.41,3.91c-0.1-0.13-0.21-0.25-0.33-0.37c-0.1-0.11-0.2-0.22-0.31-0.33
			c-0.11-0.11-0.23-0.23-0.35-0.33h-0.01V2.87c-0.42-0.38-0.86-0.73-1.33-1.04v0.38h-0.33v0.33h-0.34v0.67h0.34v0.33h-0.34v0.34
			h-0.33v1h0.33V4.54h0.34v0.67h-0.34v0.33h0.34v0.67h1.33V5.88h0.67v0.66h1.33V6.21h0.33V5.88h0.33
			C21.37,5.18,20.92,4.51,20.41,3.91z M17.41,1.42v0.12h0.21C17.55,1.5,17.48,1.46,17.41,1.42z M22.2,6.88h-0.45v0.33h0.58
			C22.29,7.1,22.25,6.99,22.2,6.88z M20.41,3.91c-0.1-0.13-0.21-0.25-0.33-0.37c-0.1-0.11-0.2-0.22-0.31-0.33
			c-0.11-0.11-0.23-0.23-0.35-0.33h-0.01V2.87c-0.42-0.38-0.86-0.73-1.33-1.04v0.38h-0.33v0.33h-0.34v0.67h0.34v0.33h-0.34v0.34
			h-0.33v1h0.33V4.54h0.34v0.67h-0.34v0.33h0.34v0.67h1.33V5.88h0.67v0.66h1.33V6.21h0.33V5.88h0.33
			C21.37,5.18,20.92,4.51,20.41,3.91z M17.41,1.42v0.12h0.21C17.55,1.5,17.48,1.46,17.41,1.42z M22.2,6.88h-0.45v0.33h0.58
			C22.29,7.1,22.25,6.99,22.2,6.88z M20.41,3.91c-0.1-0.13-0.21-0.25-0.33-0.37c-0.1-0.11-0.2-0.22-0.31-0.33
			c-0.11-0.11-0.23-0.23-0.35-0.33h-0.01V2.87c-0.42-0.38-0.86-0.73-1.33-1.04v0.38h-0.33v0.33h-0.34v0.67h0.34v0.33h-0.34v0.34
			h-0.33v1h0.33V4.54h0.34v0.67h-0.34v0.33h0.34v0.67h1.33V5.88h0.67v0.66h1.33V6.21h0.33V5.88h0.33
			C21.37,5.18,20.92,4.51,20.41,3.91z M17.41,1.42v0.12h0.21C17.55,1.5,17.48,1.46,17.41,1.42z M22.2,6.88h-0.45v0.33h0.58
			C22.29,7.1,22.25,6.99,22.2,6.88z M20.41,3.91c-0.1-0.13-0.21-0.25-0.33-0.37c-0.1-0.11-0.2-0.22-0.31-0.33
			c-0.11-0.11-0.23-0.23-0.35-0.33h-0.01V2.87c-0.42-0.38-0.86-0.73-1.33-1.04v0.38h-0.33v0.33h-0.34v0.67h0.34v0.33h-0.34v0.34
			h-0.33v1h0.33V4.54h0.34v0.67h-0.34v0.33h0.34v0.67h1.33V5.88h0.67v0.66h1.33V6.21h0.33V5.88h0.33
			C21.37,5.18,20.92,4.51,20.41,3.91z M17.41,1.42v0.12h0.21C17.55,1.5,17.48,1.46,17.41,1.42z M22.2,6.88h-0.45v0.33h0.58
			C22.29,7.1,22.25,6.99,22.2,6.88z M20.41,3.91c-0.1-0.13-0.21-0.25-0.33-0.37c-0.1-0.11-0.2-0.22-0.31-0.33
			c-0.11-0.11-0.23-0.23-0.35-0.33h-0.01V2.87c-0.42-0.38-0.86-0.73-1.33-1.04v0.38h-0.33v0.33h-0.34v0.67h0.34v0.33h-0.34v0.34
			h-0.33v1h0.33V4.54h0.34v0.67h-0.34v0.33h0.34v0.67h1.33V5.88h0.67v0.66h1.33V6.21h0.33V5.88h0.33
			C21.37,5.18,20.92,4.51,20.41,3.91z M17.41,1.42v0.12h0.21C17.55,1.5,17.48,1.46,17.41,1.42z M22.2,6.88h-0.45v0.33h0.58
			C22.29,7.1,22.25,6.99,22.2,6.88z M20.41,3.91c-0.1-0.13-0.21-0.25-0.33-0.37c-0.1-0.11-0.2-0.22-0.31-0.33
			c-0.11-0.11-0.23-0.23-0.35-0.33h-0.01V2.87c-0.42-0.38-0.86-0.73-1.33-1.04v0.38h-0.33v0.33h-0.34v0.67h0.34v0.33h-0.34v0.34
			h-0.33v1h0.33V4.54h0.34v0.67h-0.34v0.33h0.34v0.67h1.33V5.88h0.67v0.66h1.33V6.21h0.33V5.88h0.33
			C21.37,5.18,20.92,4.51,20.41,3.91z M17.41,1.42v0.12h0.21C17.55,1.5,17.48,1.46,17.41,1.42z M22.2,6.88h-0.45v0.33h0.58
			C22.29,7.1,22.25,6.99,22.2,6.88z M20.41,3.91c-0.1-0.13-0.21-0.25-0.33-0.37c-0.1-0.11-0.2-0.22-0.31-0.33
			c-0.11-0.11-0.23-0.23-0.35-0.33h-0.01V2.87c-0.42-0.38-0.86-0.73-1.33-1.04v0.38h-0.33v0.33h-0.34v0.67h0.34v0.33h-0.34v0.34
			h-0.33v1h0.33V4.54h0.34v0.67h-0.34v0.33h0.34v0.67h1.33V5.88h0.67v0.66h1.33V6.21h0.33V5.88h0.33
			C21.37,5.18,20.92,4.51,20.41,3.91z M17.41,1.42v0.12h0.21C17.55,1.5,17.48,1.46,17.41,1.42z M22.2,6.88h-0.45v0.33h0.58
			C22.29,7.1,22.25,6.99,22.2,6.88z M20.41,3.91c-0.1-0.13-0.21-0.25-0.33-0.37c-0.1-0.11-0.2-0.22-0.31-0.33
			c-0.11-0.11-0.23-0.23-0.35-0.33h-0.01V2.87c-0.42-0.38-0.86-0.73-1.33-1.04v0.38h-0.33v0.33h-0.34v0.67h0.34v0.33h-0.34v0.34
			h-0.33v1h0.33V4.54h0.34v0.67h-0.34v0.33h0.34v0.67h1.33V5.88h0.67v0.66h1.33V6.21h0.33V5.88h0.33
			C21.37,5.18,20.92,4.51,20.41,3.91z M17.41,1.42v0.12h0.21C17.55,1.5,17.48,1.46,17.41,1.42z M22.2,6.88h-0.45v0.33h0.58
			C22.29,7.1,22.25,6.99,22.2,6.88z M20.41,3.91c-0.1-0.13-0.21-0.25-0.33-0.37c-0.1-0.11-0.2-0.22-0.31-0.33
			c-0.11-0.11-0.23-0.23-0.35-0.33h-0.01V2.87c-0.42-0.38-0.86-0.73-1.33-1.04v0.38h-0.33v0.33h-0.34v0.67h0.34v0.33h-0.34v0.34
			h-0.33v1h0.33V4.54h0.34v0.67h-0.34v0.33h0.34v0.67h1.33V5.88h0.67v0.66h1.33V6.21h0.33V5.88h0.33
			C21.37,5.18,20.92,4.51,20.41,3.91z M17.41,1.42v0.12h0.21C17.55,1.5,17.48,1.46,17.41,1.42z M22.2,6.88h-0.45v0.33h0.58
			C22.29,7.1,22.25,6.99,22.2,6.88z M20.41,3.91c-0.1-0.13-0.21-0.25-0.33-0.37c-0.1-0.11-0.2-0.22-0.31-0.33
			c-0.11-0.11-0.23-0.23-0.35-0.33h-0.01V2.87c-0.42-0.38-0.86-0.73-1.33-1.04v0.38h-0.33v0.33h-0.34v0.67h0.34v0.33h-0.34v0.34
			h-0.33v1h0.33V4.54h0.34v0.67h-0.34v0.33h0.34v0.67h1.33V5.88h0.67v0.66h1.33V6.21h0.33V5.88h0.33
			C21.37,5.18,20.92,4.51,20.41,3.91z M17.41,1.42v0.12h0.21C17.55,1.5,17.48,1.46,17.41,1.42z M22.2,6.88h-0.45v0.33h0.58
			C22.29,7.1,22.25,6.99,22.2,6.88z M20.41,3.91c-0.1-0.13-0.21-0.25-0.33-0.37c-0.1-0.11-0.2-0.22-0.31-0.33
			c-0.11-0.11-0.23-0.23-0.35-0.33h-0.01V2.87c-0.42-0.38-0.86-0.73-1.33-1.04v0.38h-0.33v0.33h-0.34v0.67h0.34v0.33h-0.34v0.34
			h-0.33v1h0.33V4.54h0.34v0.67h-0.34v0.33h0.34v0.67h1.33V5.88h0.67v0.66h1.33V6.21h0.33V5.88h0.33
			C21.37,5.18,20.92,4.51,20.41,3.91z M17.41,1.42v0.12h0.21C17.55,1.5,17.48,1.46,17.41,1.42z M22.2,6.88h-0.45v0.33h0.58
			C22.29,7.1,22.25,6.99,22.2,6.88z M20.41,3.91c-0.1-0.13-0.21-0.25-0.33-0.37c-0.1-0.11-0.2-0.22-0.31-0.33
			c-0.11-0.11-0.23-0.23-0.35-0.33h-0.01V2.87c-0.42-0.38-0.86-0.73-1.33-1.04v0.38h-0.33v0.33h-0.34v0.67h0.34v0.33h-0.34v0.34
			h-0.33v1h0.33V4.54h0.34v0.67h-0.34v0.33h0.34v0.67h1.33V5.88h0.67v0.66h1.33V6.21h0.33V5.88h0.33
			C21.37,5.18,20.92,4.51,20.41,3.91z M17.41,1.42v0.12h0.21C17.55,1.5,17.48,1.46,17.41,1.42z M22.2,6.88h-0.45v0.33h0.58
			C22.29,7.1,22.25,6.99,22.2,6.88z M20.41,3.91c-0.1-0.13-0.21-0.25-0.33-0.37c-0.1-0.11-0.2-0.22-0.31-0.33
			c-0.11-0.11-0.23-0.23-0.35-0.33h-0.01V2.87c-0.42-0.38-0.86-0.73-1.33-1.04v0.38h-0.33v0.33h-0.34v0.67h0.34v0.33h-0.34v0.34
			h-0.33v1h0.33V4.54h0.34v0.67h-0.34v0.33h0.34v0.67h1.33V5.88h0.67v0.66h1.33V6.21h0.33V5.88h0.33
			C21.37,5.18,20.92,4.51,20.41,3.91z M17.41,1.42v0.12h0.21C17.55,1.5,17.48,1.46,17.41,1.42z M22.2,6.88h-0.45v0.33h0.58
			C22.29,7.1,22.25,6.99,22.2,6.88z M20.41,3.91c-0.1-0.13-0.21-0.25-0.33-0.37c-0.1-0.11-0.2-0.22-0.31-0.33
			c-0.11-0.11-0.23-0.23-0.35-0.33h-0.01V2.87c-0.42-0.38-0.86-0.73-1.33-1.04v0.38h-0.33v0.33h-0.34v0.67h0.34v0.33h-0.34v0.34
			h-0.33v1h0.33V4.54h0.34v0.67h-0.34v0.33h0.34v0.67h1.33V5.88h0.67v0.66h1.33V6.21h0.33V5.88h0.33
			C21.37,5.18,20.92,4.51,20.41,3.91z M17.41,1.42v0.12h0.21C17.55,1.5,17.48,1.46,17.41,1.42z M22.2,6.88h-0.45v0.33h0.58
			C22.29,7.1,22.25,6.99,22.2,6.88z M20.41,3.91c-0.1-0.13-0.21-0.25-0.33-0.37c-0.1-0.11-0.2-0.22-0.31-0.33
			c-0.11-0.11-0.23-0.23-0.35-0.33h-0.01V2.87c-0.42-0.38-0.86-0.73-1.33-1.04v0.38h-0.33v0.33h-0.34v0.67h0.34v0.33h-0.34v0.34
			h-0.33v1h0.33V4.54h0.34v0.67h-0.34v0.33h0.34v0.67h1.33V5.88h0.67v0.66h1.33V6.21h0.33V5.88h0.33
			C21.37,5.18,20.92,4.51,20.41,3.91z M17.41,1.42v0.12h0.21C17.55,1.5,17.48,1.46,17.41,1.42z M22.2,6.88h-0.45v0.33h0.58
			C22.29,7.1,22.25,6.99,22.2,6.88z M20.41,3.91c-0.1-0.13-0.21-0.25-0.33-0.37c-0.1-0.11-0.2-0.22-0.31-0.33
			c-0.11-0.11-0.23-0.23-0.35-0.33h-0.01V2.87c-0.42-0.38-0.86-0.73-1.33-1.04v0.38h-0.33v0.33h-0.34v0.67h0.34v0.33h-0.34v0.34
			h-0.33v1h0.33V4.54h0.34v0.67h-0.34v0.33h0.34v0.67h1.33V5.88h0.67v0.66h1.33V6.21h0.33V5.88h0.33
			C21.37,5.18,20.92,4.51,20.41,3.91z M17.41,1.42v0.12h0.21C17.55,1.5,17.48,1.46,17.41,1.42z M22.2,6.88h-0.45v0.33h0.58
			C22.29,7.1,22.25,6.99,22.2,6.88z M20.41,3.91c-0.1-0.13-0.21-0.25-0.33-0.37c-0.1-0.11-0.2-0.22-0.31-0.33
			c-0.11-0.11-0.23-0.23-0.35-0.33h-0.01V2.87c-0.42-0.38-0.86-0.73-1.33-1.04v0.38h-0.33v0.33h-0.34v0.67h0.34v0.33h-0.34v0.34
			h-0.33v1h0.33V4.54h0.34v0.67h-0.34v0.33h0.34v0.67h1.33V5.88h0.67v0.66h1.33V6.21h0.33V5.88h0.33
			C21.37,5.18,20.92,4.51,20.41,3.91z M17.41,1.42v0.12h0.21C17.55,1.5,17.48,1.46,17.41,1.42z M22.2,6.88h-0.45v0.33h0.58
			C22.29,7.1,22.25,6.99,22.2,6.88z M20.41,3.91c-0.1-0.13-0.21-0.25-0.33-0.37c-0.1-0.11-0.2-0.22-0.31-0.33
			c-0.11-0.11-0.23-0.23-0.35-0.33h-0.01V2.87c-0.42-0.38-0.86-0.73-1.33-1.04v0.38h-0.33v0.33h-0.34v0.67h0.34v0.33h-0.34v0.34
			h-0.33v1h0.33V4.54h0.34v0.67h-0.34v0.33h0.34v0.67h1.33V5.88h0.67v0.66h1.33V6.21h0.33V5.88h0.33
			C21.37,5.18,20.92,4.51,20.41,3.91z M17.41,1.42v0.12h0.21C17.55,1.5,17.48,1.46,17.41,1.42z M22.2,6.88h-0.45v0.33h0.58
			C22.29,7.1,22.25,6.99,22.2,6.88z M20.41,3.91c-0.1-0.13-0.21-0.25-0.33-0.37c-0.1-0.11-0.2-0.22-0.31-0.33
			c-0.11-0.11-0.23-0.23-0.35-0.33h-0.01V2.87c-0.42-0.38-0.86-0.73-1.33-1.04v0.38h-0.33v0.33h-0.34v0.67h0.34v0.33h-0.34v0.34
			h-0.33v1h0.33V4.54h0.34v0.67h-0.34v0.33h0.34v0.67h1.33V5.88h0.67v0.66h1.33V6.21h0.33V5.88h0.33
			C21.37,5.18,20.92,4.51,20.41,3.91z M17.41,1.42v0.12h0.21C17.55,1.5,17.48,1.46,17.41,1.42z M22.2,6.88h-0.45v0.33h0.58
			C22.29,7.1,22.25,6.99,22.2,6.88z M20.41,3.91c-0.1-0.13-0.21-0.25-0.33-0.37c-0.1-0.11-0.2-0.22-0.31-0.33
			c-0.11-0.11-0.23-0.23-0.35-0.33h-0.01V2.87c-0.42-0.38-0.86-0.73-1.33-1.04v0.38h-0.33v0.33h-0.34v0.67h0.34v0.33h-0.34v0.34
			h-0.33v1h0.33V4.54h0.34v0.67h-0.34v0.33h0.34v0.67h1.33V5.88h0.67v0.66h1.33V6.21h0.33V5.88h0.33
			C21.37,5.18,20.92,4.51,20.41,3.91z M17.41,1.42v0.12h0.21C17.55,1.5,17.48,1.46,17.41,1.42z M22.2,6.88h-0.45v0.33h0.58
			C22.29,7.1,22.25,6.99,22.2,6.88z M20.41,3.91c-0.1-0.13-0.21-0.25-0.33-0.37c-0.1-0.11-0.2-0.22-0.31-0.33
			c-0.11-0.11-0.23-0.23-0.35-0.33h-0.01V2.87c-0.42-0.38-0.86-0.73-1.33-1.04v0.38h-0.33v0.33h-0.34v0.67h0.34v0.33h-0.34v0.34
			h-0.33v1h0.33V4.54h0.34v0.67h-0.34v0.33h0.34v0.67h1.33V5.88h0.67v0.66h1.33V6.21h0.33V5.88h0.33
			C21.37,5.18,20.92,4.51,20.41,3.91z M17.41,1.42v0.12h0.21C17.55,1.5,17.48,1.46,17.41,1.42z M22.2,6.88h-0.45v0.33h0.58
			C22.29,7.1,22.25,6.99,22.2,6.88z M20.41,3.91c-0.1-0.13-0.21-0.25-0.33-0.37c-0.1-0.11-0.2-0.22-0.31-0.33
			c-0.11-0.11-0.23-0.23-0.35-0.33h-0.01V2.87c-0.42-0.38-0.86-0.73-1.33-1.04v0.38h-0.33v0.33h-0.34v0.67h0.34v0.33h-0.34v0.34
			h-0.33v1h0.33V4.54h0.34v0.67h-0.34v0.33h0.34v0.67h1.33V5.88h0.67v0.66h1.33V6.21h0.33V5.88h0.33
			C21.37,5.18,20.92,4.51,20.41,3.91z M17.41,1.42v0.12h0.21C17.55,1.5,17.48,1.46,17.41,1.42z M22.2,6.88h-0.45v0.33h0.58
			C22.29,7.1,22.25,6.99,22.2,6.88z M20.41,3.91c-0.1-0.13-0.21-0.25-0.33-0.37c-0.1-0.11-0.2-0.22-0.31-0.33
			c-0.11-0.11-0.23-0.23-0.35-0.33h-0.01V2.87c-0.42-0.38-0.86-0.73-1.33-1.04v0.38h-0.33v0.33h-0.34v0.67h0.34v0.33h-0.34v0.34
			h-0.33v1h0.33V4.54h0.34v0.67h-0.34v0.33h0.34v0.67h1.33V5.88h0.67v0.66h1.33V6.21h0.33V5.88h0.33
			C21.37,5.18,20.92,4.51,20.41,3.91z M17.41,1.42v0.12h0.21C17.55,1.5,17.48,1.46,17.41,1.42z M22.2,6.88h-0.45v0.33h0.58
			C22.29,7.1,22.25,6.99,22.2,6.88z M20.41,3.91c-0.1-0.13-0.21-0.25-0.33-0.37c-0.1-0.11-0.2-0.22-0.31-0.33
			c-0.11-0.11-0.23-0.23-0.35-0.33h-0.01V2.87c-0.42-0.38-0.86-0.73-1.33-1.04v0.38h-0.33v0.33h-0.34v0.67h0.34v0.33h-0.34v0.34
			h-0.33v1h0.33V4.54h0.34v0.67h-0.34v0.33h0.34v0.67h1.33V5.88h0.67v0.66h1.33V6.21h0.33V5.88h0.33
			C21.37,5.18,20.92,4.51,20.41,3.91z M17.41,1.42v0.12h0.21C17.55,1.5,17.48,1.46,17.41,1.42z M22.2,6.88h-0.45v0.33h0.58
			C22.29,7.1,22.25,6.99,22.2,6.88z M20.41,3.91c-0.1-0.13-0.21-0.25-0.33-0.37c-0.1-0.11-0.2-0.22-0.31-0.33
			c-0.11-0.11-0.23-0.23-0.35-0.33h-0.01V2.87c-0.42-0.38-0.86-0.73-1.33-1.04v0.38h-0.33v0.33h-0.34v0.67h0.34v0.33h-0.34v0.34
			h1.34V3.54h0.33v0.34h0.67v0.33h-0.34v1h0.34V4.88h0.33v0.66h-0.33v0.34h0.33v0.66h1V6.21h0.33V5.88h0.33
			C21.37,5.18,20.92,4.51,20.41,3.91z M17.41,1.42v0.12h0.21C17.55,1.5,17.48,1.46,17.41,1.42z M22.2,6.88h-0.45v0.33h0.58
			C22.29,7.1,22.25,6.99,22.2,6.88z M20.41,3.91c-0.1-0.13-0.21-0.25-0.33-0.37c-0.1-0.11-0.2-0.22-0.31-0.33
			c-0.11-0.11-0.23-0.23-0.35-0.33h-0.01V2.87c-0.42-0.38-0.86-0.73-1.33-1.04v0.38h-0.33v0.33h-0.34v0.67h0.34v0.33h-0.34v0.34
			h-0.33v1h0.33V4.54h0.34v0.67h-0.34v0.33h0.34v0.67h1.33V5.88h0.67v0.66h1.33V6.21h0.33V5.88h0.33
			C21.37,5.18,20.92,4.51,20.41,3.91z M17.41,1.42v0.12h0.21C17.55,1.5,17.48,1.46,17.41,1.42z M22.2,6.88h-0.45v0.33h0.58
			C22.29,7.1,22.25,6.99,22.2,6.88z M20.41,3.91c-0.1-0.13-0.21-0.25-0.33-0.37c-0.1-0.11-0.2-0.22-0.31-0.33
			c-0.11-0.11-0.23-0.23-0.35-0.33h-0.01V2.87c-0.42-0.38-0.86-0.73-1.33-1.04v0.38h-0.33v0.33h-0.34v0.67h0.34v0.33h-0.34v0.34
			h-0.33v1h0.33V4.54h0.34v0.67h-0.34v0.33h0.34v0.67h1.33V5.88h0.67v0.66h1.33V6.21h0.33V5.88h0.33
			C21.37,5.18,20.92,4.51,20.41,3.91z M17.41,1.42v0.12h0.21C17.55,1.5,17.48,1.46,17.41,1.42z M22.2,6.88h-0.45v0.33h0.58
			C22.29,7.1,22.25,6.99,22.2,6.88z M20.41,3.91c-0.1-0.13-0.21-0.25-0.33-0.37c-0.1-0.11-0.2-0.22-0.31-0.33
			c-0.11-0.11-0.23-0.23-0.35-0.33h-0.01V2.87c-0.42-0.38-0.86-0.73-1.33-1.04v0.38h-0.33v0.33h-0.34v0.67h0.34v0.33h-0.34v0.34
			h-0.33v1h0.33V4.54h0.34v0.67h-0.34v0.33h0.34v0.67h1.33V5.88h0.67v0.66h1.33V6.21h0.33V5.88h0.33
			C21.37,5.18,20.92,4.51,20.41,3.91z M17.41,1.42v0.12h0.21C17.55,1.5,17.48,1.46,17.41,1.42z M22.2,6.88h-0.45v0.33h0.58
			C22.29,7.1,22.25,6.99,22.2,6.88z M20.41,3.91c-0.1-0.13-0.21-0.25-0.33-0.37c-0.1-0.11-0.2-0.22-0.31-0.33
			c-0.11-0.11-0.23-0.23-0.35-0.33h-0.01V2.87c-0.42-0.38-0.86-0.73-1.33-1.04v0.38h-0.33v0.33h-0.34v0.67h0.34v0.33h-0.34v0.34
			h-0.33v1h0.33V4.54h0.34v0.67h-0.34v0.33h0.34v0.67h1.33V5.88h0.67v0.66h1.33V6.21h0.33V5.88h0.33
			C21.37,5.18,20.92,4.51,20.41,3.91z M17.41,1.42v0.12h0.21C17.55,1.5,17.48,1.46,17.41,1.42z M22.2,6.88h-0.45v0.33h0.58
			C22.29,7.1,22.25,6.99,22.2,6.88z M20.41,3.91c-0.1-0.13-0.21-0.25-0.33-0.37c-0.1-0.11-0.2-0.22-0.31-0.33
			c-0.11-0.11-0.23-0.23-0.35-0.33h-0.01V2.87c-0.42-0.38-0.86-0.73-1.33-1.04v0.38h-0.33v0.33h-0.34v0.67h0.34v0.33h-0.34v0.34
			h-0.33v1h0.33V4.54h0.34v0.67h-0.34v0.33h0.34v0.67h1.33V5.88h0.67v0.66h1.33V6.21h0.33V5.88h0.33
			C21.37,5.18,20.92,4.51,20.41,3.91z M17.41,1.42v0.12h0.21C17.55,1.5,17.48,1.46,17.41,1.42z M22.2,6.88h-0.45v0.33h0.58
			C22.29,7.1,22.25,6.99,22.2,6.88z M20.41,3.91c-0.1-0.13-0.21-0.25-0.33-0.37c-0.1-0.11-0.2-0.22-0.31-0.33
			c-0.11-0.11-0.23-0.23-0.35-0.33h-0.01V2.87c-0.42-0.38-0.86-0.73-1.33-1.04v0.38h-0.33v0.33h-0.34v0.67h0.34v0.33h-0.34v0.34
			h-0.33v1h0.33V4.54h0.34v0.67h-0.34v0.33h0.34v0.67h1.33V5.88h0.67v0.66h1.33V6.21h0.33V5.88h0.33
			C21.37,5.18,20.92,4.51,20.41,3.91z M17.41,1.42v0.12h0.21C17.55,1.5,17.48,1.46,17.41,1.42z M22.2,6.88h-0.45v0.33h0.58
			C22.29,7.1,22.25,6.99,22.2,6.88z M20.41,3.91c-0.1-0.13-0.21-0.25-0.33-0.37c-0.1-0.11-0.2-0.22-0.31-0.33
			c-0.11-0.11-0.23-0.23-0.35-0.33h-0.01V2.87c-0.42-0.38-0.86-0.73-1.33-1.04v0.38h-0.33v0.33h-0.34v0.67h0.34v0.33h-0.34v0.34
			h-0.33v1h0.33V4.54h0.34v0.67h-0.34v0.33h0.34v0.67h1.33V5.88h0.67v0.66h1.33V6.21h0.33V5.88h0.33
			C21.37,5.18,20.92,4.51,20.41,3.91z M17.41,1.42v0.12h0.21C17.55,1.5,17.48,1.46,17.41,1.42z M22.2,6.88h-0.45v0.33h0.58
			C22.29,7.1,22.25,6.99,22.2,6.88z M20.41,3.91c-0.1-0.13-0.21-0.25-0.33-0.37c-0.1-0.11-0.2-0.22-0.31-0.33
			c-0.11-0.11-0.23-0.23-0.35-0.33h-0.01V2.87c-0.42-0.38-0.86-0.73-1.33-1.04v0.38h-0.33v0.33h-0.34v0.67h0.34v0.33h-0.34v0.34
			h-0.33v1h0.33V4.54h0.34v0.67h-0.34v0.33h0.34v0.67h1.33V5.88h0.67v0.66h1.33V6.21h0.33V5.88h0.33
			C21.37,5.18,20.92,4.51,20.41,3.91z M17.41,1.42v0.12h0.21C17.55,1.5,17.48,1.46,17.41,1.42z M22.2,6.88h-0.45v0.33h0.58
			C22.29,7.1,22.25,6.99,22.2,6.88z M20.41,3.91c-0.1-0.13-0.21-0.25-0.33-0.37c-0.1-0.11-0.2-0.22-0.31-0.33
			c-0.11-0.11-0.23-0.23-0.35-0.33h-0.01V2.87c-0.42-0.38-0.86-0.73-1.33-1.04v0.38h-0.33v0.33h-0.34v0.67h0.34v0.33h-0.34v0.34
			h-0.33v1h0.33V4.54h0.34v0.67h-0.34v0.33h0.34v0.67h1.33V5.88h0.67v0.66h1.33V6.21h0.33V5.88h0.33
			C21.37,5.18,20.92,4.51,20.41,3.91z M17.41,1.42v0.12h0.21C17.55,1.5,17.48,1.46,17.41,1.42z M22.2,6.88h-0.45v0.33h0.58
			C22.29,7.1,22.25,6.99,22.2,6.88z M20.41,3.91c-0.1-0.13-0.21-0.25-0.33-0.37c-0.1-0.11-0.2-0.22-0.31-0.33
			c-0.11-0.11-0.23-0.23-0.35-0.33h-0.01V2.87c-0.42-0.38-0.86-0.73-1.33-1.04v0.38h-0.33v0.33h-0.34v0.67h0.34v0.33h-0.34v0.34
			h-0.33v1h0.33V4.54h0.34v0.67h-0.34v0.33h0.34v0.67h1.33V5.88h0.67v0.66h1.33V6.21h0.33V5.88h0.33
			C21.37,5.18,20.92,4.51,20.41,3.91z M17.41,1.42v0.12h0.21C17.55,1.5,17.48,1.46,17.41,1.42z M22.2,6.88h-0.45v0.33h0.58
			C22.29,7.1,22.25,6.99,22.2,6.88z M20.41,3.91c-0.1-0.13-0.21-0.25-0.33-0.37c-0.1-0.11-0.2-0.22-0.31-0.33
			c-0.11-0.11-0.23-0.23-0.35-0.33h-0.01V2.87c-0.42-0.38-0.86-0.73-1.33-1.04v0.38h-0.33v0.33h-0.34v0.67h0.34v0.33h-0.34v0.34
			h-0.33v1h0.33V4.54h0.34v0.67h-0.34v0.33h0.34v0.67h1.33V5.88h0.67v0.66h1.33V6.21h0.33V5.88h0.33
			C21.37,5.18,20.92,4.51,20.41,3.91z M17.41,1.42v0.12h0.21C17.55,1.5,17.48,1.46,17.41,1.42z M22.2,6.88h-0.45v0.33h0.58
			C22.29,7.1,22.25,6.99,22.2,6.88z M20.41,3.91c-0.1-0.13-0.21-0.25-0.33-0.37c-0.1-0.11-0.2-0.22-0.31-0.33
			c-0.11-0.11-0.23-0.23-0.35-0.33h-0.01V2.87c-0.42-0.38-0.86-0.73-1.33-1.04v0.38h-0.33v0.33h-0.34v0.67h0.34v0.33h-0.34v0.34
			h-0.33v1h0.33V4.54h0.34v0.67h-0.34v0.33h0.34v0.67h1.33V5.88h0.67v0.66h1.33V6.21h0.33V5.88h0.33
			C21.37,5.18,20.92,4.51,20.41,3.91z M17.41,1.42v0.12h0.21C17.55,1.5,17.48,1.46,17.41,1.42z M22.2,6.88h-0.45v0.33h0.58
			C22.29,7.1,22.25,6.99,22.2,6.88z M20.41,3.91c-0.1-0.13-0.21-0.25-0.33-0.37c-0.1-0.11-0.2-0.22-0.31-0.33
			c-0.11-0.11-0.23-0.23-0.35-0.33h-0.01V2.87c-0.42-0.38-0.86-0.73-1.33-1.04v0.38h-0.33v0.33h-0.34v0.67h0.34v0.33h-0.34v0.34
			h-0.33v1h0.33V4.54h0.34v0.67h-0.34v0.33h0.34v0.67h1.33V5.88h0.67v0.66h1.33V6.21h0.33V5.88h0.33
			C21.37,5.18,20.92,4.51,20.41,3.91z M17.41,1.42v0.12h0.21C17.55,1.5,17.48,1.46,17.41,1.42z M22.2,6.88h-0.45v0.33h0.58
			C22.29,7.1,22.25,6.99,22.2,6.88z M20.41,3.91c-0.1-0.13-0.21-0.25-0.33-0.37c-0.1-0.11-0.2-0.22-0.31-0.33
			c-0.11-0.11-0.23-0.23-0.35-0.33h-0.01V2.87c-0.42-0.38-0.86-0.73-1.33-1.04v0.38h-0.33v0.33h-0.34v0.67h0.34v0.33h-0.34v0.34
			h-0.33v1h0.33V4.54h0.34v0.67h-0.34v0.33h0.34v0.67h1.33V5.88h0.67v0.66h1.33V6.21h0.33V5.88h0.33
			C21.37,5.18,20.92,4.51,20.41,3.91z M17.41,1.42v0.12h0.21C17.55,1.5,17.48,1.46,17.41,1.42z M22.2,6.88h-0.45v0.33h0.58
			C22.29,7.1,22.25,6.99,22.2,6.88z M20.41,3.91c-0.1-0.13-0.21-0.25-0.33-0.37c-0.1-0.11-0.2-0.22-0.31-0.33
			c-0.11-0.11-0.23-0.23-0.35-0.33h-0.01V2.87c-0.42-0.38-0.86-0.73-1.33-1.04v0.38h-0.33v0.33h-0.34v0.67h0.34v0.33h-0.34v0.34
			h-0.33v1h0.33V4.54h0.34v0.67h-0.34v0.33h0.34v0.67h1.33V5.88h0.67v0.66h1.33V6.21h0.33V5.88h0.33
			C21.37,5.18,20.92,4.51,20.41,3.91z M17.41,1.42v0.12h0.21C17.55,1.5,17.48,1.46,17.41,1.42z M22.2,6.88h-0.45v0.33h0.58
			C22.29,7.1,22.25,6.99,22.2,6.88z M20.41,3.91c-0.1-0.13-0.21-0.25-0.33-0.37c-0.1-0.11-0.2-0.22-0.31-0.33
			c-0.11-0.11-0.23-0.23-0.35-0.33h-0.01V2.87c-0.42-0.38-0.86-0.73-1.33-1.04v0.38h-0.33v0.33h-0.34v0.67h0.34v0.33h-0.34v0.34
			h-0.33v1h0.33V4.54h0.34v0.67h-0.34v0.33h0.34v0.67h1.33V5.88h0.67v0.66h1.33V6.21h0.33V5.88h0.33
			C21.37,5.18,20.92,4.51,20.41,3.91z M17.41,1.42v0.12h0.21C17.55,1.5,17.48,1.46,17.41,1.42z M22.2,6.88h-0.45v0.33h0.58
			C22.29,7.1,22.25,6.99,22.2,6.88z M20.41,3.91c-0.1-0.13-0.21-0.25-0.33-0.37c-0.1-0.11-0.2-0.22-0.31-0.33
			c-0.11-0.11-0.23-0.23-0.35-0.33h-0.01V2.87c-0.42-0.38-0.86-0.73-1.33-1.04v0.38h-0.33v0.33h-0.34v0.67h0.34v0.33h-0.34v0.34
			h-0.33v1h0.33V4.54h0.34v0.67h-0.34v0.33h0.34v0.67h1.33V5.88h0.67v0.66h1.33V6.21h0.33V5.88h0.33
			C21.37,5.18,20.92,4.51,20.41,3.91z M17.41,1.42v0.12h0.21C17.55,1.5,17.48,1.46,17.41,1.42z M22.2,6.88h-0.45v0.33h0.58
			C22.29,7.1,22.25,6.99,22.2,6.88z M20.41,3.91c-0.1-0.13-0.21-0.25-0.33-0.37c-0.1-0.11-0.2-0.22-0.31-0.33
			c-0.11-0.11-0.23-0.23-0.35-0.33h-0.01V2.87c-0.42-0.38-0.86-0.73-1.33-1.04v0.38h-0.33v0.33h-0.34v0.67h0.34v0.33h-0.34v0.34
			h-0.33v1h0.33V4.54h0.34v0.67h-0.34v0.33h0.34v0.67h1.33V5.88h0.67v0.66h1.33V6.21h0.33V5.88h0.33
			C21.37,5.18,20.92,4.51,20.41,3.91z M17.41,1.42v0.12h0.21C17.55,1.5,17.48,1.46,17.41,1.42z M22.2,6.88h-0.45v0.33h0.58
			C22.29,7.1,22.25,6.99,22.2,6.88z M20.41,3.91c-0.1-0.13-0.21-0.25-0.33-0.37c-0.1-0.11-0.2-0.22-0.31-0.33
			c-0.11-0.11-0.23-0.23-0.35-0.33h-0.01V2.87c-0.42-0.38-0.86-0.73-1.33-1.04v0.38h-0.33v0.33h-0.34v0.67h0.34v0.33h-0.34v0.34
			h-0.33v1h0.33V4.54h0.34v0.67h-0.34v0.33h0.34v0.67h1.33V5.88h0.67v0.66h1.33V6.21h0.33V5.88h0.33
			C21.37,5.18,20.92,4.51,20.41,3.91z M17.41,1.42v0.12h0.21C17.55,1.5,17.48,1.46,17.41,1.42z M22.2,6.88h-0.45v0.33h0.58
			C22.29,7.1,22.25,6.99,22.2,6.88z M20.41,3.91c-0.1-0.13-0.21-0.25-0.33-0.37c-0.1-0.11-0.2-0.22-0.31-0.33
			c-0.11-0.11-0.23-0.23-0.35-0.33h-0.01V2.87c-0.42-0.38-0.86-0.73-1.33-1.04v0.38h-0.33v0.33h-0.34v0.67h0.34v0.33h-0.34v0.34
			h-0.33v1h0.33V4.54h0.34v0.67h-0.34v0.33h0.34v0.67h1.33V5.88h0.67v0.66h1.33V6.21h0.33V5.88h0.33
			C21.37,5.18,20.92,4.51,20.41,3.91z M17.41,1.42v0.12h0.21C17.55,1.5,17.48,1.46,17.41,1.42z M22.2,6.88h-0.45v0.33h0.58
			C22.29,7.1,22.25,6.99,22.2,6.88z M20.41,3.91c-0.1-0.13-0.21-0.25-0.33-0.37c-0.1-0.11-0.2-0.22-0.31-0.33
			c-0.11-0.11-0.23-0.23-0.35-0.33h-0.01V2.87c-0.42-0.38-0.86-0.73-1.33-1.04v0.38h-0.33v0.33h-0.34v0.67h0.34v0.33h-0.34v0.34
			h-0.33v1h0.33V4.54h0.34v0.67h-0.34v0.33h0.34v0.67h1.33V5.88h0.67v0.66h1.33V6.21h0.33V5.88h0.33
			C21.37,5.18,20.92,4.51,20.41,3.91z M17.41,1.42v0.12h0.21C17.55,1.5,17.48,1.46,17.41,1.42z M22.2,6.88h-0.45v0.33h0.58
			C22.29,7.1,22.25,6.99,22.2,6.88z M20.41,3.91c-0.1-0.13-0.21-0.25-0.33-0.37c-0.1-0.11-0.2-0.22-0.31-0.33
			c-0.11-0.11-0.23-0.23-0.35-0.33h-0.01V2.87c-0.42-0.38-0.86-0.73-1.33-1.04v0.38h-0.33v0.33h-0.34v0.67h0.34v0.33h-0.34v0.34
			h-0.33v1h0.33V4.54h0.34v0.67h-0.34v0.33h0.34v0.67h1.33V5.88h0.67v0.66h1.33V6.21h0.33V5.88h0.33
			C21.37,5.18,20.92,4.51,20.41,3.91z M17.41,1.42v0.12h0.21C17.55,1.5,17.48,1.46,17.41,1.42z M22.2,6.88h-0.45v0.33h0.58
			C22.29,7.1,22.25,6.99,22.2,6.88z M20.41,3.91c-0.1-0.13-0.21-0.25-0.33-0.37c-0.1-0.11-0.2-0.22-0.31-0.33
			c-0.11-0.11-0.23-0.23-0.35-0.33h-0.01V2.87c-0.42-0.38-0.86-0.73-1.33-1.04v0.38h-0.33v0.33h-0.34v0.67h0.34v0.33h-0.34v0.34
			h-0.33v1h0.33V4.54h0.34v0.67h-0.34v0.33h0.34v0.67h1.33V5.88h0.67v0.66h1.33V6.21h0.33V5.88h0.33
			C21.37,5.18,20.92,4.51,20.41,3.91z M17.41,1.42v0.12h0.21C17.55,1.5,17.48,1.46,17.41,1.42z M22.2,6.88h-0.45v0.33h0.58
			C22.29,7.1,22.25,6.99,22.2,6.88z M20.41,3.91c-0.1-0.13-0.21-0.25-0.33-0.37c-0.1-0.11-0.2-0.22-0.31-0.33
			c-0.11-0.11-0.23-0.23-0.35-0.33h-0.01V2.87c-0.42-0.38-0.86-0.73-1.33-1.04v0.38h-0.33v0.33h-0.34v0.67h0.34v0.33h-0.34v0.34
			h-0.33v1h0.33V4.54h0.34v0.67h-0.34v0.33h0.34v0.67h1.33V5.88h0.67v0.66h1.33V6.21h0.33V5.88h0.33
			C21.37,5.18,20.92,4.51,20.41,3.91z M17.41,1.42v0.12h0.21C17.55,1.5,17.48,1.46,17.41,1.42z M22.2,6.88h-0.45v0.33h0.58
			C22.29,7.1,22.25,6.99,22.2,6.88z M20.41,3.91c-0.1-0.13-0.21-0.25-0.33-0.37c-0.1-0.11-0.2-0.22-0.31-0.33
			c-0.11-0.11-0.23-0.23-0.35-0.33h-0.01V2.87c-0.42-0.38-0.86-0.73-1.33-1.04v0.38h-0.33v0.33h-0.34v0.67h0.34v0.33h-0.34v0.34
			h-0.33v1h0.33V4.54h0.34v0.67h-0.34v0.33h0.34v0.67h1.33V5.88h0.67v0.66h1.33V6.21h0.33V5.88h0.33
			C21.37,5.18,20.92,4.51,20.41,3.91z M17.41,1.42v0.12h0.21C17.55,1.5,17.48,1.46,17.41,1.42z M22.2,6.88h-0.45v0.33h0.58
			C22.29,7.1,22.25,6.99,22.2,6.88z M20.41,3.91c-0.1-0.13-0.21-0.25-0.33-0.37c-0.1-0.11-0.2-0.22-0.31-0.33
			c-0.11-0.11-0.23-0.23-0.35-0.33h-0.01V2.87c-0.42-0.38-0.86-0.73-1.33-1.04v0.38h-0.33v0.33h-0.34v0.67h0.34v0.33h-0.34v0.34
			h-0.33v1h0.33V4.54h0.34v0.67h-0.34v0.33h0.34v0.67h1.33V5.88h0.67v0.66h1.33V6.21h0.33V5.88h0.33
			C21.37,5.18,20.92,4.51,20.41,3.91z M17.41,1.42v0.12h0.21C17.55,1.5,17.48,1.46,17.41,1.42z M22.2,6.88h-0.45v0.33h0.58
			C22.29,7.1,22.25,6.99,22.2,6.88z M20.41,3.91c-0.1-0.13-0.21-0.25-0.33-0.37c-0.1-0.11-0.2-0.22-0.31-0.33
			c-0.11-0.11-0.23-0.23-0.35-0.33h-0.01V2.87c-0.42-0.38-0.86-0.73-1.33-1.04v0.38h-0.33v0.33h-0.34v0.67h0.34v0.33h-0.34v0.34
			h-0.33v1h0.33V4.54h0.34v0.67h-0.34v0.33h0.34v0.67h1.33V5.88h0.67v0.66h1.33V6.21h0.33V5.88h0.33
			C21.37,5.18,20.92,4.51,20.41,3.91z M17.41,1.42v0.12h0.21C17.55,1.5,17.48,1.46,17.41,1.42z M22.2,6.88h-0.45v0.33h0.58
			C22.29,7.1,22.25,6.99,22.2,6.88z M20.41,3.91c-0.1-0.13-0.21-0.25-0.33-0.37c-0.1-0.11-0.2-0.22-0.31-0.33
			c-0.11-0.11-0.23-0.23-0.35-0.33h-0.01V2.87c-0.42-0.38-0.86-0.73-1.33-1.04v0.38h-0.33v0.33h-0.34v0.67h0.34v0.33h-0.34v0.34
			h-0.33v1h0.33V4.54h0.34v0.67h-0.34v0.33h0.34v0.67h1.33V5.88h0.67v0.66h1.33V6.21h0.33V5.88h0.33
			C21.37,5.18,20.92,4.51,20.41,3.91z M17.41,1.42v0.12h0.21C17.55,1.5,17.48,1.46,17.41,1.42z M22.2,6.88h-0.45v0.33h0.58
			C22.29,7.1,22.25,6.99,22.2,6.88z M20.41,3.91c-0.1-0.13-0.21-0.25-0.33-0.37c-0.1-0.11-0.2-0.22-0.31-0.33
			c-0.11-0.11-0.23-0.23-0.35-0.33h-0.01V2.87c-0.42-0.38-0.86-0.73-1.33-1.04v0.38h-0.33v0.33h-0.34v0.67h0.34v0.33h-0.34v0.34
			h-0.33v1h0.33V4.54h0.34v0.67h-0.34v0.33h0.34v0.67h1.33V5.88h0.67v0.66h1.33V6.21h0.33V5.88h0.33
			C21.37,5.18,20.92,4.51,20.41,3.91z M17.41,1.42v0.12h0.21C17.55,1.5,17.48,1.46,17.41,1.42z M22.2,6.88h-0.45v0.33h0.58
			C22.29,7.1,22.25,6.99,22.2,6.88z M20.41,3.91c-0.1-0.13-0.21-0.25-0.33-0.37c-0.1-0.11-0.2-0.22-0.31-0.33
			c-0.11-0.11-0.23-0.23-0.35-0.33h-0.01V2.87c-0.42-0.38-0.86-0.73-1.33-1.04v0.38h-0.33v0.33h-0.34v0.67h0.34v0.33h-0.34v0.34
			h-0.33v1h0.33V4.54h0.34v0.67h-0.34v0.33h0.34v0.67h1.33V5.88h0.67v0.66h1.33V6.21h0.33V5.88h0.33
			C21.37,5.18,20.92,4.51,20.41,3.91z M17.41,1.42v0.12h0.21C17.55,1.5,17.48,1.46,17.41,1.42z M22.2,6.88h-0.45v0.33h0.58
			C22.29,7.1,22.25,6.99,22.2,6.88z M20.41,3.91v0.3h-0.66V3.88h-0.67V3.54h-0.33v0.34h-1.67v1h0.33V4.54h0.34v0.67h-0.34v0.33h0.34
			v0.67h1.33V5.88h0.67v0.66h1.33V6.21h0.33V5.88h0.33C21.37,5.18,20.92,4.51,20.41,3.91z M22.2,6.88h-0.45v0.33h0.58
			C22.29,7.1,22.25,6.99,22.2,6.88z"/>
		<g>
			<path class="st4" d="M22.46,17.21c-0.01,0.01-0.02,0.02-0.04,0.02v-0.02H22.46z"/>
			<path class="st4" d="M24,15.54c-0.01,0.23-0.1,0.45-0.25,0.67c-0.16,0.23-0.41,0.46-0.72,0.67h-0.62v0.33h-0.33v0.18
				c-0.11,0.06-0.22,0.1-0.34,0.15h-0.33v-0.66h-0.33v-0.67h0.67v0.33h0.66v-0.33h1v-0.33h0.34v-0.34H24z"/>
			<polygon class="st4" points="9.42,9.54 9.42,9.21 9.42,8.88 9.08,8.88 8.75,8.88 8.75,9.21 9.08,9.21 9.08,9.54 			"/>
			<rect x="8.42" y="10.21" class="st4" width="0.33" height="0.33"/>
			<polygon class="st4" points="5.42,6.88 5.08,6.88 4.75,6.88 4.42,6.88 4.42,7.21 4.42,7.54 4.75,7.54 4.75,7.21 5.08,7.21 
				5.42,7.21 5.75,7.21 5.75,6.88 			"/>
			<path class="st4" d="M8.41,7.54V7.21H7.75v0.67H7.08V7.54H6.41V7.21H5.75v0.67H5.08v0.33H4.75V7.88H4.41v0.66H4.08v1h0.33v0.67
				h0.67V9.54h0.33V9.21h0.34v0.33H5.41v0.34h0.34v0.66h0.66v0.34h0.67v-0.67h1.33V9.54H8.08V8.88h0.33V8.21h0.34V7.54H8.41z
				 M7.75,8.88H7.41V8.54h0.34V8.88z"/>
			<rect x="5.08" y="11.54" class="st4" width="0.33" height="0.33"/>
			<rect x="4.42" y="11.21" class="st4" width="0.33" height="0.33"/>
			<polygon class="st4" points="2.42,11.54 2.08,11.54 2.08,11.88 2.42,11.88 2.75,11.88 2.75,12.21 2.42,12.21 2.42,12.54 
				2.75,12.54 2.75,12.88 3.08,12.88 3.42,12.88 3.42,12.54 3.42,12.21 3.75,12.21 3.75,11.88 4.08,11.88 4.08,12.21 4.42,12.21 
				4.42,11.88 4.42,11.54 4.08,11.54 4.08,11.21 3.75,11.21 3.75,10.88 3.42,10.88 3.08,10.88 3.08,11.21 3.08,11.54 2.75,11.54 			
				"/>
			<polygon class="st4" points="3.42,9.88 3.75,9.88 3.75,9.54 3.75,9.21 3.42,9.21 3.08,9.21 2.75,9.21 2.75,9.54 3.08,9.54 
				3.08,9.88 			"/>
			<rect x="9.42" y="5.21" class="st4" width="0.33" height="0.33"/>
			<polygon class="st4" points="8.75,5.21 8.42,5.21 8.42,5.54 8.42,5.88 8.08,5.88 8.08,6.21 8.08,6.54 8.42,6.54 8.75,6.54 
				8.75,6.21 9.08,6.21 9.42,6.21 9.42,6.54 9.75,6.54 10.08,6.54 10.42,6.54 10.42,6.88 10.75,6.88 10.75,7.21 11.08,7.21 
				11.42,7.21 11.42,6.88 11.42,6.54 11.75,6.54 12.08,6.54 12.08,6.21 11.75,6.21 11.75,5.88 11.42,5.88 11.08,5.88 11.08,6.21 
				10.75,6.21 10.75,5.88 10.75,5.54 10.42,5.54 10.08,5.54 10.08,5.88 9.75,5.88 9.42,5.88 9.42,5.54 9.08,5.54 9.08,5.21 			"/>
			<rect x="10.42" y="8.88" class="st4" width="0.33" height="0.33"/>
			<path class="st4" d="M18.41,13.21v0.33h0.34v-0.33H18.41z M17.08,8.88v0.33h0.33V8.88H17.08z M18.41,13.21v0.33h0.34v-0.33H18.41
				z M17.08,8.88v0.33h0.33V8.88H17.08z M18.41,13.21v0.33h0.34v-0.33H18.41z M17.08,8.88v0.33h0.33V8.88H17.08z M18.41,13.21v0.33
				h0.34v-0.33H18.41z M17.08,8.88v0.33h0.33V8.88H17.08z M18.41,13.21v0.33h0.34v-0.33H18.41z M17.08,8.88v0.33h0.33V8.88H17.08z
				 M18.41,13.21v0.33h0.34v-0.33H18.41z M17.08,8.88v0.33h0.33V8.88H17.08z M18.41,13.21v0.33h0.34v-0.33H18.41z M17.08,8.88v0.33
				h0.33V8.88H17.08z M18.41,13.21v0.33h0.34v-0.33H18.41z M17.08,8.88v0.33h0.33V8.88H17.08z M18.41,13.21v0.33h0.34v-0.33H18.41z
				 M17.08,8.88v0.33h0.33V8.88H17.08z M18.41,13.21v0.33h0.34v-0.33H18.41z M17.08,8.88v0.33h0.33V8.88H17.08z M18.41,13.21v0.33
				h0.34v-0.33H18.41z M17.08,8.88v0.33h0.33V8.88H17.08z M18.41,13.21v0.33h0.34v-0.33H18.41z M17.08,8.88v0.33h0.33V8.88H17.08z
				 M18.41,13.21v0.33h0.34v-0.33H18.41z M17.08,8.88v0.33h0.33V8.88H17.08z M18.41,13.21v0.33h0.34v-0.33H18.41z M17.08,8.88v0.33
				h0.33V8.88H17.08z M18.41,13.21v0.33h0.34v-0.33H18.41z M17.08,8.88v0.33h0.33V8.88H17.08z M18.41,13.21v0.33h0.34v-0.33H18.41z
				 M17.08,8.88v0.33h0.33V8.88H17.08z M18.41,13.21v0.33h0.34v-0.33H18.41z M17.08,8.88v0.33h0.33V8.88H17.08z M18.41,13.21v0.33
				h0.34v-0.33H18.41z M17.08,8.88v0.33h0.33V8.88H17.08z M18.41,13.21v0.33h0.34v-0.33H18.41z M17.08,8.88v0.33h0.33V8.88H17.08z
				 M18.41,13.21v0.33h0.34v-0.33H18.41z M17.08,8.88v0.33h0.33V8.88H17.08z M18.41,13.21v0.33h0.34v-0.33H18.41z M17.08,8.88v0.33
				h0.33V8.88H17.08z M18.41,13.21v0.33h0.34v-0.33H18.41z M17.08,8.88v0.33h0.33V8.88H17.08z M18.41,13.21v0.33h0.34v-0.33H18.41z
				 M17.08,8.88v0.33h0.33V8.88H17.08z M18.41,13.21v0.33h0.34v-0.33H18.41z M17.08,8.88v0.33h0.33V8.88H17.08z M18.41,13.21v0.33
				h0.34v-0.33H18.41z M17.08,8.88v0.33h0.33V8.88H17.08z M18.41,13.21v0.33h0.34v-0.33H18.41z M17.08,8.88v0.33h0.33V8.88H17.08z
				 M18.41,13.21v0.33h0.34v-0.33H18.41z M17.08,8.88v0.33h0.33V8.88H17.08z M18.41,13.21v0.33h0.34v-0.33H18.41z M17.08,8.88v0.33
				h0.33V8.88H17.08z M18.41,13.21v0.33h0.34v-0.33H18.41z M17.08,8.88v0.33h0.33V8.88H17.08z M18.41,13.21v0.33h0.34v-0.33H18.41z
				 M17.08,8.88v0.33h0.33V8.88H17.08z M18.41,13.21v0.33h0.34v-0.33H18.41z M17.08,8.88v0.33h0.33V8.88H17.08z M18.41,13.21v0.33
				h0.34v-0.33H18.41z M17.08,8.88v0.33h0.33V8.88H17.08z M18.41,13.21v0.33h0.34v-0.33H18.41z M17.08,8.88v0.33h0.33V8.88H17.08z
				 M18.41,13.21v0.33h0.34v-0.33H18.41z M17.08,8.88v0.33h0.33V8.88H17.08z M18.41,13.21v0.33h0.34v-0.33H18.41z M17.08,8.88v0.33
				h0.33V8.88H17.08z M18.41,13.21v0.33h0.34v-0.33H18.41z M17.08,8.88v0.33h0.33V8.88H17.08z M18.41,13.21v0.33h0.34v-0.33H18.41z
				 M17.08,8.88v0.33h0.33V8.88H17.08z M18.41,13.21v0.33h0.34v-0.33H18.41z M17.08,8.88v0.33h0.33V8.88H17.08z M18.41,13.21v0.33
				h0.34v-0.33H18.41z M17.08,8.88v0.33h0.33V8.88H17.08z M18.41,13.21v0.33h0.34v-0.33H18.41z M17.08,8.88v0.33h0.33V8.88H17.08z
				 M18.41,13.21v0.33h0.34v-0.33H18.41z M17.08,8.88v0.33h0.33V8.88H17.08z M18.41,13.21v0.33h0.34v-0.33H18.41z M17.08,8.88v0.33
				h0.33V8.88H17.08z M18.41,13.21v0.33h0.34v-0.33H18.41z M17.08,8.88v0.33h0.33V8.88H17.08z M18.41,13.21v0.33h0.34v-0.33H18.41z
				 M17.08,8.88v0.33h0.33V8.88H17.08z M18.41,13.21v0.33h0.34v-0.33H18.41z M17.08,8.88v0.33h0.33V8.88H17.08z M18.41,13.21v0.33
				h0.34v-0.33H18.41z M17.08,8.88v0.33h0.33V8.88H17.08z M18.41,13.21v0.33h0.34v-0.33H18.41z M17.08,8.88v0.33h0.33V8.88H17.08z
				 M18.41,13.21v0.33h0.34v-0.33H18.41z M17.08,8.88v0.33h0.33V8.88H17.08z M18.41,13.21v0.33h0.34v-0.33H18.41z M17.08,8.88v0.33
				h0.33V8.88H17.08z M18.41,13.21v0.33h0.34v-0.33H18.41z M17.08,8.88v0.33h0.33V8.88H17.08z M18.41,13.21v0.33h0.34v-0.33H18.41z
				 M17.08,8.88v0.33h0.33V8.88H17.08z M18.41,13.21v0.33h0.34v-0.33H18.41z M17.08,8.88v0.33h0.33V8.88H17.08z M18.41,13.21v0.33
				h0.34v-0.33H18.41z M17.08,8.88v0.33h0.33V8.88H17.08z M18.41,13.21v0.33h0.34v-0.33H18.41z M17.08,8.88v0.33h0.33V8.88H17.08z
				 M18.41,13.21v0.33h0.34v-0.33H18.41z M17.08,8.88v0.33h0.33V8.88H17.08z M18.41,13.21v0.33h0.34v-0.33H18.41z M17.08,8.88v0.33
				h0.33V8.88H17.08z M18.41,13.21v0.33h0.34v-0.33H18.41z M17.08,8.88v0.33h0.33V8.88H17.08z M18.41,13.21v0.33h0.34v-0.33H18.41z
				 M17.08,8.88v0.33h0.33V8.88H17.08z M18.41,13.21v0.33h0.34v-0.33H18.41z M17.08,8.88v0.33h0.33V8.88H17.08z M18.41,13.21v0.33
				h0.34v-0.33H18.41z M17.08,8.88v0.33h0.33V8.88H17.08z M18.41,13.21v0.33h0.34v-0.33H18.41z M17.08,8.88v0.33h0.33V8.88H17.08z
				 M18.41,13.21v0.33h0.34v-0.33H18.41z M17.08,8.88v0.33h0.33V8.88H17.08z M18.41,13.21v0.33h0.34v-0.33H18.41z M17.08,8.88v0.33
				h0.33V8.88H17.08z M18.41,13.21v0.33h0.34v-0.33H18.41z M17.08,8.88v0.33h0.33V8.88H17.08z M18.41,13.21v0.33h0.34v-0.33H18.41z
				 M17.08,8.88v0.33h0.33V8.88H17.08z M18.41,13.21v0.33h0.34v-0.33H18.41z M17.08,8.88v0.33h0.33V8.88H17.08z M18.41,13.21v0.33
				h0.34v-0.33H18.41z M17.08,8.88v0.33h0.33V8.88H17.08z M18.41,13.21v0.33h0.34v-0.33H18.41z M17.08,8.88v0.33h0.33V8.88H17.08z
				 M18.41,13.21v0.33h0.34v-0.33H18.41z M17.08,8.88v0.33h0.33V8.88H17.08z M18.41,13.21v0.33h0.34v-0.33H18.41z M17.08,8.88v0.33
				h0.33V8.88H17.08z M18.41,13.21v0.33h0.34v-0.33H18.41z M17.08,8.88v0.33h0.33V8.88H17.08z M18.41,13.21v0.33h0.34v-0.33H18.41z
				 M17.08,8.88v0.33h0.33V8.88H17.08z M18.41,13.21v0.33h0.34v-0.33H18.41z M17.08,8.88v0.33h0.33V8.88H17.08z M18.41,13.21v0.33
				h0.34v-0.33H18.41z M17.08,8.88v0.33h0.33V8.88H17.08z M18.41,13.21v0.33h0.34v-0.33H18.41z M17.08,8.88v0.33h0.33V8.88H17.08z
				 M18.41,13.21v0.33h0.34v-0.33H18.41z M17.08,8.88v0.33h0.33V8.88H17.08z M18.41,13.21v0.33h0.34v-0.33H18.41z M17.08,8.88v0.33
				h0.33V8.88H17.08z M18.41,13.21v0.33h0.34v-0.33H18.41z M17.08,8.88v0.33h0.33V8.88H17.08z M18.41,13.21v0.33h0.34v-0.33H18.41z
				 M17.08,8.88v0.33h0.33V8.88H17.08z M18.41,13.21v0.33h0.34v-0.33H18.41z M17.08,8.88v0.33h0.33V8.88H17.08z M18.41,13.21v0.33
				h0.34v-0.33H18.41z M17.08,8.88v0.33h0.33V8.88H17.08z M18.41,13.21v0.33h0.34v-0.33H18.41z M17.08,8.88v0.33h0.33V8.88H17.08z
				 M18.41,13.21v0.33h0.34v-0.33H18.41z M17.08,8.88v0.33h0.33V8.88H17.08z M18.41,13.21v0.33h0.34v-0.33H18.41z M17.08,8.88v0.33
				h0.33V8.88H17.08z M18.41,13.21v0.33h0.34v-0.33H18.41z M17.08,8.88v0.33h0.33V8.88H17.08z M18.41,13.21v0.33h0.34v-0.33H18.41z
				 M17.08,8.88v0.33h0.33V8.88H17.08z M18.41,13.21v0.33h0.34v-0.33H18.41z M17.08,8.88v0.33h0.33V8.88H17.08z M18.41,13.21v0.33
				h0.34v-0.33H18.41z M17.08,8.88v0.33h0.33V8.88H17.08z M18.41,13.21v0.33h0.34v-0.33H18.41z M17.08,8.88v0.33h0.33V8.88H17.08z
				 M18.41,13.21v0.33h0.34v-0.33H18.41z M17.08,8.88v0.33h0.33V8.88H17.08z M18.41,13.21v0.33h0.34v-0.33H18.41z M17.08,8.88v0.33
				h0.33V8.88H17.08z M18.41,13.21v0.33h0.34v-0.33H18.41z M17.08,8.88v0.33h0.33V8.88H17.08z M18.41,13.21v0.33h0.34v-0.33H18.41z
				 M17.08,8.88v0.33h0.33V8.88H17.08z M18.41,13.21v0.33h0.34v-0.33H18.41z M17.08,8.88v0.33h0.33V8.88H17.08z M18.41,13.21v0.33
				h0.34v-0.33H18.41z M17.08,8.88v0.33h0.33V8.88H17.08z M18.41,13.21v0.33h0.34v-0.33H18.41z M17.08,8.88v0.33h0.33V8.88H17.08z
				 M22.08,12.21v-0.67h0.33v-0.33h-0.66v-0.67h0.66v0.67H23V11c0-0.15,0-0.31-0.01-0.46c-0.01-0.33-0.04-0.67-0.09-1h-0.82V9.21
				h0.67V8.88h0.05c-0.02-0.07-0.03-0.15-0.05-0.22V8.54h-0.34V8.21h-0.66v0.33h0.33v0.34h-0.33V8.54h-0.34v0.34h-1.33v-1h0.33V7.21
				h-0.33v0.33h-0.33v-1h0.33V5.88h-1v0.33h-0.67V5.88h-0.33V5.21h-0.67v0.33h-0.33v1h0.33v0.34h-0.33v0.33h-1V6.88h-1V6.21h-0.67
				v0.33h-0.33v0.34h-0.67v0.66h0.34v0.34h-0.67v0.66h-0.67v0.34h-0.66V8.54h-0.34v0.67h-0.66v0.33h0.33v0.34h-0.33v0.66h0.33v-0.33
				h0.33v0.33h0.67v-0.33h0.67v0.33h0.33v-0.33h0.33v0.33h1v0.34h0.34v0.33h0.33v0.67h-0.67v-0.34h-0.33v-0.33h-0.67v0.33h-0.33
				v-0.33h-0.33v1h-0.34v0.33h-0.66v-0.66h-0.67v0.33h-0.33v0.33h-1v0.34H9.08v-0.34H8.41v0.67h0.34v0.67h0.66v-0.34h0.34v-0.33
				h0.66v0.33h0.67v-0.66h0.33v0.33h0.67v-0.33h0.33v0.66h1v-0.33h-0.33v-0.33h0.67v0.66h0.66v0.67h-0.33v0.33h0.67v-0.33h0.33v0.33
				h1.33v-0.33h0.67v0.33h0.33v-0.33h0.67v0.33h0.33v0.34h-0.33v-0.34h-0.33v0.34h-0.34v0.33h0.34v0.33h1v-0.33h0.33v-0.33h0.67
				v0.33h0.33v-0.33h0.33v0.33h0.67v-0.67h-0.67v-0.33h1v-0.33h-0.33v-0.34h1v-0.33h0.67v-0.33H23v-0.67h-0.59v0.33h-0.66v-0.33
				H22.08z M19.41,11.54v-0.33h-0.66v-0.33h-0.34v-0.34h0.34v-0.33h0.33v0.33h-0.33v0.34h0.66v0.33h0.67v0.33H19.41z M21.08,10.88
				v-0.67h0.33v0.67H21.08z M20.41,9.88v0.33h-0.33V9.88H20.41z M17.08,8.88V8.21h0.33V7.88h0.67v0.66h0.67v0.34h0.33v0.33h-0.67
				v0.33h-1V8.88H17.08v0.33h-0.33V8.88H17.08z M17.41,12.21h-0.33v-0.33h0.33V12.21z M16.75,11.21h0.66v-0.33h0.34v0.33h-0.34v0.33
				h-0.66V11.21z M16.41,11.54h-0.33v-0.33h0.33V11.54z M13.08,9.54V9.21h0.33v0.33H13.08z M15.08,10.21h0.33v0.33h0.34v-0.33h0.33
				v0.33h-0.33v0.34h-0.67V10.21z M15.41,12.21v0.67h-0.66v-0.34h-0.34v-0.33H15.41z M17.41,13.54h-0.66v0.34h-0.34v-0.34h0.34
				v-0.33h0.66V13.54z M19.41,14.21h-0.33v-0.33h-0.67v-0.34h-0.66v-0.33h0.33v-0.67h0.67v-0.33h0.33v0.33h-0.33v0.67h-0.34v0.33
				h0.67v0.34h0.33V14.21z M19.75,13.21h-0.67v-0.33h0.67V13.21z M17.08,8.88v0.33h0.33V8.88H17.08z M18.41,13.21v0.33h0.34v-0.33
				H18.41z M17.08,8.88v0.33h0.33V8.88H17.08z M18.41,13.21v0.33h0.34v-0.33H18.41z M17.08,8.88v0.33h0.33V8.88H17.08z M18.41,13.21
				v0.33h0.34v-0.33H18.41z M17.08,8.88v0.33h0.33V8.88H17.08z M18.41,13.21v0.33h0.34v-0.33H18.41z M17.08,8.88v0.33h0.33V8.88
				H17.08z M18.41,13.21v0.33h0.34v-0.33H18.41z M17.08,8.88v0.33h0.33V8.88H17.08z M18.41,13.21v0.33h0.34v-0.33H18.41z
				 M17.08,8.88v0.33h0.33V8.88H17.08z M18.41,13.21v0.33h0.34v-0.33H18.41z M17.08,8.88v0.33h0.33V8.88H17.08z M18.41,13.21v0.33
				h0.34v-0.33H18.41z M17.08,8.88v0.33h0.33V8.88H17.08z M18.41,13.21v0.33h0.34v-0.33H18.41z M17.08,8.88v0.33h0.33V8.88H17.08z
				 M18.41,13.21v0.33h0.34v-0.33H18.41z M17.08,8.88v0.33h0.33V8.88H17.08z M18.41,13.21v0.33h0.34v-0.33H18.41z M17.08,8.88v0.33
				h0.33V8.88H17.08z M18.41,13.21v0.33h0.34v-0.33H18.41z M17.08,8.88v0.33h0.33V8.88H17.08z M18.41,13.21v0.33h0.34v-0.33H18.41z
				 M17.08,8.88v0.33h0.33V8.88H17.08z M18.41,13.21v0.33h0.34v-0.33H18.41z M17.08,8.88v0.33h0.33V8.88H17.08z M18.41,13.21v0.33
				h0.34v-0.33H18.41z M17.08,8.88v0.33h0.33V8.88H17.08z M18.41,13.21v0.33h0.34v-0.33H18.41z M17.08,8.88v0.33h0.33V8.88H17.08z
				 M18.41,13.21v0.33h0.34v-0.33H18.41z M17.08,8.88v0.33h0.33V8.88H17.08z M18.41,13.21v0.33h0.34v-0.33H18.41z M17.08,8.88v0.33
				h0.33V8.88H17.08z M18.41,13.21v0.33h0.34v-0.33H18.41z M17.08,8.88v0.33h0.33V8.88H17.08z M18.41,13.21v0.33h0.34v-0.33H18.41z
				 M17.08,8.88v0.33h0.33V8.88H17.08z M18.41,13.21v0.33h0.34v-0.33H18.41z M17.08,8.88v0.33h0.33V8.88H17.08z M18.41,13.21v0.33
				h0.34v-0.33H18.41z M17.08,8.88v0.33h0.33V8.88H17.08z M18.41,13.21v0.33h0.34v-0.33H18.41z M17.08,8.88v0.33h0.33V8.88H17.08z
				 M18.41,13.21v0.33h0.34v-0.33H18.41z M17.08,8.88v0.33h0.33V8.88H17.08z M18.41,13.21v0.33h0.34v-0.33H18.41z M17.08,8.88v0.33
				h0.33V8.88H17.08z M18.41,13.21v0.33h0.34v-0.33H18.41z M17.08,8.88v0.33h0.33V8.88H17.08z M18.41,13.21v0.33h0.34v-0.33H18.41z
				 M17.08,8.88v0.33h0.33V8.88H17.08z M18.41,13.21v0.33h0.34v-0.33H18.41z M17.08,8.88v0.33h0.33V8.88H17.08z M18.41,13.21v0.33
				h0.34v-0.33H18.41z M17.08,8.88v0.33h0.33V8.88H17.08z M18.41,13.21v0.33h0.34v-0.33H18.41z M17.08,8.88v0.33h0.33V8.88H17.08z
				 M18.41,13.21v0.33h0.34v-0.33H18.41z M17.08,8.88v0.33h0.33V8.88H17.08z M18.41,13.21v0.33h0.34v-0.33H18.41z M17.08,8.88v0.33
				h0.33V8.88H17.08z M18.41,13.21v0.33h0.34v-0.33H18.41z M17.08,8.88v0.33h0.33V8.88H17.08z M18.41,13.21v0.33h0.34v-0.33H18.41z
				 M17.08,8.88v0.33h0.33V8.88H17.08z M18.41,13.21v0.33h0.34v-0.33H18.41z M17.08,8.88v0.33h0.33V8.88H17.08z M18.41,13.21v0.33
				h0.34v-0.33H18.41z M17.08,8.88v0.33h0.33V8.88H17.08z M18.41,13.21v0.33h0.34v-0.33H18.41z M17.08,8.88v0.33h0.33V8.88H17.08z
				 M18.41,13.21v0.33h0.34v-0.33H18.41z M17.08,8.88v0.33h0.33V8.88H17.08z M18.41,13.21v0.33h0.34v-0.33H18.41z M17.08,8.88v0.33
				h0.33V8.88H17.08z M18.41,13.21v0.33h0.34v-0.33H18.41z M17.08,8.88v0.33h0.33V8.88H17.08z M18.41,13.21v0.33h0.34v-0.33H18.41z
				 M17.08,8.88v0.33h0.33V8.88H17.08z M18.41,13.21v0.33h0.34v-0.33H18.41z M17.08,8.88v0.33h0.33V8.88H17.08z M18.41,13.21v0.33
				h0.34v-0.33H18.41z M17.08,8.88v0.33h0.33V8.88H17.08z M18.41,13.21v0.33h0.34v-0.33H18.41z M17.08,8.88v0.33h0.33V8.88H17.08z
				 M18.41,13.21v0.33h0.34v-0.33H18.41z M17.08,8.88v0.33h0.33V8.88H17.08z M18.41,13.21v0.33h0.34v-0.33H18.41z M17.08,8.88v0.33
				h0.33V8.88H17.08z M18.41,13.21v0.33h0.34v-0.33H18.41z M17.08,8.88v0.33h0.33V8.88H17.08z M18.41,13.21v0.33h0.34v-0.33H18.41z
				 M17.08,8.88v0.33h0.33V8.88H17.08z M18.41,13.21v0.33h0.34v-0.33H18.41z M17.08,8.88v0.33h0.33V8.88H17.08z M18.41,13.21v0.33
				h0.34v-0.33H18.41z M17.08,8.88v0.33h0.33V8.88H17.08z M18.41,13.21v0.33h0.34v-0.33H18.41z M17.08,8.88v0.33h0.33V8.88H17.08z
				 M18.41,13.21v0.33h0.34v-0.33H18.41z M17.08,8.88v0.33h0.33V8.88H17.08z M18.41,13.21v0.33h0.34v-0.33H18.41z M17.08,8.88v0.33
				h0.33V8.88H17.08z M18.41,13.21v0.33h0.34v-0.33H18.41z M17.08,8.88v0.33h0.33V8.88H17.08z M18.41,13.21v0.33h0.34v-0.33H18.41z
				 M17.08,8.88v0.33h0.33V8.88H17.08z M18.41,13.21v0.33h0.34v-0.33H18.41z M17.08,8.88v0.33h0.33V8.88H17.08z M18.41,13.21v0.33
				h0.34v-0.33H18.41z M17.08,8.88v0.33h0.33V8.88H17.08z M18.41,13.21v0.33h0.34v-0.33H18.41z M17.08,8.88v0.33h0.33V8.88H17.08z
				 M18.41,13.21v0.33h0.34v-0.33H18.41z M17.08,8.88v0.33h0.33V8.88H17.08z M18.41,13.21v0.33h0.34v-0.33H18.41z M17.08,8.88v0.33
				h0.33V8.88H17.08z M18.41,13.21v0.33h0.34v-0.33H18.41z M17.08,8.88v0.33h0.33V8.88H17.08z M18.41,13.21v0.33h0.34v-0.33H18.41z
				 M17.08,8.88v0.33h0.33V8.88H17.08z M18.41,13.21v0.33h0.34v-0.33H18.41z M17.08,8.88v0.33h0.33V8.88H17.08z M18.41,13.21v0.33
				h0.34v-0.33H18.41z M17.08,8.88v0.33h0.33V8.88H17.08z M18.41,13.21v0.33h0.34v-0.33H18.41z M17.08,8.88v0.33h0.33V8.88H17.08z
				 M18.41,13.21v0.33h0.34v-0.33H18.41z M17.08,8.88v0.33h0.33V8.88H17.08z M18.41,13.21v0.33h0.34v-0.33H18.41z M17.08,8.88v0.33
				h0.33V8.88H17.08z M18.41,13.21v0.33h0.34v-0.33H18.41z M17.08,8.88v0.33h0.33V8.88H17.08z M18.41,13.21v0.33h0.34v-0.33H18.41z
				 M17.08,8.88v0.33h0.33V8.88H17.08z M18.41,13.21v0.33h0.34v-0.33H18.41z M17.08,8.88v0.33h0.33V8.88H17.08z M18.41,13.21v0.33
				h0.34v-0.33H18.41z M17.08,8.88v0.33h0.33V8.88H17.08z M18.41,13.21v0.33h0.34v-0.33H18.41z M17.08,8.88v0.33h0.33V8.88H17.08z
				 M18.41,13.21v0.33h0.34v-0.33H18.41z M17.08,8.88v0.33h0.33V8.88H17.08z M18.41,13.21v0.33h0.34v-0.33H18.41z M17.08,8.88v0.33
				h0.33V8.88H17.08z M18.41,13.21v0.33h0.34v-0.33H18.41z M17.08,8.88v0.33h0.33V8.88H17.08z M18.41,13.21v0.33h0.34v-0.33H18.41z
				 M17.08,8.88v0.33h0.33V8.88H17.08z M18.41,13.21v0.33h0.34v-0.33H18.41z M17.08,8.88v0.33h0.33V8.88H17.08z M18.41,13.21v0.33
				h0.34v-0.33H18.41z M17.08,8.88v0.33h0.33V8.88H17.08z M18.41,13.21v0.33h0.34v-0.33H18.41z M17.08,8.88v0.33h0.33V8.88H17.08z
				 M18.41,13.21v0.33h0.34v-0.33H18.41z M17.08,8.88v0.33h0.33V8.88H17.08z M18.41,13.21v0.33h0.34v-0.33H18.41z M17.08,8.88v0.33
				h0.33V8.88H17.08z M18.41,13.21v0.33h0.34v-0.33H18.41z M17.08,8.88v0.33h0.33V8.88H17.08z M18.41,13.21v0.33h0.34v-0.33H18.41z
				 M17.08,8.88v0.33h0.33V8.88H17.08z M18.41,13.21v0.33h0.34v-0.33H18.41z M17.08,8.88v0.33h0.33V8.88H17.08z M18.41,13.21v0.33
				h0.34v-0.33H18.41z M17.08,8.88v0.33h0.33V8.88H17.08z M18.41,13.21v0.33h0.34v-0.33H18.41z M17.08,8.88v0.33h0.33V8.88H17.08z
				 M18.41,13.21v0.33h0.34v-0.33H18.41z M17.08,8.88v0.33h0.33V8.88H17.08z M18.41,13.21v0.33h0.34v-0.33H18.41z M17.08,8.88v0.33
				h0.33V8.88H17.08z M18.41,13.21v0.33h0.34v-0.33H18.41z M17.08,8.88v0.33h0.33V8.88H17.08z M18.41,13.21v0.33h0.34v-0.33H18.41z
				 M17.08,8.88v0.33h0.33V8.88H17.08z M18.41,13.21v0.33h0.34v-0.33H18.41z M17.08,8.88v0.33h0.33V8.88H17.08z M18.41,13.21v0.33
				h0.34v-0.33H18.41z M17.08,8.88v0.33h0.33V8.88H17.08z M18.41,13.21v0.33h0.34v-0.33H18.41z M17.08,8.88v0.33h0.33V8.88H17.08z
				 M18.41,13.21v0.33h0.34v-0.33H18.41z M17.08,8.88v0.33h0.33V8.88H17.08z M18.41,13.21v0.33h0.34v-0.33H18.41z M18.41,13.21v0.33
				h0.34v-0.33H18.41z M17.08,8.88v0.33h0.33V8.88H17.08z"/>
			<path class="st4" d="M22.99,14.1c0.06,0.04,0.11,0.08,0.16,0.11h-0.07v0.33h-0.33v-0.33h-0.33v-0.33H23V14
				C23,14.03,22.99,14.06,22.99,14.1z"/>
			<polygon class="st4" points="15.08,14.88 14.75,14.88 14.75,15.21 15.08,15.21 15.08,15.54 15.42,15.54 15.75,15.54 15.75,15.21 
				15.42,15.21 15.42,14.88 			"/>
			<rect x="9.75" y="13.54" class="st4" width="0.33" height="0.33"/>
			<polygon class="st4" points="16.08,5.88 16.08,6.21 16.42,6.21 16.75,6.21 16.75,5.88 16.42,5.88 			"/>
			<polygon class="st4" points="8.42,17.21 8.75,17.21 8.75,16.88 8.75,16.54 8.42,16.54 8.08,16.54 7.75,16.54 7.75,16.88 
				8.08,16.88 8.08,17.21 			"/>
			<rect x="5.08" y="13.21" class="st4" width="0.33" height="0.33"/>
			<path class="st3" d="M9.08,17.88v0.33H8.41v-0.67h-1v0.34H6.75v-0.34H6.41v-0.66h0.67v-0.67h0.67v-0.33h1.33v-0.67H8.41v-0.33
				H8.08v0.33H7.75v-0.33H7.08v-0.67h0.33v-0.67H6.75v0.34H6.41v-0.34H6.08v0.34H5.75v-0.34H5.41v0.34h-1v1H4.08v-0.34H3.75v0.67
				h0.33v0.67h0.33v0.33h0.67v0.33H4.75v0.34H4.41v0.33H4.08v-0.33H3.75v-0.67H3.08v-0.33H1.75v0.33H1.08v0.33H0.75v-0.33h-0.5
				c0.28,0.4,0.8,0.77,1.5,1.1v-0.1h1v0.33H2.27c0.78,0.32,1.73,0.59,2.81,0.81c0.53,0.12,1.08,0.21,1.67,0.29
				c0.21,0.04,0.44,0.07,0.66,0.09c0.22,0.03,0.44,0.06,0.67,0.07c0.33,0.04,0.66,0.07,1,0.09v-0.01h1v-1H9.08z"/>
			<rect x="10.42" y="16.21" class="st4" width="0.33" height="0.33"/>
			<polygon class="st4" points="13.75,16.88 13.42,16.88 13.42,16.54 13.08,16.54 12.75,16.54 12.75,16.21 12.42,16.21 12.42,16.54 
				12.42,16.88 12.75,16.88 13.08,16.88 13.08,17.21 13.42,17.21 13.75,17.21 			"/>
			<rect x="14.08" y="16.54" class="st4" width="0.33" height="0.33"/>
			<polygon class="st4" points="11.75,16.88 11.42,16.88 11.08,16.88 10.75,16.88 10.75,17.21 10.42,17.21 10.08,17.21 10.08,17.54 
				10.08,17.88 10.42,17.88 10.75,17.88 10.75,17.54 11.08,17.54 11.08,17.21 11.42,17.21 11.42,17.54 11.75,17.54 12.08,17.54 
				12.08,17.21 11.75,17.21 			"/>
			<rect x="12.08" y="16.88" class="st4" width="0.33" height="0.33"/>
			<rect x="18.08" y="3.88" class="st4" width="0.33" height="0.33"/>
			<path class="st4" d="M20.08,3.54c-0.1-0.11-0.2-0.22-0.31-0.33c-0.11-0.11-0.23-0.23-0.35-0.33h-0.01V2.87
				c-0.42-0.38-0.86-0.73-1.33-1.04v0.38h-0.33v0.33h-0.34v0.67h0.34v0.33h-0.34v0.34h0.67v-1h0.33v0.33h0.67v0.67h0.67v0.33h0.66
				v-0.3C20.31,3.78,20.2,3.66,20.08,3.54z M17.41,1.42v0.12h0.21C17.55,1.5,17.48,1.46,17.41,1.42z"/>
			<polygon class="st4" points="15.42,3.21 15.42,2.88 15.75,2.88 15.75,3.21 15.75,3.54 16.08,3.54 16.42,3.54 16.75,3.54 
				16.75,3.21 16.42,3.21 16.42,2.88 16.75,2.88 16.75,2.54 16.42,2.54 16.42,2.21 16.08,2.21 15.75,2.21 15.75,1.88 16.08,1.88 
				16.08,1.54 15.75,1.54 15.42,1.54 15.42,1.88 15.08,1.88 14.75,1.88 14.75,2.21 15.08,2.21 15.08,2.54 14.75,2.54 14.75,2.88 
				14.75,3.21 15.08,3.21 			"/>
			<rect x="14.42" y="3.21" class="st4" width="0.33" height="0.33"/>
			<path class="st4" d="M11.75,0.54v0.34h-0.34V0.21h-1V0.12C9.6,0.23,8.82,0.44,8.08,0.72c-0.14,0.05-0.27,0.1-0.4,0.16
				c-0.23,0.1-0.46,0.21-0.69,0.33h0.09v0.33h0.33V1.21h0.34v0.33h0.66v0.34h0.67v0.33h0.33v0.33h0.34v0.34h0.66V2.21h-0.33V1.88
				h0.33V1.54h0.67v0.34h1V1.54h0.33V0.88h0.34V0.54H11.75z M8.41,2.54V1.88H8.08v0.33H7.75V1.88H7.08V1.54H6.75v-0.2
				C5.31,2.12,4.06,3.22,3.1,4.54C3.01,4.65,2.93,4.76,2.86,4.88C2.71,5.09,2.57,5.32,2.45,5.54C2.38,5.65,2.32,5.77,2.26,5.88
				S2.15,6.1,2.09,6.21L1.94,6.54h0.47v0.34h1V6.54H3.08V6.21h0.33V5.88h0.67V5.21h0.33v0.33h0.34v0.34h1V5.54h0.66V5.21H6.08V4.88
				h1V4.54H6.75V4.21H6.08V3.54H5.75V3.21H5.41V2.88h0.67V2.54h0.33v0.34H6.08v0.66h0.33V3.21h1v0.33h1.34V2.88h0.33V2.54H8.41z
				 M5.41,4.88H5.08V4.54h0.33V4.88z M5.75,3.88v0.33H5.41V3.88H4.75V3.54h0.66v0.34H5.75z M1.8,6.88C1.75,6.99,1.71,7.1,1.67,7.21
				h0.41V6.88H1.8z"/>
			<path class="st4" d="M16.41,18.54v0.21c-0.11,0.02-0.22,0.03-0.33,0.03v-0.24H16.41z"/>
			<path class="st4" d="M18.75,17.88v0.33h0.66v0.04c-0.11,0.03-0.22,0.05-0.33,0.07c-0.62,0.14-1.29,0.26-2,0.35v-0.13h0.67v-0.33
				h0.33v-0.33h-1v-0.34h0.33v-0.33h1.34v0.33h0.66v0.34H18.75z"/>
			<path class="st4" d="M19.75,17.88v0.29c-0.05,0.01-0.11,0.03-0.16,0.04h-0.17v-0.33H19.75z"/>
			<path class="st3" d="M1,11.88v1h0.41v-0.34h0.34v-0.66H1z"/>
		</g>
		<g>
			<rect x="7.08" y="9.21" class="st5" width="0.33" height="0.33"/>
			<rect x="6.42" y="8.88" class="st5" width="0.33" height="0.33"/>
			<rect x="7.75" y="10.88" class="st5" width="0.33" height="0.33"/>
			<polygon class="st5" points="6.75,10.21 6.75,10.54 7.08,10.54 7.42,10.54 7.42,10.21 7.08,10.21 			"/>
			<path class="st5" d="M1.75,11.88v-0.67H1.08v0.33H1v0.67h0.08v0.33h0.67v-0.33h0.33v-0.33H1.75z M6.41,7.21V6.88H5.75v0.66H5.08
				V7.21H4.41V6.88H3.75v0.66H3.08v0.34H2.75V7.54H2.41V7.21h0.34V6.88h1V6.21H3.41V5.88H2.75V5.21h0.33V4.88H2.86
				C2.71,5.09,2.57,5.32,2.45,5.54C2.38,5.65,2.32,5.77,2.26,5.88S2.15,6.1,2.09,6.21L1.94,6.54C1.89,6.65,1.84,6.76,1.8,6.88
				C1.75,6.99,1.71,7.1,1.67,7.21c-0.1,0.26-0.19,0.54-0.26,0.82v0.18H1.36c-0.09,0.33-0.16,0.66-0.21,1h0.6v0.33H1.1
				C1.08,9.66,1.07,9.77,1.06,9.88h0.02v0.33h0.33v0.33h0.34v0.67h1v-0.33H2.41v-0.34h0.34V9.88h0.33V9.21h0.33V8.88h0.34v0.33H3.41
				v0.33h0.34v0.67h0.66v0.33h0.67V9.88h1.33V9.21H6.08V8.54H5.75V8.21h0.33v0.33h0.33V7.88h0.34V7.21H6.41z M2.08,6.54h0.33v0.34
				H2.08V6.54z M1.75,7.88h0.66v0.33H1.75V7.88z M5.08,8.21v0.33H4.75V8.21H5.08z M4.41,7.54h0.34v0.34H4.41V7.54z M5.41,9.21V8.88
				h0.34v0.33H5.41z"/>
			<rect x="19.42" y="12.21" class="st5" width="0.33" height="0.33"/>
			<rect x="20.42" y="13.21" class="st5" width="0.33" height="0.33"/>
			<path class="st3" d="M23.41,15.54v0.67h0.34c0.15-0.22,0.24-0.44,0.25-0.67H23.41z M20.75,17.21v0.33h0.33v-0.33H20.75z
				 M22.41,16.21v0.33h0.67v-0.33H22.41z M20.08,16.88v0.33h0.33v-0.33H20.08z M18.75,15.88v0.33h0.33v-0.33H18.75z M19.08,18.32
				v-0.11h-0.33v-0.33v-0.34h0.66h0.34v-0.33h-0.67v-0.33h-1.33v-0.34h-0.34v-0.66h-0.33v-0.34v-0.33h0.33h0.34h0.33v-0.33h0.33
				h0.67v0.33h0.33v0.67h0.34v0.33h0.33v-0.33h0.33v-0.34v-0.33h0.34h0.33h0.33v-0.67h0.01h0.33v-0.33v-0.33h-0.34v-0.34v-0.33
				h-0.66v-0.67h-0.34h-0.33v-0.33h-0.33v-0.67h0.33v-0.33v-0.33h0.67v0.33h0.66v-0.33h0.34v0.33h0.33v0.33v0.34h-0.33h-0.34v0.33
				h0.34v0.33v0.34h0.33v-0.34h0.33H23 M21.74,17.54h-0.33v0.13"/>
			<rect x="6.75" y="5.21" class="st5" width="0.33" height="0.33"/>
			<polygon class="st5" points="5.42,4.54 5.42,4.88 5.75,4.88 5.75,5.21 5.75,5.54 6.08,5.54 6.42,5.54 6.42,5.21 6.75,5.21 
				6.75,4.88 7.08,4.88 7.42,4.88 7.42,5.21 7.75,5.21 8.08,5.21 8.08,4.88 8.08,4.54 8.42,4.54 8.42,4.88 8.75,4.88 9.08,4.88 
				9.08,4.54 9.42,4.54 9.42,4.21 9.08,4.21 8.75,4.21 8.75,3.88 8.75,3.54 8.42,3.54 8.08,3.54 8.08,3.88 7.75,3.88 7.75,4.21 
				7.42,4.21 7.08,4.21 6.75,4.21 6.75,4.54 6.42,4.54 6.08,4.54 6.08,4.21 5.75,4.21 5.42,4.21 			"/>
			<path class="st5" d="M15.08,11.88v0.33h-0.67v-0.33h0.34v-0.67h-2v0.67h-1v-0.34h-0.34v-0.33h-0.33v0.33h-0.67v-0.33h-0.33v-0.33
				H9.75v0.33H9.41v0.33H9.08v1H8.75v-0.33H8.08v0.67H7.41v-0.34H6.75v-0.33H6.08v0.67H5.41v0.33H5.08v-0.33H4.75v0.66H4.41v-0.33
				H3.75v0.33h0.33v0.34h0.67v0.33H4.41v0.33h0.34v0.67h0.66v-0.67h0.34v-0.33h0.33v0.33H5.75v0.34h0.33v0.66h0.33v-0.33h0.34v0.33
				h0.33v0.34h0.33v-1h0.67v0.33h0.33v-0.33h0.34v-0.34H8.41v-0.66h0.34v-0.67h0.33v0.67h0.67v0.33h0.33v0.67h0.33v0.33h0.67v0.67
				h0.67v-0.34h0.33v-0.33h-0.67v-0.33h0.34v-0.34h0.66v0.34h0.34v-0.34h0.33v0.34h0.67v-0.67h-0.34v-0.33h0.67v-0.34h-0.33v-0.33h1
				v-0.33h0.66v-0.34h0.34v-0.66H15.08z M6.08,13.54v-0.33h0.33v0.33H6.08z M7.75,13.88v-0.34h0.33v0.34H7.75z M12.41,12.54v0.34
				h-0.66v-0.34H12.41z M10.75,12.21h0.66v0.67h-0.33v0.33h-0.67v-0.33h0.34V12.21z"/>
			<rect x="9.42" y="15.21" class="st5" width="0.33" height="0.33"/>
			<rect x="6.42" y="15.88" class="st5" width="0.33" height="0.33"/>
			<rect x="5.75" y="11.88" class="st5" width="0.33" height="0.33"/>
			<rect x="6.08" y="11.54" class="st5" width="0.33" height="0.33"/>
			<polygon class="st5" points="4.75,11.88 4.75,12.21 4.75,12.54 5.08,12.54 5.08,12.21 5.42,12.21 5.42,11.88 5.08,11.88 			"/>
			<rect x="5.42" y="16.21" class="st5" width="0.33" height="0.33"/>
			<rect x="4.75" y="15.88" class="st5" width="0.33" height="0.33"/>
			<polygon class="st5" points="4.75,16.88 4.75,16.54 4.75,16.21 4.42,16.21 4.42,15.88 4.08,15.88 4.08,15.54 3.75,15.54 
				3.42,15.54 3.42,15.88 3.42,16.21 3.08,16.21 2.75,16.21 2.42,16.21 2.42,16.54 2.75,16.54 3.08,16.54 3.08,16.88 2.75,16.88 
				2.75,17.21 3.08,17.21 3.08,17.54 3.42,17.54 3.75,17.54 3.75,17.21 3.75,16.88 4.08,16.88 4.08,16.54 4.42,16.54 4.42,16.88 			
				"/>
			<polygon class="st5" points="3.75,14.88 4.08,14.88 4.08,14.54 4.08,14.21 3.75,14.21 3.42,14.21 3.08,14.21 3.08,14.54 
				3.42,14.54 3.42,14.88 			"/>
			<polygon class="st5" points="10.75,10.88 10.75,10.54 10.42,10.54 10.42,10.21 10.08,10.21 9.75,10.21 9.75,10.54 10.08,10.54 
				10.08,10.88 10.42,10.88 			"/>
			<rect x="12.42" y="15.54" class="st5" width="0.33" height="0.33"/>
			<polygon class="st5" points="15.75,14.21 15.75,13.88 16.08,13.88 16.08,13.54 16.42,13.54 16.42,13.21 16.08,13.21 15.75,13.21 
				15.75,13.54 15.42,13.54 15.08,13.54 15.08,13.88 15.42,13.88 15.42,14.21 			"/>
			<path class="st5" d="M15.08,18.54v-0.33h-0.33v-0.33h-0.34v0.33h-0.66v-0.33h-1v-0.34h-0.34v0.34h-0.33v0.33h0.33v0.33h-0.66
				v0.34h0.33V19c0.11,0,0.22,0,0.33-0.01v-0.11h0.34v0.11c0.8-0.01,1.58-0.05,2.33-0.11c0.23-0.01,0.45-0.03,0.67-0.06v-0.28H15.08
				z M14.41,18.88h-0.33v-0.34h0.33V18.88z"/>
			<rect x="15.75" y="18.21" class="st5" width="0.33" height="0.33"/>
			<polygon class="st5" points="13.42,17.54 13.42,17.21 13.08,17.21 12.75,17.21 12.75,17.54 13.08,17.54 			"/>
			<polygon class="st5" points="11.08,18.21 10.75,18.21 10.42,18.21 10.42,17.88 10.08,17.88 9.75,17.88 9.42,17.88 9.42,18.21 
				9.75,18.21 9.75,18.54 9.42,18.54 9.08,18.54 9.08,18.88 9.42,18.88 9.75,18.88 10.08,18.88 10.08,18.54 10.42,18.54 
				10.42,18.88 10.75,18.88 10.75,18.54 11.08,18.54 			"/>
			<rect x="10.42" y="17.54" class="st5" width="0.33" height="0.33"/>
			<path class="st5" d="M18.08,5.88V5.21h-0.67v0.33h0.34v0.67h0.66V5.88H18.08z M18.08,5.88V5.21h-0.67v0.33h0.34v0.67h0.66V5.88
				H18.08z M18.08,5.88V5.21h-0.67v0.33h0.34v0.67h0.66V5.88H18.08z M18.08,5.88V5.21h-0.67v0.33h0.34v0.67h0.66V5.88H18.08z
				 M18.08,5.88V5.21h-0.67v0.33h0.34v0.67h0.66V5.88H18.08z M18.08,5.88V5.21h-0.67v0.33h0.34v0.67h0.66V5.88H18.08z M18.08,5.88
				V5.21h-0.67v0.33h0.34v0.67h0.66V5.88H18.08z M18.08,5.88V5.21h-0.67v0.33h0.34v0.67h0.66V5.88H18.08z M18.08,5.88V5.21h-0.67
				v0.33h0.34v0.67h0.66V5.88H18.08z M18.08,5.88V5.21h-0.67v0.33h0.34v0.67h0.66V5.88H18.08z M18.08,5.88V5.21h-0.67v0.33h0.34
				v0.67h0.66V5.88H18.08z M18.08,5.88V5.21h-0.67v0.33h0.34v0.67h0.66V5.88H18.08z M18.08,5.88V5.21h-0.67v0.33h0.34v0.67h0.66
				V5.88H18.08z M18.08,5.88V5.21h-0.67v0.33h0.34v0.67h0.66V5.88H18.08z M18.08,5.88V5.21h-0.67v0.33h0.34v0.67h0.66V5.88H18.08z
				 M18.08,5.88V5.21h-0.67v0.33h0.34v0.67h0.66V5.88H18.08z M18.08,5.88V5.21h-0.67v0.33h0.34v0.67h0.66V5.88H18.08z M18.08,5.88
				V5.21h-0.67v0.33h0.34v0.67h0.66V5.88H18.08z M18.08,5.88V5.21h-0.67v0.33h0.34v0.67h0.66V5.88H18.08z M18.08,5.88V5.21h-0.67
				v0.33h0.34v0.67h0.66V5.88H18.08z M18.08,5.88V5.21h-0.67v0.33h0.34v0.67h0.66V5.88H18.08z M18.08,5.88V5.21h-0.67v0.33h0.34
				v0.67h0.66V5.88H18.08z M18.08,5.88V5.21h-0.67v0.33h0.34v0.67h0.66V5.88H18.08z M18.08,5.88V5.21h-0.67v0.33h0.34v0.67h0.66
				V5.88H18.08z M18.08,5.88V5.21h-0.67v0.33h0.34v0.67h0.66V5.88H18.08z M18.08,5.88V5.21h-0.67v0.33h0.34v0.67h0.66V5.88H18.08z
				 M18.08,5.88V5.21h-0.67v0.33h0.34v0.67h0.66V5.88H18.08z M18.08,5.88V5.21h-0.67v0.33h0.34v0.67h0.66V5.88H18.08z M18.08,5.88
				V5.21h-0.67v0.33h0.34v0.67h0.66V5.88H18.08z M18.08,5.88V5.21h-0.67v0.33h0.34v0.67h0.66V5.88H18.08z M18.08,5.88V5.21h-0.67
				v0.33h0.34v0.67h0.66V5.88H18.08z M18.08,5.88V5.21h-0.67v0.33h0.34v0.67h0.66V5.88H18.08z M18.08,5.88V5.21h-0.67v0.33h0.34
				v0.67h0.66V5.88H18.08z M18.08,5.88V5.21h-0.67v0.33h0.34v0.67h0.66V5.88H18.08z M18.08,5.88V5.21h-0.67v0.33h0.34v0.67h0.66
				V5.88H18.08z M18.08,5.88V5.21h-0.67v0.33h0.34v0.67h0.66V5.88H18.08z M18.08,5.88V5.21h-0.67v0.33h0.34v0.67h0.66V5.88H18.08z
				 M18.08,5.88V5.21h-0.67v0.33h0.34v0.67h0.66V5.88H18.08z M18.08,5.88V5.21h-0.67v0.33h0.34v0.67h0.66V5.88H18.08z M18.08,5.88
				V5.21h-0.67v0.33h0.34v0.67h0.66V5.88H18.08z M18.08,5.88V5.21h-0.67v0.33h0.34v0.67h0.66V5.88H18.08z M18.08,5.88V5.21h-0.67
				v0.33h0.34v0.67h0.66V5.88H18.08z M18.08,5.88V5.21h-0.67v0.33h0.34v0.67h0.66V5.88H18.08z M18.08,5.88V5.21h-0.67v0.33h0.34
				v0.67h0.66V5.88H18.08z M18.08,5.88V5.21h-0.67v0.33h0.34v0.67h0.66V5.88H18.08z M18.08,5.88V5.21h-0.67v0.33h0.34v0.67h0.66
				V5.88H18.08z M18.08,5.88V5.21h-0.67v0.33h0.34v0.67h0.66V5.88H18.08z M18.08,5.88V5.21h-0.67v0.33h0.34v0.67h0.66V5.88H18.08z
				 M18.08,5.88V5.21h-0.67v0.33h0.34v0.67h0.66V5.88H18.08z M18.08,5.88V5.21h-0.67v0.33h0.34v0.67h0.66V5.88H18.08z M18.08,5.88
				V5.21h-0.67v0.33h0.34v0.67h0.66V5.88H18.08z M18.08,5.88V5.21h-0.67v0.33h0.34v0.67h0.66V5.88H18.08z M18.08,5.88V5.21h-0.67
				v0.33h0.34v0.67h0.66V5.88H18.08z M18.08,5.88V5.21h-0.67v0.33h0.34v0.67h0.66V5.88H18.08z M18.08,5.88V5.21h-0.67v0.33h0.34
				v0.67h0.66V5.88H18.08z M18.08,5.88V5.21h-0.67v0.33h0.34v0.67h0.66V5.88H18.08z M18.08,5.88V5.21h-0.67v0.33h0.34v0.67h0.66
				V5.88H18.08z M18.08,5.88V5.21h-0.67v0.33h0.34v0.67h0.66V5.88H18.08z M18.08,5.88V5.21h-0.67v0.33h0.34v0.67h0.66V5.88H18.08z
				 M18.08,5.88V5.21h-0.67v0.33h0.34v0.67h0.66V5.88H18.08z M18.08,5.88V5.21h-0.67v0.33h0.34v0.67h0.66V5.88H18.08z M18.08,5.88
				V5.21h-0.67v0.33h0.34v0.67h0.66V5.88H18.08z M18.08,5.88V5.21h-0.67v0.33h0.34v0.67h0.66V5.88H18.08z M18.08,5.88V5.21h-0.67
				v0.33h0.34v0.67h0.66V5.88H18.08z M22.72,8.54c-0.1-0.46-0.23-0.9-0.39-1.33h-0.58V6.88h0.45c-0.13-0.34-0.29-0.67-0.46-1h-0.33
				v0.33h0.34v0.33h-0.34V6.21h-0.33v0.33h-1.33v-1h0.33V4.88h-0.33v0.33h-0.34v-1h0.34V3.88h-0.34V3.54h-0.66v0.34h-0.67V3.54
				h-0.33V2.88h-0.67v0.33h-0.33v1h0.33v0.33h-0.33v0.34h-1V4.54h-1V3.88h-0.67v0.33h-0.33v0.33h-0.67v0.34h0.33v0.66h-0.66v0.67
				h-0.67v0.33h-0.67V6.21h-0.33v1h-0.67v1h0.34V7.88h0.33v0.33h0.67V7.88h0.66v0.33h0.34V7.88h0.33v0.33h1v0.33h0.33v0.34h0.34
				V8.21h0.33v0.33h0.33v0.34h-0.33v0.33h0.67v0.33h0.66v0.34h-0.33v0.33h1V9.88h0.33V9.54h-0.33V9.21h0.33V8.88h-0.33V8.54h0.33
				v0.34h0.34V8.54h0.66v0.34h0.34v0.33h0.33V8.88h0.33v0.33h-0.33v0.33h0.33v0.34h0.67V9.54h-0.33V9.21h0.33V8.88h0.67v0.33h1.33
				V8.88h-0.67V8.21h0.67v0.67h0.67V8.54H22.72z M14.41,7.88h-0.33V7.54h0.33V7.88z M16.41,7.21h0.34v0.33h-0.34V7.21z M19.08,6.88
				h-0.33v0.33h-0.34V6.88h-0.33v0.33h-1V6.88h-0.67V6.54h0.34V6.21h-0.34V5.88h0.67V5.54h0.67v0.67h1.33V6.88z M20.41,8.54V8.21
				h0.34V7.88h-0.34V7.54h0.34v0.34h0.33v0.66H20.41z M18.08,5.88V5.21h-0.67v0.33h0.34v0.67h0.66V5.88H18.08z M18.08,5.88V5.21
				h-0.67v0.33h0.34v0.67h0.66V5.88H18.08z M18.08,5.88V5.21h-0.67v0.33h0.34v0.67h0.66V5.88H18.08z M18.08,5.88V5.21h-0.67v0.33
				h0.34v0.67h0.66V5.88H18.08z M18.08,5.88V5.21h-0.67v0.33h0.34v0.67h0.66V5.88H18.08z M18.08,5.88V5.21h-0.67v0.33h0.34v0.67
				h0.66V5.88H18.08z M18.08,5.88V5.21h-0.67v0.33h0.34v0.67h0.66V5.88H18.08z M18.08,5.88V5.21h-0.67v0.33h0.34v0.67h0.66V5.88
				H18.08z M18.08,5.88V5.21h-0.67v0.33h0.34v0.67h0.66V5.88H18.08z M18.08,5.88V5.21h-0.67v0.33h0.34v0.67h0.66V5.88H18.08z
				 M18.08,5.88V5.21h-0.67v0.33h0.34v0.67h0.66V5.88H18.08z M18.08,5.88V5.21h-0.67v0.33h0.34v0.67h0.66V5.88H18.08z M18.08,5.88
				V5.21h-0.67v0.33h0.34v0.67h0.66V5.88H18.08z M18.08,5.88V5.21h-0.67v0.33h0.34v0.67h0.66V5.88H18.08z M18.08,5.88V5.21h-0.67
				v0.33h0.34v0.67h0.66V5.88H18.08z M18.08,5.88V5.21h-0.67v0.33h0.34v0.67h0.66V5.88H18.08z M18.08,5.88V5.21h-0.67v0.33h0.34
				v0.67h0.66V5.88H18.08z M18.08,5.88V5.21h-0.67v0.33h0.34v0.67h0.66V5.88H18.08z M18.08,5.88V5.21h-0.67v0.33h0.34v0.67h0.66
				V5.88H18.08z M18.08,5.88V5.21h-0.67v0.33h0.34v0.67h0.66V5.88H18.08z M18.08,5.88V5.21h-0.67v0.33h0.34v0.67h0.66V5.88H18.08z
				 M18.08,5.88V5.21h-0.67v0.33h0.34v0.67h0.66V5.88H18.08z M18.08,5.88V5.21h-0.67v0.33h0.34v0.67h0.66V5.88H18.08z M18.08,5.88
				V5.21h-0.67v0.33h0.34v0.67h0.66V5.88H18.08z M18.08,5.88V5.21h-0.67v0.33h0.34v0.67h0.66V5.88H18.08z M18.08,5.88V5.21h-0.67
				v0.33h0.34v0.67h0.66V5.88H18.08z M18.08,5.88V5.21h-0.67v0.33h0.34v0.67h0.66V5.88H18.08z M18.08,5.88V5.21h-0.67v0.33h0.34
				v0.67h0.66V5.88H18.08z M18.08,5.88V5.21h-0.67v0.33h0.34v0.67h0.66V5.88H18.08z M18.08,5.88V5.21h-0.67v0.33h0.34v0.67h0.66
				V5.88H18.08z M18.08,5.88V5.21h-0.67v0.33h0.34v0.67h0.66V5.88H18.08z M18.08,5.88V5.21h-0.67v0.33h0.34v0.67h0.66V5.88H18.08z
				 M18.08,5.88V5.21h-0.67v0.33h0.34v0.67h0.66V5.88H18.08z M18.08,5.88V5.21h-0.67v0.33h0.34v0.67h0.66V5.88H18.08z M18.08,5.88
				V5.21h-0.67v0.33h0.34v0.67h0.66V5.88H18.08z M18.08,5.88V5.21h-0.67v0.33h0.34v0.67h0.66V5.88H18.08z M18.08,5.88V5.21h-0.67
				v0.33h0.34v0.67h0.66V5.88H18.08z M18.08,5.88V5.21h-0.67v0.33h0.34v0.67h0.66V5.88H18.08z M18.08,5.88V5.21h-0.67v0.33h0.34
				v0.67h0.66V5.88H18.08z M18.08,5.88V5.21h-0.67v0.33h0.34v0.67h0.66V5.88H18.08z M18.08,5.88V5.21h-0.67v0.33h0.34v0.67h0.66
				V5.88H18.08z M18.08,5.88V5.21h-0.67v0.33h0.34v0.67h0.66V5.88H18.08z M18.08,5.88V5.21h-0.67v0.33h0.34v0.67h0.66V5.88H18.08z
				 M18.08,5.88V5.21h-0.67v0.33h0.34v0.67h0.66V5.88H18.08z M18.08,5.88V5.21h-0.67v0.33h0.34v0.67h0.66V5.88H18.08z M18.08,5.88
				V5.21h-0.67v0.33h0.34v0.67h0.66V5.88H18.08z M18.08,5.88V5.21h-0.67v0.33h0.34v0.67h0.66V5.88H18.08z M18.08,5.88V5.21h-0.67
				v0.33h0.34v0.67h0.66V5.88H18.08z M18.08,5.88V5.21h-0.67v0.33h0.34v0.67h0.66V5.88H18.08z M18.08,5.88V5.21h-0.67v0.33h0.34
				v0.67h0.66V5.88H18.08z M18.08,5.88V5.21h-0.67v0.33h0.34v0.67h0.66V5.88H18.08z M18.08,5.88V5.21h-0.67v0.33h0.34v0.67h0.66
				V5.88H18.08z M18.08,5.88V5.21h-0.67v0.33h0.34v0.67h0.66V5.88H18.08z M18.08,5.88V5.21h-0.67v0.33h0.34v0.67h0.66V5.88H18.08z
				 M18.08,5.88V5.21h-0.67v0.33h0.34v0.67h0.66V5.88H18.08z M18.08,5.88V5.21h-0.67v0.33h0.34v0.67h0.66V5.88H18.08z M18.08,5.88
				V5.21h-0.67v0.33h0.34v0.67h0.66V5.88H18.08z M18.08,5.88V5.21h-0.67v0.33h0.34v0.67h0.66V5.88H18.08z M18.08,5.88V5.21h-0.67
				v0.33h0.34v0.67h0.66V5.88H18.08z M18.08,5.88V5.21h-0.67v0.33h0.34v0.67h0.66V5.88H18.08z M18.08,5.88V5.21h-0.67v0.33h0.34
				v0.67h0.66V5.88H18.08z M18.08,5.88V5.21h-0.67v0.33h0.34v0.67h0.66V5.88H18.08z M18.08,5.88V5.21h-0.67v0.33h0.34v0.67h0.66
				V5.88H18.08z M18.08,5.88V5.21h-0.67v0.33h0.34v0.67h0.66V5.88H18.08z"/>
			<rect x="12.42" y="8.88" class="st5" width="0.33" height="0.33"/>
			<rect x="12.75" y="4.21" class="st5" width="0.33" height="0.33"/>
			<polygon class="st5" points="13.08,8.88 13.08,9.21 13.42,9.21 13.75,9.21 13.75,8.88 13.42,8.88 			"/>
			<rect x="12.42" y="4.54" class="st5" width="0.33" height="0.33"/>
			<path class="st5" d="M20.08,3.54h-0.33V3.21h0.02C19.88,3.32,19.98,3.43,20.08,3.54z"/>
			<polygon class="st5" points="16.42,3.88 16.42,3.54 16.08,3.54 15.75,3.54 15.75,3.88 16.08,3.88 			"/>
			<path class="st5" d="M15.75,0.88V0.66c-0.22-0.08-0.44-0.16-0.67-0.22c-0.21-0.07-0.44-0.12-0.66-0.17h-0.01v0.27h-0.33V0.21
				h0.08c-0.46-0.09-0.93-0.15-1.41-0.18c-0.11-0.01-0.22-0.02-0.33-0.02C12.28,0,12.14,0,12,0c-0.54,0-1.07,0.04-1.59,0.12v0.42
				h0.67v0.34h0.33v0.33h-0.33v0.33h-0.67V1.21h-0.33V0.88H9.41v0.33h0.34v0.33H9.41v0.67h0.34V1.88h0.66v0.66h0.67v0.34h0.67V2.54
				h-0.34V2.21h0.67v0.33h1V2.21h-0.33V1.88h0.33V1.54h0.67V0.88h0.33v0.33h0.33v0.33h1V1.21h0.67V0.88H15.75z"/>
		</g>
		<g>
			<path class="st6" d="M8.08,0.72v0.16h-0.4C7.81,0.82,7.94,0.77,8.08,0.72z"/>
			<path class="st6" d="M12.75,0.03v0.18h-0.33v-0.2C12.53,0.01,12.64,0.02,12.75,0.03z"/>
			<rect x="13.75" y="0.88" class="st6" width="0.33" height="0.33"/>
			<path class="st6" d="M15.08,0.44v0.1h-0.66V0.27C14.64,0.32,14.87,0.37,15.08,0.44z"/>
			<path class="st6" d="M10.75,17.88v0.33h-1v-0.33H9.41v-0.34H9.08v-0.33H8.75v-0.33h0.66v-0.34H9.08v-0.33H8.41v0.67H7.75v0.33
				H7.08v-0.33H6.75v0.33H6.41v0.33h0.34v0.34H6.41v-0.34H6.08v0.34H5.75v-0.34H5.08v0.34h0.33v0.33H5.08v0.14
				c0.53,0.12,1.08,0.21,1.67,0.29v-0.1H6.41v-0.33h0.67v0.33h0.33v-0.33h0.34v0.33H7.41v0.19c0.22,0.03,0.44,0.06,0.67,0.07v-0.26
				h1v0.34h0.33v0.04c0.33,0.02,0.66,0.04,1,0.04v-0.08h0.34v-0.34h0.66v-0.66H10.75z M8.41,17.54h0.34v0.34H8.41V17.54z"/>
			<rect x="9.42" y="16.88" class="st6" width="0.33" height="0.33"/>
			<rect x="3.42" y="17.54" class="st6" width="0.33" height="0.33"/>
			<polygon class="st6" points="12.08,17.54 11.75,17.54 11.42,17.54 11.42,17.88 11.75,17.88 12.08,17.88 			"/>
			<path class="st6" d="M3.41,4.88V4.54H3.1C3.01,4.65,2.93,4.76,2.86,4.88C2.71,5.09,2.57,5.32,2.45,5.54h0.63V5.21h0.67V4.88H3.41
				z M2.26,5.88C2.2,5.99,2.15,6.1,2.09,6.21h0.32V5.88H2.26z M1.94,6.54C1.89,6.65,1.84,6.76,1.8,6.88
				C1.75,6.99,1.71,7.1,1.67,7.21h0.41V6.54H1.94z"/>
			<polygon class="st6" points="4.42,5.21 4.42,5.54 4.75,5.54 5.08,5.54 5.08,5.21 4.75,5.21 			"/>
			<rect x="3.42" y="4.21" class="st6" width="0.33" height="0.33"/>
			<rect x="3.42" y="5.88" class="st6" width="0.33" height="0.33"/>
			<rect x="10.42" y="3.88" class="st6" width="0.33" height="0.33"/>
			<rect x="7.42" y="5.21" class="st6" width="0.33" height="0.33"/>
			<rect x="7.75" y="4.88" class="st6" width="0.33" height="0.33"/>
			<rect x="13.75" y="4.21" class="st6" width="0.33" height="0.33"/>
			<rect x="9.42" y="7.21" class="st6" width="0.33" height="0.33"/>
			<rect x="8.75" y="6.54" class="st6" width="0.33" height="0.33"/>
			<polygon class="st6" points="10.42,6.88 10.08,6.88 9.75,6.88 9.75,7.21 10.08,7.21 10.42,7.21 			"/>
			<path class="st6" d="M17.41,4.54v0.34h-0.33V4.54h-0.33V4.21h0.33V3.88h0.33V3.54h-0.33V3.21h-0.67v0.33h-0.66V3.21h-0.34V2.54
				h-0.66v0.34h-0.34v1h0.34v0.33h-0.34v0.33h-0.33v0.34h-0.33V4.54h-0.34V4.21h-1V3.54h-0.66v0.34h-0.34v0.33h-0.66v0.67h0.33v0.33
				h-0.67v0.33h0.34v0.34h0.66V5.54h0.67V5.21h0.33v0.33h-0.33v0.34h-0.67v0.66h0.67v0.34h0.67V6.54h0.33V6.21h-0.33V5.88h0.33v0.33
				h0.33v0.33h0.34V5.88h-0.34V5.54h0.34v0.34h0.66V5.54h0.34V5.21h0.66v0.67h0.67V5.54h0.67v0.34h0.66V5.21h0.34V4.54H17.41z
				 M11.75,4.88h-0.34V4.54h0.34V4.88z M16.08,5.21h-0.33V4.88h-0.34V4.54h0.34v0.34h0.33V5.21z"/>
			<rect x="15.08" y="5.88" class="st6" width="0.33" height="0.33"/>
			<rect x="18.75" y="6.88" class="st6" width="0.33" height="0.33"/>
			<rect x="19.75" y="7.54" class="st6" width="0.33" height="0.33"/>
			<rect x="18.08" y="3.88" class="st6" width="0.33" height="0.33"/>
			<polygon class="st6" points="13.75,3.54 14.08,3.54 14.08,3.21 13.75,3.21 13.42,3.21 13.42,3.54 			"/>
			<rect x="13.08" y="2.88" class="st6" width="0.33" height="0.33"/>
			<rect x="1.08" y="16.54" class="st6" width="0.33" height="0.33"/>
			<polygon class="st6" points="3.08,11.54 3.08,11.21 2.75,11.21 2.42,11.21 2.42,11.54 2.75,11.54 			"/>
			<path class="st3" d="M1.41,11.54v-0.33H1.08v0.33H1v0.34h0.08v0.33h0.67v0.33h0.33v-0.66h0.33v-0.34H1.41z M1.75,11.88v0.66h0.33
				v-0.66H1.75z M1.75,11.88v0.66h0.33v-0.66H1.75z M1.75,11.88v0.66h0.33v-0.66H1.75z M1.75,11.88v0.66h0.33v-0.66H1.75z
				 M1.75,11.88v0.66h0.33v-0.66H1.75z M1.75,11.88v0.66h0.33v-0.66H1.75z M1.75,11.88v0.66h0.33v-0.66H1.75z M1.75,11.88v0.66h0.33
				v-0.66H1.75z M1.75,11.88v0.66h0.33v-0.66H1.75z M1.75,11.88v0.66h0.33v-0.66H1.75z M1.75,11.88v0.66h0.33v-0.66H1.75z
				 M1.75,11.88v0.66h0.33v-0.66H1.75z M1.75,11.88v0.66h0.33v-0.66H1.75z M1.75,11.88v0.66h0.33v-0.66H1.75z M1.75,11.88v0.66h0.33
				v-0.66H1.75z M1.75,11.88v0.66h0.33v-0.66H1.75z M1.75,11.88v0.66h0.33v-0.66H1.75z M1.75,11.88v0.66h0.33v-0.66H1.75z
				 M1.75,11.88v0.66h0.33v-0.66H1.75z M1.75,11.88v0.66h0.33v-0.66H1.75z M1.75,11.88v0.66h0.33v-0.66H1.75z M1.75,11.88v0.66h0.33
				v-0.66H1.75z M1.75,11.88v0.66h0.33v-0.66H1.75z M1.75,11.88v0.66h0.33v-0.66H1.75z M1.75,11.88v0.66h0.33v-0.66H1.75z
				 M1.75,11.88v0.66h0.33v-0.66H1.75z M1.75,11.88v0.66h0.33v-0.66H1.75z M1.75,11.88v0.66h0.33v-0.66H1.75z M1.75,11.88v0.66h0.33
				v-0.66H1.75z M1.75,11.88v0.66h0.33v-0.66H1.75z M1.75,11.88v0.66h0.33v-0.66H1.75z M1.75,11.88v0.66h0.33v-0.66H1.75z
				 M1.75,11.88v0.66h0.33v-0.66H1.75z M1.75,11.88v0.66h0.33v-0.66H1.75z M1.75,11.88v0.66h0.33v-0.66H1.75z M1.75,11.88v0.66h0.33
				v-0.66H1.75z M1.75,11.88v0.66h0.33v-0.66H1.75z M1.75,11.88v0.66h0.33v-0.66H1.75z M1.75,11.88v0.66h0.33v-0.66H1.75z
				 M1.75,11.88v0.66h0.33v-0.66H1.75z M1.75,11.88v0.66h0.33v-0.66H1.75z M1.75,11.88v0.66h0.33v-0.66H1.75z M2.41,12.54v0.34H1.75
				v-0.34H1.08v-0.33H1v1h0.08v0.67h1v-0.34h0.67v-0.33h0.33v-0.67H2.41z M2.08,11.88H1.75v0.66h0.33V11.88z M1.75,11.88v0.66h0.33
				v-0.66H1.75z M1.75,11.88v0.66h0.33v-0.66H1.75z M1.75,11.88v0.66h0.33v-0.66H1.75z M1.75,11.88v0.66h0.33v-0.66H1.75z
				 M1.75,11.88v0.66h0.33v-0.66H1.75z M1.75,11.88v0.66h0.33v-0.66H1.75z M1.75,11.88v0.66h0.33v-0.66H1.75z M1.75,11.88v0.66h0.33
				v-0.66H1.75z M1.75,11.88v0.66h0.33v-0.66H1.75z M1.75,11.88v0.66h0.33v-0.66H1.75z M1.75,11.88v0.66h0.33v-0.66H1.75z
				 M1.75,11.88v0.66h0.33v-0.66H1.75z M1.75,11.88v0.66h0.33v-0.66H1.75z M1.75,11.88v0.66h0.33v-0.66H1.75z M1.75,11.88v0.66h0.33
				v-0.66H1.75z M1.75,11.88v0.66h0.33v-0.66H1.75z M1.75,11.88v0.66h0.33v-0.66H1.75z M1.75,11.88v0.66h0.33v-0.66H1.75z
				 M1.75,11.88v0.66h0.33v-0.66H1.75z M1.75,11.88v0.66h0.33v-0.66H1.75z M1.75,11.88v0.66h0.33v-0.66H1.75z M1.75,11.88v0.66h0.33
				v-0.66H1.75z M1.75,11.88v0.66h0.33v-0.66H1.75z M1.75,11.88v0.66h0.33v-0.66H1.75z M1.75,11.88v0.66h0.33v-0.66H1.75z
				 M1.75,11.88v0.66h0.33v-0.66H1.75z M1.75,11.88v0.66h0.33v-0.66H1.75z M1.75,11.88v0.66h0.33v-0.66H1.75z M1.75,11.88v0.66h0.33
				v-0.66H1.75z M1.75,11.88v0.66h0.33v-0.66H1.75z M1.75,11.88v0.66h0.33v-0.66H1.75z M1.75,11.88v0.66h0.33v-0.66H1.75z
				 M1.75,11.88v0.66h0.33v-0.66H1.75z M1.75,11.88v0.66h0.33v-0.66H1.75z M1.75,11.88v0.66h0.33v-0.66H1.75z M1.75,11.88v0.66h0.33
				v-0.66H1.75z M1.75,11.88v0.66h0.33v-0.66H1.75z M1.75,11.88v0.66h0.33v-0.66H1.75z M1.75,11.88v0.66h0.33v-0.66H1.75z
				 M1.75,11.88v0.66h0.33v-0.66H1.75z M1.75,11.88v0.66h0.33v-0.66H1.75z M1.75,11.88v0.66h0.33v-0.66H1.75z M1.41,14.54v-0.33
				H1.08v-0.33H1V14c0,0.03,0.01,0.06,0.01,0.1C0.37,14.53,0,15,0,15.5v0.04h0.08v-0.33h0.33v0.33h0.67v-0.66H0.75v-0.34H1.41z"/>
			<polygon class="st6" points="3.08,14.21 2.75,14.21 2.42,14.21 2.42,14.54 2.75,14.54 2.75,14.88 3.08,14.88 3.08,14.54 
				3.42,14.54 3.42,14.21 3.42,13.88 3.08,13.88 			"/>
			<rect x="3.42" y="10.21" class="st6" width="0.33" height="0.33"/>
			<polygon class="st6" points="2.42,10.54 2.75,10.54 3.08,10.54 3.08,10.21 3.42,10.21 3.42,9.88 3.75,9.88 4.08,9.88 4.08,10.21 
				4.42,10.21 4.75,10.21 4.75,9.88 4.75,9.54 5.08,9.54 5.08,9.88 5.42,9.88 5.75,9.88 5.75,9.54 6.08,9.54 6.08,9.21 5.75,9.21 
				5.42,9.21 5.08,9.21 4.75,9.21 4.75,8.88 4.42,8.88 4.42,9.21 4.08,9.21 3.75,9.21 3.42,9.21 3.42,9.54 3.08,9.54 2.75,9.54 
				2.42,9.54 2.42,9.21 2.08,9.21 2.08,9.54 2.08,9.88 2.42,9.88 2.42,10.21 			"/>
			<rect x="2.42" y="8.88" class="st6" width="0.33" height="0.33"/>
			<rect x="5.08" y="8.54" class="st6" width="0.33" height="0.33"/>
			<rect x="7.42" y="10.54" class="st6" width="0.33" height="0.33"/>
			<rect x="6.08" y="10.21" class="st6" width="0.33" height="0.33"/>
			<polygon class="st6" points="21.42,15.21 21.75,15.21 22.08,15.21 22.08,14.88 21.75,14.88 21.75,14.54 21.42,14.54 21.42,14.88 
							"/>
			<path class="st6" d="M22.99,14.1c0-0.04,0.01-0.07,0.01-0.1v-0.79h-0.92v-0.33h-0.33v-0.34h0.33v-0.33h0.33v-0.33h-0.66v0.33
				h-0.67v0.33h-0.67v-0.33h-0.66v0.67h-0.34v0.33h-0.33v0.67h0.33v0.33h-0.33v-0.33h-0.67v-0.34h0.34v-0.33h0.33v-0.33h-0.67v-0.67
				h-0.33v-0.33h-0.67v0.33h-0.33v0.33h-0.33v0.34h0.33v0.33h0.33v-0.33h0.34v0.33h-0.34v0.33h-0.66v0.34h-0.34v-0.34h-0.33v-0.33
				h-0.33v0.33h-0.67v0.67h0.67v-0.33h0.33v0.33h-0.33v0.33h-0.34v0.67h-0.33v-0.33h-0.33v0.66h0.33v0.34h0.67v-0.34h0.33v-0.33
				h0.33v-0.33h1v-0.67h-0.33v-0.33h0.33v0.33h0.67v0.33h0.33v0.34h-0.33v-0.34h-0.33v0.34h-0.34v0.33h-0.33v0.33h0.33v0.34h0.67
				v-0.34h0.33v-0.33h0.34v0.33h-0.34v0.34h0.34v0.33h0.66v-0.33h0.34v-0.34h0.33v-0.33h0.33v0.33h0.34v-0.33h0.33v-0.67h0.33v-0.33
				h0.34v-0.33h0.33v0.33h0.33v-0.33h0.34v0.33h-0.34v0.33h0.67v-0.33h0.07C23.1,14.18,23.05,14.14,22.99,14.1z M19.41,15.21v-0.33
				h0.34v0.33H19.41z M20.08,12.88h0.33v0.33h-0.33V12.88z M20.75,14.54h-0.34v-0.33h0.34V14.54z"/>
			<rect x="16.42" y="10.88" class="st6" width="0.33" height="0.33"/>
			<rect x="16.42" y="15.21" class="st6" width="0.33" height="0.33"/>
			<rect x="16.08" y="15.88" class="st6" width="0.33" height="0.33"/>
			<path class="st6" d="M16.41,11.54v-0.33h-0.66v-0.33h-1v0.66h0.66v0.34h-0.66v-0.34h-0.34v0.34h-0.33v0.33h-0.67v-0.33h0.67
				v-0.34h-1v-0.33h0.33v-0.33h0.34v-0.67h-0.34v0.33h-0.33v-0.33h-1v0.67h-0.67v0.66h0.34v0.67h1v-0.33h0.33v0.33h-0.33v0.33h-0.67
				v0.67h-0.67v0.67h0.34v0.33h1v-0.33h0.33v0.66h0.67v-0.33h0.33v0.67h0.33v-0.67h0.34v-0.33h-0.34v-0.34h-0.66v0.34h-0.34v-0.34
				h0.34v-0.33h-0.34v-0.33h-0.33v-0.34h0.33v0.34h1v0.33h0.34v0.33h0.33v-0.33h0.33v-0.33h0.34v-0.34h0.33v-0.33h0.67v-0.67H16.41z
				 M12.41,11.21v-0.33h0.34v0.33H12.41z"/>
			<rect x="14.08" y="9.88" class="st6" width="0.33" height="0.33"/>
			<rect x="13.42" y="15.88" class="st6" width="0.33" height="0.33"/>
			<rect x="11.08" y="14.54" class="st6" width="0.33" height="0.33"/>
			<polygon class="st6" points="10.75,14.21 10.42,14.21 10.08,14.21 10.08,14.54 10.42,14.54 10.42,14.88 10.75,14.88 10.75,14.54 
				11.08,14.54 11.08,14.21 			"/>
			<polygon class="st6" points="11.08,12.88 11.08,12.54 10.75,12.54 10.42,12.54 10.42,12.88 10.75,12.88 10.75,13.21 11.08,13.21 
				11.42,13.21 11.42,12.88 			"/>
			<path class="st6" d="M23,11v0.21h-0.59v0.33h-0.66v-0.66h0.33v-0.67h0.67v0.33h0.24C23,10.69,23,10.85,23,11z"/>
			<rect x="21.75" y="6.88" class="st6" width="0.33" height="0.33"/>
			<path class="st6" d="M22.33,7.21h-0.25v0.67h0.33v0.33h-0.33v0.33h0.64C22.62,8.08,22.49,7.64,22.33,7.21z"/>
		</g>
	</g>
</g>
</svg>
