<?xml version="1.0" encoding="utf-8"?>
<!-- Generator: Adobe Illustrator 28.2.0, SVG Export Plug-In . SVG Version: 6.00 Build 0)  -->
<svg version="1.1" id="Layer_1" xmlns="http://www.w3.org/2000/svg" xmlns:xlink="http://www.w3.org/1999/xlink" x="0px" y="0px"
	 viewBox="0 0 24 24" style="enable-background:new 0 0 24 24;" xml:space="preserve">
<style type="text/css">
	.st0{fill:url(#SVGID_1_);}
	.st1{fill:#2E2E29;}
	.st2{fill:#FFFFFF;}
</style>
<radialGradient id="SVGID_1_" cx="12" cy="3.26" r="7.3634" gradientTransform="matrix(1 0 0 -1 0 24)" gradientUnits="userSpaceOnUse">
	<stop  offset="0" style="stop-color:#EDE0CE"/>
	<stop  offset="1" style="stop-color:#ECCBA5"/>
</radialGradient>
<path class="st0" d="M21.89,17.48C20.64,21.29,17.8,24,13.5,24h-3c-4.3,0-7.14-2.71-8.39-6.52C4.27,18.4,7.89,19,12,19
	S19.73,18.4,21.89,17.48z"/>
<path class="st1" d="M14.4,22.2H9.6c-0.33,0-0.6-0.27-0.6-0.6l0,0C9,21.27,9.27,21,9.6,21h4.8c0.33,0,0.6,0.27,0.6,0.6l0,0
	C15,21.93,14.73,22.2,14.4,22.2z"/>
<path class="st2" d="M24,15.5c0,0.17-0.04,0.34-0.13,0.5c-0.38,0.78-1.64,1.48-3.49,2c-2.16,0.62-5.11,1-8.38,1s-6.22-0.38-8.38-1
	c-1.85-0.52-3.11-1.22-3.49-2C0.04,15.84,0,15.67,0,15.5c0-0.5,0.36-0.97,1.01-1.4C1.01,14.06,1,14.03,1,14v-3
	c0-0.34,0.02-0.67,0.05-1c0.06-0.69,0.18-1.36,0.37-2C1.61,7.3,1.87,6.63,2.2,6C2.56,5.28,3,4.61,3.51,4c0.63-0.76,1.36-1.44,2.17-2
	C7.46,0.74,9.64,0,12,0s4.54,0.74,6.32,2c0.81,0.56,1.54,1.24,2.17,2C21,4.61,21.44,5.28,21.8,6c0.33,0.63,0.59,1.3,0.78,2
	c0.19,0.64,0.31,1.31,0.37,2c0.03,0.33,0.05,0.66,0.05,1v3c0,0.04-0.01,0.07-0.01,0.1C23.64,14.53,24,15,24,15.5z"/>
<g>
	<path class="st1" d="M23.87,16c-0.38,0.78-1.64,1.48-3.49,2H3.62c-1.85-0.52-3.11-1.22-3.49-2H23.87z"/>
	<rect x="1" y="12" class="st1" width="22" height="2"/>
	<path class="st1" d="M22.95,10H1.05c0.06-0.69,0.18-1.36,0.37-2h21.16C22.77,8.64,22.89,9.31,22.95,10z"/>
	<path class="st1" d="M21.8,6H2.2C2.56,5.28,3,4.61,3.51,4h16.98C21,4.61,21.44,5.28,21.8,6z"/>
	<path class="st1" d="M18.32,2H5.68C7.46,0.74,9.64,0,12,0S16.54,0.74,18.32,2z"/>
</g>
<path d="M6.31,9.44c0.78,0,1.14-0.41,1.14-0.94V8.2c0-0.52-0.36-0.94-1.14-0.94c-0.8,0-1.15,0.41-1.15,0.94v0.3
	C5.16,9.02,5.51,9.44,6.31,9.44z M6.31,8.26c0.06,0,0.11,0,0.14,0.01l0,0.16C6.42,8.44,6.37,8.44,6.31,8.44
	c-0.07,0-0.11,0-0.15-0.01l0-0.16C6.2,8.26,6.24,8.26,6.31,8.26z"/>
<path d="M8.74,8.78h0.95V7.93H8.74C8.75,8,8.75,8.06,8.75,8.12v0.46C8.75,8.65,8.75,8.71,8.74,8.78z"/>
<path d="M9.29,11.91H6.18c-0.39,0-0.58,0.17-0.58,0.52c0,0.35,0.19,0.52,0.58,0.52h3.11c0.39,0,0.58-0.17,0.58-0.52
	C9.87,12.08,9.68,11.91,9.29,11.91z"/>
<path d="M20.14,6.93V6.25v-1h-1h-1.29h-1v0.51h-0.46V5h-1h-1.3h-1v0.76h-0.84h-0.27V5.24h-1H9.69h-1v0.62H8.56
	c-0.61-0.42-1.35-0.65-2.1-0.65c-0.06,0-0.12,0-0.18,0C3.93,5.22,2.86,6.72,2.86,8.12v0.46c0,0.78,0.35,1.59,1.06,2.15
	c-0.38,0.43-0.59,1-0.59,1.7C3.33,14.02,4.4,15,6.11,15h3.27c1.22,0,2.1-0.51,2.51-1.38c0.35,0.77,1.12,1.38,2.53,1.38h3.11
	c2.05,0,2.78-1.28,2.78-2.48c0-0.32-0.06-0.64-0.17-0.95v-0.77v-0.79h1v-1V7.93v-1H20.14z"/>
<path d="M17.45,12.08h-2.94c-0.39,0-0.58,0.15-0.58,0.44c0,0.29,0.19,0.44,0.58,0.44h2.94c0.39,0,0.57-0.15,0.57-0.44
	C18.02,12.23,17.84,12.08,17.45,12.08z"/>
<g>
	<path class="st2" d="M6.31,10.48c0.69,0.05,1.38-0.19,1.9-0.65h1.48v0.81h1.29v-4.4H9.69v0.62H8.22C7.7,6.41,7.01,6.17,6.31,6.21
		c-1.61,0-2.45,0.89-2.45,1.91v0.46C3.86,9.6,4.7,10.48,6.31,10.48z M8.74,7.93h0.95v0.85H8.74c0.01-0.07,0.01-0.13,0.01-0.2V8.12
		C8.75,8.06,8.75,8,8.74,7.93z M5.16,8.2c0-0.53,0.35-0.94,1.15-0.94c0.78,0,1.14,0.42,1.14,0.94v0.3c0,0.53-0.36,0.94-1.14,0.94
		c-0.8,0-1.15-0.42-1.15-0.94V8.2z"/>
	<path class="st2" d="M9.38,10.87H6.11c-1.2,0-1.78,0.57-1.78,1.56S4.91,14,6.11,14h3.27c1.19,0,1.77-0.59,1.77-1.57
		S10.57,10.87,9.38,10.87z M9.29,12.95H6.18c-0.39,0-0.58-0.17-0.58-0.52c0-0.35,0.19-0.52,0.58-0.52h3.11
		c0.39,0,0.58,0.17,0.58,0.52C9.87,12.78,9.68,12.95,9.29,12.95z"/>
	<polygon class="st2" points="19.14,7.93 19.14,6.25 17.85,6.25 17.85,10.81 19.14,10.81 19.14,9.02 20.14,9.02 20.14,7.93 	"/>
	<path class="st2" d="M17.53,11.04h-3.11c-1.2,0-1.77,0.55-1.77,1.48S13.23,14,14.42,14h3.11c1.2,0,1.78-0.55,1.78-1.48
		S18.73,11.04,17.53,11.04z M17.45,12.96h-2.94c-0.39,0-0.58-0.15-0.58-0.44c0-0.29,0.19-0.44,0.58-0.44h2.94
		c0.39,0,0.57,0.15,0.57,0.44C18.02,12.81,17.84,12.96,17.45,12.96z"/>
	<path class="st2" d="M14.76,9.14c0.51,0.7,1.22,1.22,2.04,1.48l0.67-0.99c-1.12-0.36-1.96-1.05-2.05-1.83h1.75V6.76h-1.78V6h-1.3
		v0.76h-1.84v1.05h1.81c-0.1,0.79-0.89,1.6-2.23,2.07l0.77,0.91C13.48,10.5,14.25,9.92,14.76,9.14z"/>
</g>
</svg>
