<svg xmlns="http://www.w3.org/2000/svg" width="15" height="13.929" viewBox="0 0 15 13.929">
  <g id="check2-circle" transform="translate(-1.5 -1.499)">
    <path id="패스_77" data-name="패스 77" d="M2.571,8.464a5.893,5.893,0,0,1,8.839-5.1.536.536,0,1,0,.536-.928,6.964,6.964,0,1,0,3.482,6.032.536.536,0,1,0-1.071,0,5.893,5.893,0,0,1-11.785,0Z" transform="translate(0)" fill="#98e62a"/>
    <path id="패스_78" data-name="패스 78" d="M16.129,3.415a.536.536,0,1,0-.759-.759L8.25,9.778,5.415,6.942a.536.536,0,0,0-.759.759l3.214,3.214a.536.536,0,0,0,.759,0Z" transform="translate(0.214 0.071)" fill="#98e62a"/>
  </g>
</svg>
