<svg id="그룹_22076" data-name="그룹 22076" xmlns="http://www.w3.org/2000/svg" xmlns:xlink="http://www.w3.org/1999/xlink" width="135.568" height="20" viewBox="0 0 135.568 20">
  <defs>
    <clipPath id="clip-path">
      <rect id="사각형_29232" data-name="사각형 29232" width="135.568" height="20" fill="none"/>
    </clipPath>
  </defs>
  <g id="그룹_22075" data-name="그룹 22075" clip-path="url(#clip-path)">
    <path id="패스_48066" data-name="패스 48066" d="M15.857,6.118c.03-.325.03-.68.03-.8a5.571,5.571,0,0,0-1.093-3.75C13.79.389,12.166,0,8.15,0,4.488,0,2.894.3,1.624,1.186.531,1.983.029,3.43.029,5.793c0,2.8.621,4.252,2.156,5.02,1,.5,1.919.649,5.138.856,3.573.236,3.573.236,4.046.62.384.266.531.8.531,1.654a2.389,2.389,0,0,1-.62,1.978c-.5.384-.945.473-2.746.473-2.687,0-3.1-.059-3.573-.443a2.585,2.585,0,0,1-.62-2.067v-.355H0c0,2.451.207,3.485.827,4.43C1.8,19.524,3.514,20,8.327,20c3.957,0,5.522-.325,6.762-1.476.945-.886,1.3-2.215,1.3-4.754,0-2.6-.443-3.751-1.713-4.577-1-.65-2.1-.886-5.256-1.064a26.671,26.671,0,0,1-3.6-.3c-.886-.236-1.24-.8-1.24-2.008,0-1.89.65-2.3,3.721-2.3,2.775,0,3.218.354,3.218,2.6ZM27.492,0a23.933,23.933,0,0,0-4.253.3,6.009,6.009,0,0,0-3.75,2.3c-.974,1.387-1.211,3.071-1.211,8.209a24.293,24.293,0,0,0,.207,4.016A5.367,5.367,0,0,0,21.2,19.022c1.24.708,2.746.974,5.847.974a24.407,24.407,0,0,0,4.252-.3,5.791,5.791,0,0,0,3.868-2.481c.856-1.446,1.063-2.775,1.063-7.234A27.994,27.994,0,0,0,36,5.084a5.37,5.37,0,0,0-3.278-4.4C31.567.182,30.267,0,27.492,0m-.325,3.9c2.362,0,3.13.147,3.632.738.708.827.8,1.358.8,5.286,0,3.012-.059,3.72-.384,4.606C30.74,15.774,30,16.1,27.551,16.1c-2.54,0-3.367-.147-3.869-.738-.62-.738-.767-1.594-.767-4.754,0-4.607.118-5.315.915-6.024.591-.532,1.27-.679,3.337-.679M43.437.153H38.89v19.7H52.148V15.921H43.437Zm10.572,19.7H63.93c3.751,0,5.759-.975,6.851-3.278.62-1.359.768-3.012.768-8.652,0-5.493-2.215-7.766-7.53-7.766H54.009Zm4.547-3.9V4.11h4.9c1.535,0,2.333.3,2.805,1.033.5.738.65,1.86.65,4.7,0,3.042-.148,4.134-.679,4.961S64.9,15.951,63.34,15.951ZM90.123,0a23.916,23.916,0,0,0-4.252.3A6.008,6.008,0,0,0,82.12,2.6c-.974,1.387-1.21,3.071-1.21,8.209a24.183,24.183,0,0,0,.206,4.016,5.367,5.367,0,0,0,2.717,4.193c1.24.708,2.746.974,5.847.974a24.407,24.407,0,0,0,4.252-.3A5.791,5.791,0,0,0,97.8,17.22c.857-1.446,1.063-2.775,1.063-7.234a27.994,27.994,0,0,0-.236-4.9,5.37,5.37,0,0,0-3.278-4.4C94.2.182,92.9,0,90.123,0M89.8,3.9c2.362,0,3.13.147,3.632.738.709.827.8,1.358.8,5.286,0,3.012-.059,3.72-.384,4.606-.472,1.241-1.21,1.565-3.661,1.565-2.54,0-3.367-.147-3.869-.738-.62-.738-.767-1.594-.767-4.754,0-4.607.118-5.315.915-6.024.591-.532,1.27-.679,3.337-.679M113.716.153V13.027c0,2.658-.5,3.071-3.691,3.071-3.425,0-3.986-.384-3.986-2.864V.153h-4.548V13.234c0,3.691.621,5.109,2.747,6.024,1.21.561,2.657.738,5.7.738,3.307,0,4.518-.177,5.787-.856a4.464,4.464,0,0,0,2.363-3.544c.088-.62.177-2.155.177-2.687V.153ZM129.987,4.08h5.581V.153H120.124V4.08h5.316V19.849h4.547Z" fill="#fff"/>
  </g>
</svg>
