<svg width="106" height="21" viewBox="0 0 106 21" fill="none" xmlns="http://www.w3.org/2000/svg">
<path fill-rule="evenodd" clip-rule="evenodd" d="M106 0H0V21H106V0ZM14.2213 6.17115L11.9655 1.60044C11.5705 0.799854 10.429 0.799854 10.0344 1.60044L7.77864 6.17115C7.62177 6.48905 7.31848 6.70932 6.96762 6.76022L1.9234 7.49322C1.0398 7.6213 0.687272 8.70682 1.3264 9.3301L4.97638 12.8879C5.23003 13.1353 5.34601 13.492 5.28594 13.8412L4.42444 18.8649C4.27342 19.7448 5.19708 20.416 5.98723 20.0005L10.4987 17.6288C10.8124 17.464 11.1875 17.464 11.5012 17.6288L16.0127 20.0005C16.8028 20.4156 17.7265 19.7448 17.5755 18.8649L16.714 13.8412C16.6539 13.492 16.7699 13.1353 17.0235 12.8879L20.6735 9.3301C21.3126 8.70724 20.9601 7.62172 20.0765 7.49322L15.0323 6.76022C14.6814 6.70932 14.3781 6.48905 14.2213 6.17115ZM53.9653 1.60044L56.221 6.17115C56.3779 6.48905 56.6812 6.70932 57.032 6.76022L62.0763 7.49322C62.9599 7.62172 63.3124 8.70724 62.6733 9.3301L59.0233 12.8879C58.7696 13.1353 58.6537 13.492 58.7137 13.8412L59.5752 18.8649C59.7262 19.7448 58.8026 20.4156 58.0124 20.0005L53.501 17.6288C53.1872 17.464 52.8122 17.464 52.4985 17.6288L47.987 20.0005C47.1968 20.416 46.2732 19.7448 46.4242 18.8649L47.2857 13.8412C47.3458 13.492 47.2298 13.1353 46.9761 12.8879L43.3262 9.3301C42.687 8.70682 43.0396 7.6213 43.9232 7.49322L48.9674 6.76022C49.3182 6.70932 49.6215 6.48905 49.7784 6.17115L52.0341 1.60044C52.4288 0.799854 53.5702 0.799854 53.9653 1.60044ZM35.221 6.17115L32.9653 1.60044C32.5702 0.799854 31.4288 0.799854 31.0341 1.60044L28.7784 6.17115C28.6215 6.48905 28.3182 6.70932 27.9674 6.76022L22.9232 7.49322C22.0396 7.6213 21.687 8.70682 22.3262 9.3301L25.9761 12.8879C26.2298 13.1353 26.3458 13.492 26.2857 13.8412L25.4242 18.8649C25.2732 19.7448 26.1968 20.416 26.987 20.0005L31.4985 17.6288C31.8122 17.464 32.1872 17.464 32.501 17.6288L37.0124 20.0005C37.8026 20.4156 38.7262 19.7448 38.5752 18.8649L37.7137 13.8412C37.6537 13.492 37.7696 13.1353 38.0233 12.8879L41.6733 9.3301C42.3124 8.70724 41.9599 7.62172 41.0763 7.49322L36.032 6.76022C35.6812 6.70932 35.3779 6.48905 35.221 6.17115ZM74.965 1.60044L77.2208 6.17115C77.3776 6.48905 77.6809 6.70932 78.0318 6.76022L83.076 7.49322C83.9596 7.62172 84.3121 8.70724 83.673 9.3301L80.023 12.8879C79.7694 13.1353 79.6534 13.492 79.7135 13.8412L80.575 18.8649C80.726 19.7448 79.8023 20.4156 79.0122 20.0005L74.5007 17.6288C74.187 17.464 73.8119 17.464 73.4982 17.6288L68.9867 20.0005C68.1966 20.416 67.2729 19.7448 67.424 18.8649L68.2854 13.8412C68.3455 13.492 68.2295 13.1353 67.9759 12.8879L64.3259 9.3301C63.6868 8.70682 64.0393 7.6213 64.9229 7.49322L69.9671 6.76022C70.318 6.70932 70.6213 6.48905 70.7782 6.17115L73.0339 1.60044C73.4285 0.799854 74.57 0.799854 74.965 1.60044ZM98.221 6.17115L95.9653 1.60044C95.5702 0.799854 94.4288 0.799854 94.0341 1.60044L91.7784 6.17115C91.6215 6.48905 91.3182 6.70932 90.9674 6.76022L85.9232 7.49322C85.0396 7.6213 84.687 8.70682 85.3262 9.3301L88.9761 12.8879C89.2298 13.1353 89.3458 13.492 89.2857 13.8412L88.4242 18.8649C88.2732 19.7448 89.1968 20.416 89.987 20.0005L94.4985 17.6288C94.8122 17.464 95.1872 17.464 95.501 17.6288L100.012 20.0005C100.803 20.4156 101.726 19.7448 101.575 18.8649L100.714 13.8412C100.654 13.492 100.77 13.1353 101.023 12.8879L104.673 9.3301C105.312 8.70724 104.96 7.62172 104.076 7.49322L99.032 6.76022C98.6812 6.70932 98.3779 6.48905 98.221 6.17115Z" fill="#FAFAFA"/>
</svg>
