<svg xmlns="http://www.w3.org/2000/svg" width="18" height="18" viewBox="0 0 18 18">
  <g id="그룹_22341" data-name="그룹 22341" transform="translate(-265 -206)">
    <path id="패스_48265" data-name="패스 48265" d="M38.637,1a2,2,0,0,1,2,2V15a2,2,0,0,1-2,2h-12a2,2,0,0,1-2-2V3a2,2,0,0,1,2-2Zm0-1h-12a3,3,0,0,0-3,3V15a3,3,0,0,0,3,3h12a3,3,0,0,0,3-3V3a3,3,0,0,0-3-3" transform="translate(241.363 206)" fill="#c2c2cb"/>
    <path id="패스_48266" data-name="패스 48266" d="M29.364,3.545h2.182v1.6H29.364Zm0,3.2h2.182v1.6H29.364Zm0,1.6h2.182v1.6H29.364Zm0,1.6h2.182v1.6H29.364Zm2.183-6.4h2.182v1.6H31.547Zm0,3.2h2.182v1.6H31.547Zm0,3.2h2.182v1.6H31.547Zm2.181-6.4H35.91v1.6H33.728Zm0,1.6H35.91v1.6H33.728Zm0,1.6H35.91v1.6H33.728Zm0,3.2H35.91v1.6H33.728Z" transform="translate(241.363 207.455)" fill="#c2c2cb"/>
  </g>
</svg>
