<svg xmlns="http://www.w3.org/2000/svg" width="18" height="18" viewBox="0 0 18 18">
  <g id="그룹_22348" data-name="그룹 22348" transform="translate(-398 -206)">
    <path id="패스_48262" data-name="패스 48262" d="M206.76,1a2,2,0,0,1,2,2V15a2,2,0,0,1-2,2h-12a2,2,0,0,1-2-2V3a2,2,0,0,1,2-2Zm0-1h-12a3,3,0,0,0-3,3V15a3,3,0,0,0,3,3h12a3,3,0,0,0,3-3V3a3,3,0,0,0-3-3" transform="translate(206.24 206)" fill="#27272a"/>
    <path id="패스_48263" data-name="패스 48263" d="M197.487,3.545h2.182v1.6h-2.182Zm0,1.6h2.182v1.6h-2.182Zm0,1.6h2.182v1.6h-2.182Zm0,3.2h2.182v1.6h-2.182Zm2.181-6.4h2.182v1.6h-2.182Zm0,3.2h2.182v1.6h-2.182Zm0,3.2h2.182v1.6h-2.182Zm2.182-6.4h2.183v1.6H201.85Zm0,1.6h2.183v1.6H201.85Zm0,1.6h2.183v1.6H201.85Zm0,1.6h2.183v1.6H201.85Zm0,1.6h2.183v1.6H201.85Z" transform="translate(206.24 207.455)" fill="#27272a"/>
  </g>
</svg>
