<svg xmlns="http://www.w3.org/2000/svg" width="18" height="18" viewBox="0 0 18 18">
  <g id="그룹_22367" data-name="그룹 22367" transform="translate(-417 -206)">
    <path id="패스_48163" data-name="패스 48163" d="M15,18H3a3,3,0,0,1-3-3V3A3,3,0,0,1,3,0H15a3,3,0,0,1,3,3V15a3,3,0,0,1-3,3" transform="translate(417 206)" fill="#ff5454"/>
    <rect id="사각형_29496" data-name="사각형 29496" width="18" height="18" transform="translate(417 206)" fill="none"/>
    <path id="패스_48299" data-name="패스 48299" d="M1.624,22l-1.6,1.342v2.3l1.6,1.339h3.6l.323.271v1.139l-.336.281H2.546l-.323-.27v-.781H0V29.06L1.6,30.4H6.141l1.628-1.364V26.6l-1.6-1.34h-3.6l-.321-.27V24l.321-.27H5.118L5.441,24v.793H7.666V23.342L6.07,22Z" transform="translate(422.179 188.8)" fill="#fff"/>
  </g>
</svg>
